<svg width="25" height="25" viewBox="0 0 25 25" fill="none" xmlns="http://www.w3.org/2000/svg">
<mask id="mask0_4058_18848" style="mask-type:alpha" maskUnits="userSpaceOnUse" x="0" y="0" width="25" height="25">
<rect x="0.0400391" y="0.957031" width="24" height="24" fill="#D9D9D9"/>
</mask>
<g mask="url(#mask0_4058_18848)">
<path d="M19.4803 21.457C17.5958 21.457 15.7025 21.0189 13.8005 20.1425C11.8987 19.2662 10.1513 18.03 8.55829 16.434C6.96546 14.8379 5.73087 13.0904 4.85454 11.1915C3.97821 9.29286 3.54004 7.40128 3.54004 5.51678C3.54004 5.21395 3.64004 4.96161 3.84004 4.75978C4.04004 4.55795 4.29004 4.45703 4.59004 4.45703H7.85154C8.10404 4.45703 8.32679 4.53945 8.51979 4.70428C8.71279 4.86895 8.83554 5.07245 8.88804 5.31478L9.46129 8.25703C9.50096 8.53003 9.49262 8.76462 9.43629 8.96078C9.37979 9.15695 9.27846 9.3217 9.13229 9.45503L6.82279 11.7033C7.19446 12.3839 7.61912 13.0279 8.09679 13.635C8.57429 14.242 9.09129 14.8218 9.64779 15.3743C10.1965 15.9231 10.7798 16.4328 11.3978 16.9033C12.0158 17.3738 12.6831 17.8116 13.3998 18.2168L15.6438 15.9533C15.8003 15.7904 15.9898 15.6763 16.2123 15.6108C16.4346 15.5454 16.6657 15.5294 16.9055 15.5628L19.6823 16.1283C19.9348 16.1949 20.1409 16.3238 20.3005 16.5148C20.4602 16.7058 20.54 16.9224 20.54 17.1648V20.407C20.54 20.707 20.4391 20.957 20.2373 21.157C20.0355 21.357 19.7831 21.457 19.4803 21.457ZM6.11304 10.284L7.89779 8.57628C7.92979 8.55062 7.95062 8.51536 7.96029 8.47053C7.96996 8.4257 7.96837 8.38403 7.95554 8.34553L7.52079 6.11078C7.50796 6.05962 7.48554 6.0212 7.45354 5.99553C7.42154 5.96986 7.37987 5.95703 7.32854 5.95703H5.19004C5.15154 5.95703 5.11946 5.96986 5.09379 5.99553C5.06829 6.0212 5.05554 6.05328 5.05554 6.09178C5.10671 6.77512 5.21854 7.46928 5.39104 8.17428C5.56337 8.87945 5.80404 9.5827 6.11304 10.284ZM14.813 18.9263C15.4759 19.2353 16.1672 19.4715 16.887 19.635C17.607 19.7984 18.2798 19.8954 18.9053 19.9263C18.9438 19.9263 18.9759 19.9134 19.0015 19.8878C19.0272 19.8621 19.04 19.83 19.04 19.7915V17.6878C19.04 17.6364 19.0272 17.5948 19.0015 17.5628C18.9759 17.5308 18.9375 17.5084 18.8863 17.4955L16.7863 17.0685C16.7478 17.0557 16.7141 17.0541 16.6853 17.0638C16.6565 17.0734 16.626 17.0943 16.5938 17.1263L14.813 18.9263Z" fill="white"/>
</g>
</svg>
