<svg width="31" height="31" viewBox="0 0 31 31" fill="none" xmlns="http://www.w3.org/2000/svg">
<path d="M29.0371 15.6006C29.0371 7.86701 22.7707 1.60059 15.0371 1.60059C7.30355 1.60059 1.03711 7.86701 1.03711 15.6006C1.03711 22.5881 6.15967 28.3821 12.8488 29.4265V19.629H9.29288V15.5757H12.8488V12.4922C12.8488 8.98602 14.9377 7.04641 18.1455 7.04641C19.6872 7.04641 21.2787 7.31995 21.2787 7.31995V10.7764H19.5131C17.7725 10.7764 17.2254 11.8457 17.2254 12.9647V15.6006H21.1046L20.4829 19.6539H17.2254V29.4514C23.9146 28.407 29.0371 22.613 29.0371 15.6255V15.6006Z" fill="#F0EFE6"/>
</svg>
