<svg width="15" height="16" viewBox="0 0 15 16" fill="none" xmlns="http://www.w3.org/2000/svg">
<g clip-path="url(#clip0_4100_5137)">
<path d="M3.41113 2C3.54863 2 3.66113 2.1125 3.66113 2.25V3.75C3.66113 3.8875 3.54863 4 3.41113 4H1.91113C1.77363 4 1.66113 3.8875 1.66113 3.75V2.25C1.66113 2.1125 1.77363 2 1.91113 2H3.41113ZM1.91113 1C1.22051 1 0.661133 1.55937 0.661133 2.25V3.75C0.661133 4.44062 1.22051 5 1.91113 5H3.41113C4.10176 5 4.66113 4.44062 4.66113 3.75V2.25C4.66113 1.55937 4.10176 1 3.41113 1H1.91113ZM3.41113 7C3.54863 7 3.66113 7.1125 3.66113 7.25V8.75C3.66113 8.8875 3.54863 9 3.41113 9H1.91113C1.77363 9 1.66113 8.8875 1.66113 8.75V7.25C1.66113 7.1125 1.77363 7 1.91113 7H3.41113ZM1.91113 6C1.22051 6 0.661133 6.55937 0.661133 7.25V8.75C0.661133 9.44063 1.22051 10 1.91113 10H3.41113C4.10176 10 4.66113 9.44063 4.66113 8.75V7.25C4.66113 6.55937 4.10176 6 3.41113 6H1.91113ZM1.91113 12H3.41113C3.54863 12 3.66113 12.1125 3.66113 12.25V13.75C3.66113 13.8875 3.54863 14 3.41113 14H1.91113C1.77363 14 1.66113 13.8875 1.66113 13.75V12.25C1.66113 12.1125 1.77363 12 1.91113 12ZM0.661133 12.25V13.75C0.661133 14.4406 1.22051 15 1.91113 15H3.41113C4.10176 15 4.66113 14.4406 4.66113 13.75V12.25C4.66113 11.5594 4.10176 11 3.41113 11H1.91113C1.22051 11 0.661133 11.5594 0.661133 12.25ZM8.41113 2C8.54863 2 8.66113 2.1125 8.66113 2.25V3.75C8.66113 3.8875 8.54863 4 8.41113 4H6.91113C6.77363 4 6.66113 3.8875 6.66113 3.75V2.25C6.66113 2.1125 6.77363 2 6.91113 2H8.41113ZM6.91113 1C6.22051 1 5.66113 1.55937 5.66113 2.25V3.75C5.66113 4.44062 6.22051 5 6.91113 5H8.41113C9.10176 5 9.66113 4.44062 9.66113 3.75V2.25C9.66113 1.55937 9.10176 1 8.41113 1H6.91113ZM6.91113 7H8.41113C8.54863 7 8.66113 7.1125 8.66113 7.25V8.75C8.66113 8.8875 8.54863 9 8.41113 9H6.91113C6.77363 9 6.66113 8.8875 6.66113 8.75V7.25C6.66113 7.1125 6.77363 7 6.91113 7ZM5.66113 7.25V8.75C5.66113 9.44063 6.22051 10 6.91113 10H8.41113C9.10176 10 9.66113 9.44063 9.66113 8.75V7.25C9.66113 6.55937 9.10176 6 8.41113 6H6.91113C6.22051 6 5.66113 6.55937 5.66113 7.25ZM8.41113 12C8.54863 12 8.66113 12.1125 8.66113 12.25V13.75C8.66113 13.8875 8.54863 14 8.41113 14H6.91113C6.77363 14 6.66113 13.8875 6.66113 13.75V12.25C6.66113 12.1125 6.77363 12 6.91113 12H8.41113ZM6.91113 11C6.22051 11 5.66113 11.5594 5.66113 12.25V13.75C5.66113 14.4406 6.22051 15 6.91113 15H8.41113C9.10176 15 9.66113 14.4406 9.66113 13.75V12.25C9.66113 11.5594 9.10176 11 8.41113 11H6.91113ZM11.9111 2H13.4111C13.5486 2 13.6611 2.1125 13.6611 2.25V3.75C13.6611 3.8875 13.5486 4 13.4111 4H11.9111C11.7736 4 11.6611 3.8875 11.6611 3.75V2.25C11.6611 2.1125 11.7736 2 11.9111 2ZM10.6611 2.25V3.75C10.6611 4.44062 11.2205 5 11.9111 5H13.4111C14.1018 5 14.6611 4.44062 14.6611 3.75V2.25C14.6611 1.55937 14.1018 1 13.4111 1H11.9111C11.2205 1 10.6611 1.55937 10.6611 2.25ZM13.4111 7C13.5486 7 13.6611 7.1125 13.6611 7.25V8.75C13.6611 8.8875 13.5486 9 13.4111 9H11.9111C11.7736 9 11.6611 8.8875 11.6611 8.75V7.25C11.6611 7.1125 11.7736 7 11.9111 7H13.4111ZM11.9111 6C11.2205 6 10.6611 6.55937 10.6611 7.25V8.75C10.6611 9.44063 11.2205 10 11.9111 10H13.4111C14.1018 10 14.6611 9.44063 14.6611 8.75V7.25C14.6611 6.55937 14.1018 6 13.4111 6H11.9111ZM11.9111 12H13.4111C13.5486 12 13.6611 12.1125 13.6611 12.25V13.75C13.6611 13.8875 13.5486 14 13.4111 14H11.9111C11.7736 14 11.6611 13.8875 11.6611 13.75V12.25C11.6611 12.1125 11.7736 12 11.9111 12ZM10.6611 12.25V13.75C10.6611 14.4406 11.2205 15 11.9111 15H13.4111C14.1018 15 14.6611 14.4406 14.6611 13.75V12.25C14.6611 11.5594 14.1018 11 13.4111 11H11.9111C11.2205 11 10.6611 11.5594 10.6611 12.25Z" fill="black"/>
</g>
<defs>
<clipPath id="clip0_4100_5137">
<rect width="14" height="16" fill="white" transform="translate(0.661133)"/>
</clipPath>
</defs>
</svg>
