<svg width="25" height="25" viewBox="0 0 25 25" fill="none" xmlns="http://www.w3.org/2000/svg">
<mask id="mask0_4058_18845" style="mask-type:alpha" maskUnits="userSpaceOnUse" x="0" y="0" width="25" height="25">
<rect x="0.0400391" y="0.957031" width="24" height="24" fill="#69A82E"/>
</mask>
<g mask="url(#mask0_4058_18845)">
<path d="M4.34779 20.457C3.84262 20.457 3.41504 20.282 3.06504 19.932C2.71504 19.582 2.54004 19.1544 2.54004 18.6493V7.26478C2.54004 6.75961 2.71504 6.33203 3.06504 5.98203C3.41504 5.63203 3.84262 5.45703 4.34779 5.45703H19.7323C20.2375 5.45703 20.665 5.63203 21.015 5.98203C21.365 6.33203 21.54 6.75961 21.54 7.26478V18.6493C21.54 19.1544 21.365 19.582 21.015 19.932C20.665 20.282 20.2375 20.457 19.7323 20.457H4.34779ZM12.04 13.5148L4.04004 8.39928V18.6493C4.04004 18.7391 4.06887 18.8129 4.12654 18.8705C4.18421 18.9282 4.25796 18.957 4.34779 18.957H19.7323C19.8221 18.957 19.8959 18.9282 19.9535 18.8705C20.0112 18.8129 20.04 18.7391 20.04 18.6493V8.39928L12.04 13.5148ZM12.04 11.957L19.8863 6.95703H4.19379L12.04 11.957ZM4.04004 8.39928V6.95703V18.6493C4.04004 18.7391 4.06887 18.8129 4.12654 18.8705C4.18421 18.9282 4.25796 18.957 4.34779 18.957H4.04004V8.39928Z" fill="white"/>
</g>
</svg>
