<svg width="19" height="16" viewBox="0 0 19 16" fill="none" xmlns="http://www.w3.org/2000/svg">
<g clip-path="url(#clip0_4100_5133)">
<path d="M5.47676 1.03438C5.57988 0.993756 5.69238 0.987506 5.79863 1.01876L12.633 2.97188L17.133 1.17188C17.6268 0.975006 18.1611 1.33751 18.1611 1.86876V12.3313C18.1611 12.6375 17.9736 12.9125 17.6893 13.0281L12.8455 14.9656C12.7424 15.0063 12.6299 15.0125 12.5236 14.9813L5.68926 13.0281L1.18926 14.8281C0.695508 15.025 0.161133 14.6625 0.161133 14.1313V3.66876C0.161133 3.36251 0.348633 3.08751 0.633008 2.97188L5.47676 1.03438ZM1.16113 3.83751V13.7594L5.16113 12.1594V2.23751L1.16113 3.83751ZM12.1611 13.8375V3.87813L6.16113 2.16251V12.1219L12.1611 13.8375ZM13.1611 13.7625L17.1611 12.1625V2.24063L13.1611 3.83751V13.7594V13.7625Z" fill="black"/>
</g>
<defs>
<clipPath id="clip0_4100_5133">
<rect width="18" height="16" fill="white" transform="translate(0.161133)"/>
</clipPath>
</defs>
</svg>
