<svg width="41" height="33" viewBox="0 0 41 33" fill="none" xmlns="http://www.w3.org/2000/svg">
<g clip-path="url(#clip0_4058_18895)">
<path d="M8.16211 4.02148C8.35909 4.02148 8.55415 4.06028 8.73613 4.13566C8.91812 4.21105 9.08348 4.32154 9.22277 4.46082C9.36206 4.60011 9.47255 4.76547 9.54793 4.94746C9.62331 5.12945 9.66211 5.3245 9.66211 5.52148C9.66211 5.71847 9.62331 5.91352 9.54793 6.09551C9.47255 6.2775 9.36206 6.44286 9.22277 6.58214C9.08348 6.72143 8.91812 6.83192 8.73613 6.9073C8.55415 6.98269 8.35909 7.02148 8.16211 7.02148C7.96513 7.02148 7.77007 6.98269 7.58808 6.9073C7.4061 6.83192 7.24074 6.72143 7.10145 6.58214C6.96216 6.44286 6.85167 6.2775 6.77629 6.09551C6.70091 5.91352 6.66211 5.71847 6.66211 5.52148C6.66211 5.3245 6.70091 5.12945 6.77629 4.94746C6.85167 4.76547 6.96216 4.60011 7.10145 4.46082C7.24074 4.32154 7.4061 4.21105 7.58808 4.13566C7.77007 4.06028 7.96513 4.02148 8.16211 4.02148ZM8.16211 9.02148C8.62174 9.02148 9.07686 8.93095 9.5015 8.75506C9.92614 8.57917 10.312 8.32136 10.637 7.99636C10.962 7.67135 11.2198 7.28552 11.3957 6.86088C11.5716 6.43624 11.6621 5.98111 11.6621 5.52148C11.6621 5.06186 11.5716 4.60673 11.3957 4.18209C11.2198 3.75745 10.962 3.37162 10.637 3.04661C10.312 2.72161 9.92614 2.4638 9.5015 2.28791C9.07686 2.11201 8.62174 2.02148 8.16211 2.02148C7.70248 2.02148 7.24736 2.11201 6.82272 2.28791C6.39808 2.4638 6.01224 2.72161 5.68724 3.04661C5.36223 3.37162 5.10442 3.75745 4.92853 4.18209C4.75264 4.60673 4.66211 5.06186 4.66211 5.52148C4.66211 5.98111 4.75264 6.43624 4.92853 6.86088C5.10442 7.28552 5.36223 7.67135 5.68724 7.99636C6.01224 8.32136 6.39808 8.57917 6.82272 8.75506C7.24736 8.93095 7.70248 9.02148 8.16211 9.02148ZM0.162109 17.5215C0.162109 20.2277 1.81211 22.5465 4.16211 23.5215V26.5215C4.16211 27.3527 4.83086 28.0215 5.66211 28.0215H10.6621C11.4934 28.0215 12.1621 27.3527 12.1621 26.5215V24.0215C12.1621 23.4715 11.7121 23.0215 11.1621 23.0215C10.6121 23.0215 10.1621 23.4715 10.1621 24.0215V26.0215H6.16211V13.0465C6.32461 13.0277 6.49336 13.0215 6.66211 13.0215H9.66211C10.2434 13.0215 10.7934 13.1277 11.2996 13.3277C11.8121 13.5277 12.3934 13.2715 12.5934 12.759C12.7934 12.2465 12.5371 11.6652 12.0246 11.4652C11.2934 11.1777 10.4934 11.0215 9.66211 11.0215H6.66211C3.07461 11.0215 0.162109 13.934 0.162109 17.5215ZM4.16211 21.2652C2.95586 20.459 2.16211 19.0777 2.16211 17.5215C2.16211 15.959 2.95586 14.584 4.16211 13.7777V21.2652ZM32.1621 4.02148C32.3591 4.02148 32.5541 4.06028 32.7361 4.13566C32.9181 4.21105 33.0835 4.32154 33.2228 4.46082C33.3621 4.60011 33.4725 4.76547 33.5479 4.94746C33.6233 5.12945 33.6621 5.3245 33.6621 5.52148C33.6621 5.71847 33.6233 5.91352 33.5479 6.09551C33.4725 6.2775 33.3621 6.44286 33.2228 6.58214C33.0835 6.72143 32.9181 6.83192 32.7361 6.9073C32.5541 6.98269 32.3591 7.02148 32.1621 7.02148C31.9651 7.02148 31.7701 6.98269 31.5881 6.9073C31.4061 6.83192 31.2407 6.72143 31.1014 6.58214C30.9622 6.44286 30.8517 6.2775 30.7763 6.09551C30.7009 5.91352 30.6621 5.71847 30.6621 5.52148C30.6621 5.3245 30.7009 5.12945 30.7763 4.94746C30.8517 4.76547 30.9622 4.60011 31.1014 4.46082C31.2407 4.32154 31.4061 4.21105 31.5881 4.13566C31.7701 4.06028 31.9651 4.02148 32.1621 4.02148ZM32.1621 9.02148C32.6217 9.02148 33.0769 8.93095 33.5015 8.75506C33.9261 8.57917 34.312 8.32136 34.637 7.99636C34.962 7.67135 35.2198 7.28552 35.3957 6.86088C35.5716 6.43624 35.6621 5.98111 35.6621 5.52148C35.6621 5.06186 35.5716 4.60673 35.3957 4.18209C35.2198 3.75745 34.962 3.37162 34.637 3.04661C34.312 2.72161 33.9261 2.4638 33.5015 2.28791C33.0769 2.11201 32.6217 2.02148 32.1621 2.02148C31.7025 2.02148 31.2474 2.11201 30.8227 2.28791C30.3981 2.4638 30.0122 2.72161 29.6872 3.04661C29.3622 3.37162 29.1044 3.75745 28.9285 4.18209C28.7526 4.60673 28.6621 5.06186 28.6621 5.52148C28.6621 5.98111 28.7526 6.43624 28.9285 6.86088C29.1044 7.28552 29.3622 7.67135 29.6872 7.99636C30.0122 8.32136 30.3981 8.57917 30.8227 8.75506C31.2474 8.93095 31.7025 9.02148 32.1621 9.02148ZM40.1621 17.5215C40.1621 13.934 37.2496 11.0215 33.6621 11.0215H30.6621C29.8309 11.0215 29.0309 11.1777 28.2996 11.4652C27.7871 11.6652 27.5309 12.2465 27.7309 12.759C27.9309 13.2715 28.5121 13.5277 29.0246 13.3277C29.5309 13.1277 30.0809 13.0215 30.6621 13.0215H33.6621C33.8309 13.0215 33.9996 13.0277 34.1621 13.0465V26.0215H30.1621V24.0215C30.1621 23.4715 29.7121 23.0215 29.1621 23.0215C28.6121 23.0215 28.1621 23.4715 28.1621 24.0215V26.5215C28.1621 27.3527 28.8309 28.0215 29.6621 28.0215H34.6621C35.4934 28.0215 36.1621 27.3527 36.1621 26.5215V23.5215C38.5121 22.5402 40.1621 20.2277 40.1621 17.5215ZM36.1621 21.2652V13.7777C37.3684 14.584 38.1621 15.959 38.1621 17.5215C38.1621 19.0777 37.3684 20.459 36.1621 21.2652ZM18.1621 6.02148C18.1621 5.49105 18.3728 4.98234 18.7479 4.60727C19.123 4.2322 19.6317 4.02148 20.1621 4.02148C20.6925 4.02148 21.2013 4.2322 21.5763 4.60727C21.9514 4.98234 22.1621 5.49105 22.1621 6.02148C22.1621 6.55192 21.9514 7.06063 21.5763 7.4357C21.2013 7.81077 20.6925 8.02148 20.1621 8.02148C19.6317 8.02148 19.123 7.81077 18.7479 7.4357C18.3728 7.06063 18.1621 6.55192 18.1621 6.02148ZM24.1621 6.02148C24.1621 4.96062 23.7407 3.9432 22.9905 3.19306C22.2404 2.44291 21.223 2.02148 20.1621 2.02148C19.1012 2.02148 18.0838 2.44291 17.3337 3.19306C16.5835 3.9432 16.1621 4.96062 16.1621 6.02148C16.1621 7.08235 16.5835 8.09977 17.3337 8.84991C18.0838 9.60006 19.1012 10.0215 20.1621 10.0215C21.223 10.0215 22.2404 9.60006 22.9905 8.84991C23.7407 8.09977 24.1621 7.08235 24.1621 6.02148ZM19.1621 12.0215C15.5746 12.0215 12.6621 14.934 12.6621 18.5215C12.6621 21.0277 14.0809 23.2027 16.1621 24.2902V28.5215C16.1621 29.3527 16.8309 30.0215 17.6621 30.0215H22.6621C23.4934 30.0215 24.1621 29.3527 24.1621 28.5215V24.2902C26.2434 23.209 27.6621 21.034 27.6621 18.5215C27.6621 14.934 24.7496 12.0215 21.1621 12.0215H19.1621ZM16.1621 15.1652V21.8715C15.2434 21.0465 14.6621 19.8465 14.6621 18.5152C14.6621 17.184 15.2434 15.984 16.1621 15.159V15.1652ZM18.1621 28.0215V14.134C18.4809 14.059 18.8184 14.0215 19.1621 14.0215H21.1621C21.5059 14.0215 21.8434 14.059 22.1621 14.134V28.0215H18.1621ZM24.1621 21.8777V15.1715C25.0809 15.9965 25.6621 17.1902 25.6621 18.5277C25.6621 19.859 25.0809 21.059 24.1621 21.884V21.8777Z" fill="white"/>
</g>
<defs>
<clipPath id="clip0_4058_18895">
<rect width="40" height="32" fill="white" transform="translate(0.162109 0.0214844)"/>
</clipPath>
</defs>
</svg>
