<svg width="25" height="25" viewBox="0 0 25 25" fill="none" xmlns="http://www.w3.org/2000/svg">
<mask id="mask0_4058_18823" style="mask-type:alpha" maskUnits="userSpaceOnUse" x="0" y="0" width="25" height="25">
<rect x="0.0371094" y="0.957031" width="24" height="24" fill="#D9D9D9"/>
</mask>
<g mask="url(#mask0_4058_18823)">
<path d="M12.039 12.8223C12.5365 12.8223 12.9618 12.6451 13.315 12.2908C13.6683 11.9364 13.845 11.5105 13.845 11.013C13.845 10.5155 13.6678 10.0901 13.3135 9.73678C12.9592 9.38362 12.5332 9.20703 12.0355 9.20703C11.538 9.20703 11.1127 9.3842 10.7595 9.73853C10.4062 10.0929 10.2295 10.5189 10.2295 11.0165C10.2295 11.514 10.4067 11.9394 10.761 12.2925C11.1153 12.6457 11.5413 12.8223 12.039 12.8223ZM12.0373 20.4705C13.9936 18.7192 15.4907 17.0394 16.5285 15.431C17.5663 13.8227 18.0853 12.414 18.0853 11.205C18.0853 9.38203 17.5061 7.88337 16.3478 6.70903C15.1894 5.5347 13.7526 4.94753 12.0373 4.94753C10.3219 4.94753 8.88509 5.5347 7.72676 6.70903C6.56842 7.88337 5.98926 9.38203 5.98926 11.205C5.98926 12.414 6.50817 13.8227 7.54601 15.431C8.58384 17.0394 10.0809 18.7192 12.0373 20.4705ZM12.0373 22.4665C9.52059 20.2859 7.63342 18.2564 6.37576 16.3783C5.11809 14.4999 4.48926 12.7755 4.48926 11.205C4.48926 8.89736 5.23567 7.02911 6.72851 5.60028C8.22151 4.17145 9.99109 3.45703 12.0373 3.45703C14.0834 3.45703 15.853 4.17145 17.346 5.60028C18.8388 7.02911 19.5853 8.89736 19.5853 11.205C19.5853 12.7755 18.9564 14.4999 17.6988 16.3783C16.4411 18.2564 14.5539 20.2859 12.0373 22.4665Z" fill="white"/>
</g>
</svg>
