<svg width="23" height="21" viewBox="0 0 23 21" fill="none" xmlns="http://www.w3.org/2000/svg">
<path d="M12.7921 20.28V9.1C12.7921 7.41 13.0521 6.00167 13.5721 4.875C14.0921 3.705 14.7854 2.77333 15.6521 2.08C16.5187 1.34333 17.4937 0.823333 18.5771 0.520001C19.7037 0.173334 20.8737 0 22.0871 0V4.94C20.7437 5.15667 19.7687 5.56834 19.1621 6.175C18.5554 6.73833 18.2521 7.69167 18.2521 9.035C18.2521 9.25167 18.2521 9.46833 18.2521 9.685C18.2521 9.85833 18.2737 10.0533 18.3171 10.27H22.4121V20.28H12.7921ZM0.24707 20.28V9.1C0.24707 7.41 0.50707 6.00167 1.02707 4.875C1.54707 3.705 2.2404 2.77333 3.10707 2.08C3.97374 1.34333 4.94874 0.823333 6.03207 0.520001C7.15874 0.173334 8.32874 0 9.54207 0V4.94C8.19874 5.15667 7.22374 5.56834 6.61707 6.175C6.0104 6.73833 5.70707 7.69167 5.70707 9.035C5.70707 9.25167 5.70707 9.46833 5.70707 9.685C5.70707 9.85833 5.72874 10.0533 5.77207 10.27H9.86707V20.28H0.24707Z" fill="#69A82E"/>
</svg>
