<svg width="33" height="33" viewBox="0 0 33 33" fill="none" xmlns="http://www.w3.org/2000/svg">
<g clip-path="url(#clip0_4058_18887)">
<path d="M5.62805 0.0214844C6.17805 0.0214844 6.62805 0.471484 6.62805 1.02148V4.02148H31.6281C32.1781 4.02148 32.6281 4.47148 32.6281 5.02148C32.6281 5.57148 32.1781 6.02148 31.6281 6.02148H6.62805V31.0215C6.62805 31.5715 6.17805 32.0215 5.62805 32.0215C5.07805 32.0215 4.62805 31.5715 4.62805 31.0215V6.02148H1.62805C1.07805 6.02148 0.628052 5.57148 0.628052 5.02148C0.628052 4.47148 1.07805 4.02148 1.62805 4.02148H4.62805V1.02148C4.62805 0.471484 5.07805 0.0214844 5.62805 0.0214844ZM10.6281 10.0215V22.0215H28.6281V10.0215H10.6281ZM8.62805 10.0215C8.62805 8.91523 9.5218 8.02148 10.6281 8.02148H28.6281C29.7343 8.02148 30.6281 8.91523 30.6281 10.0215V22.0215C30.6281 23.1277 29.7343 24.0215 28.6281 24.0215H10.6281C9.5218 24.0215 8.62805 23.1277 8.62805 22.0215V10.0215Z" fill="white"/>
</g>
<defs>
<clipPath id="clip0_4058_18887">
<rect width="32" height="32" fill="white" transform="translate(0.628052 0.0214844)"/>
</clipPath>
</defs>
</svg>
