<svg width="1401" height="621" viewBox="0 0 1401 621" fill="none" xmlns="http://www.w3.org/2000/svg">
<path d="M-8.98145 490.103C3.7031 466.789 29.0366 441.241 79.1222 441.241C171.189 441.241 155.929 559.925 267.468 603.374C281.41 608.8 293.656 614.523 304.394 620.379M-8.98145 460.121C8.72233 439.46 38.6123 419.516 88.069 419.516C190.661 419.516 202.242 550.389 326.928 607.605C336.93 612.193 346.518 616.483 355.678 620.486M-8.98145 431.502C12.5669 415.668 49.1373 397.266 102.794 397.266C221.63 397.266 259.316 554.918 407.235 620.498M-8.98145 381.373C10.5378 366.698 54.8566 342.691 135.936 342.691C252.731 342.691 263.778 412.095 320.603 441.241C377.428 470.386 415.826 513.823 440.032 568.398C449.11 588.867 465.734 606.195 482.963 619.877M-10.7266 340.983C17.2411 325.532 67.9674 304.536 139.625 302.421C283.783 298.179 326.927 399.907 399.522 432.231C472.117 464.555 515.273 498.289 531.576 559.388C538.47 585.211 550.906 605.573 562.973 620.486M-8.98145 311.837C19.2592 292.837 77.1999 261.099 149.095 261.099C344.809 261.099 394.527 396.131 501.592 434.884C574.733 461.352 630.217 573.273 647.458 619.65M-8.98145 277.088C16.4588 255.686 73.4265 217.65 164.876 217.65C291.674 217.65 416.882 362.827 511.583 400.444C606.284 438.062 698.885 488.394 750.964 606.015C753.195 611.058 755.342 615.886 757.383 620.486M-8.98145 157.961C22.9613 142.45 72.9757 126.246 142.521 126.246C384.797 126.246 515.796 320.967 628.651 339.238C739.157 357.139 836.801 362.468 906.75 620.486M-8.98145 81.2439C64.2306 69.8438 229.842 60.1168 407.674 157.638C407.674 157.638 609.702 279.239 743.073 309.196C859.477 335.354 917.477 287.197 937.21 468.785C946.121 550.855 951.01 595.834 953.691 620.486M-8.94609 18.3645C90.7148 14.6003 270.399 24.1242 425.046 119.507C653.118 260.179 810.162 271.304 879.613 265.747C949.063 260.191 1009.83 262.64 1000.36 362.349C992.338 446.738 989.977 556.496 999.493 620.51M232.974 0.547485C317.114 24.6978 442.939 68.7086 558.417 140.156C754.927 261.756 942.739 214.866 1005.88 214.065C1069.01 213.264 1115.58 234.726 1091.11 324.54C1068.04 409.204 1035.86 501.647 1062.01 620.486M442.571 2.67451C471.192 22.2481 524.54 52.3136 591.558 60.6903C693.367 73.4048 721.774 94.0659 828.305 121.885C934.836 149.704 1093.47 110.76 1133.72 191.026C1167.36 258.123 1087.95 381.767 1078.47 468.797C1073.19 517.277 1085.28 582.654 1093.81 620.498M814.066 2.6745C879.791 27.8286 1012.57 69.33 1136.09 51.1545C1268 31.7481 1370.95 17.4204 1412.3 11.7324M1156.43 620.498C1142.8 588.688 1123.75 523.467 1141.98 432.637C1168.44 300.712 1195.28 238.717 1195.28 177.523C1195.28 116.328 1226.84 75.7948 1333.38 61.491C1371.98 56.3048 1396.61 53.0067 1412.3 50.8916M1412.3 86.2986C1379.46 99.1445 1282.85 140.706 1252.89 195.794C1216.59 262.557 1248.15 256.2 1189.75 407.997C1155.79 496.269 1187.21 572.317 1219.46 620.498M1412.97 144.063C1393.21 152.93 1348.38 179.901 1305.76 253.81C1248.94 352.359 1197.64 517.133 1247.36 575.018C1297.08 632.902 1308.12 618.598 1346.01 554.225C1366.73 519.021 1392.86 468.964 1412.3 430.833M1412.3 165.298C1388.23 192.376 1301.09 293.698 1282.09 362.325C1259.99 442.161 1237.76 539.169 1270.12 568.577C1295.66 591.795 1381.25 440.213 1413.46 376.378M1412.3 204.983C1391.87 227.998 1326.81 305.564 1308.92 378.78C1287.61 466.001 1256.7 544.319 1287.48 529.25C1313.46 516.524 1391.02 367.535 1412.29 326.297" stroke="#1B5633" stroke-opacity="0.5" stroke-miterlimit="10"/>
</svg>
