<svg width="29" height="33" viewBox="0 0 29 33" fill="none" xmlns="http://www.w3.org/2000/svg">
<g clip-path="url(#clip0_4058_18891)">
<path d="M15.6008 0.315039C15.2133 -0.0724609 14.5758 -0.0724609 14.1883 0.315039L5.39453 9.10879C5.07578 9.42754 4.89453 9.86504 4.89453 10.315C4.89453 11.2588 5.65703 12.0213 6.60078 12.0213H7.71953L3.31328 17.165C3.04453 17.4775 2.89453 17.8775 2.89453 18.29C2.89453 19.2463 3.66953 20.0213 4.62578 20.0213H5.71953L1.31328 25.165C1.04453 25.4775 0.894531 25.8775 0.894531 26.29C0.894531 27.2463 1.66953 28.0213 2.62578 28.0213H10.8945H13.8945V31.0213C13.8945 31.5713 14.3445 32.0213 14.8945 32.0213C15.4445 32.0213 15.8945 31.5713 15.8945 31.0213V28.0213H18.8945H27.1633C28.1195 28.0213 28.8945 27.2463 28.8945 26.29C28.8945 25.8775 28.7445 25.4775 28.4758 25.165L24.0695 20.0213H25.1633C26.1195 20.0213 26.8945 19.2463 26.8945 18.29C26.8945 17.8775 26.7445 17.4775 26.4758 17.165L22.0695 12.0213H23.1883C24.132 12.0213 24.8945 11.2588 24.8945 10.315C24.8945 9.86504 24.7133 9.42754 24.3945 9.10879L15.6008 0.315039ZM15.8945 26.0213V13.0213C15.8945 12.4713 15.4445 12.0213 14.8945 12.0213C14.3445 12.0213 13.8945 12.4713 13.8945 13.0213V26.0213H10.8945H3.21328L8.65703 19.6713C8.91328 19.3775 8.96953 18.9588 8.80703 18.6025C8.64453 18.2463 8.28828 18.0213 7.90078 18.0213H5.21953L10.6633 11.6713C10.9195 11.3775 10.9758 10.9588 10.8133 10.6025C10.6508 10.2463 10.2945 10.0213 9.90703 10.0213H7.31953L14.8945 2.43379L22.482 10.0213H19.8945C19.507 10.0213 19.1508 10.2463 18.9883 10.6025C18.8258 10.9588 18.882 11.3775 19.1383 11.6713L24.5758 18.0213H21.8945C21.507 18.0213 21.1508 18.2463 20.9883 18.6025C20.8258 18.9588 20.882 19.3775 21.1383 19.6713L26.5758 26.0213H18.8945H15.8945Z" fill="white"/>
</g>
<defs>
<clipPath id="clip0_4058_18891">
<rect width="28" height="32" fill="white" transform="translate(0.894531 0.0214844)"/>
</clipPath>
</defs>
</svg>
