<svg width="221" height="100" viewBox="0 0 221 100" fill="none" xmlns="http://www.w3.org/2000/svg">
<path d="M8.76528 47.349C6.95333 43.4477 6.1749 43.038 2.24316 43.038V41.6519H17.2577V43.038C14.6189 43.1426 13.8933 43.4477 13.8933 44.7293C13.8933 45.7057 14.8784 48.0115 15.5996 49.5023L24.6066 68.4374L30.0424 57.3047L25.2795 47.349C23.3136 43.1906 22.8474 42.9857 19.4302 43.038V41.6519H43.7111V43.038C40.14 43.0903 39.6211 43.5 37.708 47.349L34.3436 54.0181L41.3319 68.2848L50.286 47.0918C50.9061 45.6533 51.0645 44.9864 51.0645 44.5767C51.0645 43.4477 50.0793 43.038 47.2866 43.038V41.6519H58.4706V43.038C55.5723 43.0903 54.6927 43.2429 52.463 48.5302L41.5386 74.3917H38.2269L31.4453 60.2296L24.611 74.3917H21.4005L8.76968 47.349H8.76528ZM35.5838 45.7056C35.9972 44.8862 36.1511 44.3195 36.1511 43.9621C36.1511 43.2952 35.6322 43.038 33.9258 43.038H32.0083C30.1963 43.038 29.7302 43.2429 29.7302 43.9098C29.7302 44.4241 29.9369 45.0387 30.5086 46.22L32.9406 51.1456L35.5794 45.7056H35.5838Z" fill="white"/>
<path d="M70.7716 68.8039C68.1813 72.6528 64.7641 74.4487 60.2606 74.4487C53.0128 74.4487 50.6292 68.9085 50.6292 64.1355C50.6292 57.4664 55.1326 52.6934 61.3469 52.6934C64.144 52.6934 66.3693 53.6175 67.7678 55.0036C70.1471 57.3618 69.2192 59.7766 71.0311 60.5438V61.9822H55.5504C55.5504 67.6793 58.7081 71.4759 63.2644 71.4759C65.4897 71.4759 67.6139 70.2947 69.7865 67.8842L70.7716 68.8083V68.8039ZM65.0763 60.5438C64.6629 56.2851 63.1104 54.0795 60.4673 54.0795C57.8241 54.0795 56.065 56.2328 55.5504 60.5438H65.0763Z" fill="white"/>
<path d="M72.79 67.9844H73.9819C74.602 71.0618 76.6734 73.0626 79.211 73.0626C81.0229 73.0626 82.3159 71.9336 82.3159 70.2424C82.3159 66.2409 72.8956 63.9306 72.8956 58.543C72.8956 55.1561 76.0005 52.6934 80.1961 52.6934C81.5947 52.6934 83.0944 52.8982 85.0119 53.4126V59.0574H83.8728C83.1999 55.98 81.7002 54.2844 79.576 54.2844C78.0763 54.2844 76.8845 55.3087 76.8845 56.6948C76.8845 60.6963 86.4632 62.1348 86.4632 68.4465C86.4632 71.8334 83.3055 74.4487 79.2682 74.4487C78.283 74.4487 77.5618 74.3441 76.9373 74.2439C76.3699 74.1392 75.9521 74.039 75.5387 74.039C75.1253 74.039 74.6592 74.2439 74.5536 74.501H73.4673L72.7944 67.9844H72.79Z" fill="white"/>
<path d="M102.978 70.1374C101.478 73.4197 99.0415 74.4484 96.5083 74.4484C93.0384 74.4484 90.5536 72.3953 90.5536 67.7269V55.9273H88.2227V54.9509C91.3804 53.3076 93.1923 51.0017 94.2302 47.5103H95.4748V53.2553H102.982L101.843 55.923H95.4748V67.108C95.4748 69.6754 96.2533 71.8287 98.527 71.8287C99.9783 71.8287 100.858 71.1094 101.839 69.2613L102.978 70.133V70.1374Z" fill="white"/>
<path d="M123.89 68.8034C121.3 72.6524 117.887 74.4482 113.379 74.4482C106.131 74.4482 103.752 68.908 103.752 64.135C103.752 57.4659 108.255 52.6929 114.47 52.6929C117.267 52.6929 119.492 53.617 120.891 55.0031C123.274 57.3613 122.342 59.7761 124.154 60.5433V61.9817H108.673C108.673 67.6788 111.831 71.4754 116.387 71.4754C118.613 71.4754 120.737 70.2942 122.909 67.8837L123.894 68.8078L123.89 68.8034ZM118.195 60.5433C117.781 56.2846 116.229 54.079 113.586 54.079C110.943 54.079 109.183 56.2323 108.669 60.5433H118.195Z" fill="white"/>
<path d="M125.188 55.9751V54.9508L132.281 52.6929H133.574V57.8233H133.68C135.699 54.0267 136.89 52.6929 138.289 52.6929C139.067 52.6929 140.048 53.3598 143.153 53.9744L141.447 58.1808C139.116 57.7187 137.616 56.7423 136.943 56.7423C135.751 56.7423 134.665 57.819 133.579 60.0246V68.5419C133.579 72.2383 134.511 72.648 138.755 72.5957V73.8772H125.192V72.5957C127.571 72.5957 128.662 71.7762 128.662 68.7468V57.2523L125.192 55.9708L125.188 55.9751Z" fill="white"/>
<path d="M146.763 57.5184C145.778 55.2605 145.105 54.6459 142.827 54.5413V53.2598H154.943V54.5413C152.406 54.6459 151.579 55.0033 151.579 55.9797C151.579 56.3895 151.786 56.9561 152.357 58.2376L157.019 69.0129L161.47 59.0092C161.936 57.9848 162.143 57.2133 162.143 56.651C162.143 55.3172 160.951 54.6503 158.519 54.5456V53.2641H168.199V54.5456C165.819 54.7505 165.094 55.4174 163.489 59.0092L156.601 74.4528H154.323L146.763 57.5184Z" fill="white"/>
<path d="M187.035 68.8039C184.444 72.6528 181.027 74.4487 176.524 74.4487C169.276 74.4487 166.892 68.9085 166.892 64.1355C166.892 57.4664 171.396 52.6934 177.61 52.6934C180.407 52.6934 182.632 53.6175 184.031 55.0036C186.41 57.3618 185.482 59.7766 187.294 60.5438V61.9822H171.814C171.814 67.6793 174.971 71.4759 179.528 71.4759C181.753 71.4759 183.877 70.2947 186.05 67.8842L187.035 68.8083V68.8039ZM181.34 60.5438C180.926 56.2851 179.374 54.0795 176.73 54.0795C174.087 54.0795 172.328 56.2328 171.814 60.5438H181.34Z" fill="white"/>
<path d="M187.487 41.6084L194.889 39.4551H196.072V68.8037C196.393 71.7285 197.167 72.6003 200.325 72.6003V73.8818H187.487V72.6003C190.751 72.6003 191.472 71.5759 191.472 68.4462V46.1242C191.472 43.766 191.265 43.1994 187.487 42.8899V41.6084Z" fill="white"/>
<path d="M215.177 70.1374C213.677 73.4197 211.241 74.4484 208.708 74.4484C205.238 74.4484 202.753 72.3953 202.753 67.7269V55.9273H200.422V54.9509C203.58 53.3076 205.392 51.0017 206.43 47.5103H207.674V53.2553H215.182L214.042 55.923H207.674V67.108C207.674 69.6754 208.453 71.8287 210.726 71.8287C212.178 71.8287 213.057 71.1094 214.038 69.2613L215.177 70.133V70.1374Z" fill="white"/>
<path d="M16.3076 79.3262V79.98H144.714H215.181V79.3262H16.3076Z" fill="#5B8338"/>
<path d="M149.011 45.9196C149.064 45.1917 149.09 44.455 149.09 43.714C149.09 26.614 135.017 12.7482 117.654 12.7482C116.985 12.7482 116.325 12.77 115.67 12.8136L115.701 12.4693L115.279 10.2026L113.907 8.62034L112.024 7.91856L108.625 6.85498L106.962 7.37805L106.197 8.18881L106.105 9.52264L106.487 10.2985L107.015 10.8434L106.672 11.0526L107.019 11.288C107.019 11.288 107.033 11.4624 107.358 11.7936L105.885 12.4039L104.864 13.0882L104.579 13.5154L103 13.6636L101.667 13.8249L101.082 14.0908V14.858L102.125 14.7446L103.127 15.4813L103.4 16.1133C93.2012 21.2307 86.2129 31.6703 86.2129 43.7227C86.2129 44.4637 86.2393 45.2004 86.2921 45.9283H149.002L149.011 45.9196Z" fill="url(#paint0_linear_4058_18783)"/>
<path d="M121.867 35.2183C121.919 34.8958 123.028 35.0004 122.715 34.547C122.597 34.3727 122.39 34.4817 122.258 34.377C122.157 34.2942 122.377 34.0109 121.994 33.9106C121.889 33.8845 121.651 33.9106 121.779 33.7101C121.893 33.5271 122.35 33.7101 122.83 33.344C123.041 33.1827 122.865 33.0563 122.97 32.8471C123.05 32.6858 123.292 32.7817 123.331 32.603C123.428 32.1496 122.852 32.2542 122.689 32.2063C122.535 32.1584 122.381 31.984 122.421 31.7661C122.5 31.3694 123.023 31.5132 123.221 31.2561C123.318 31.1297 123.239 30.9771 123.265 30.8289C123.441 30.7461 123.525 30.6066 123.525 30.4802C123.525 30.1445 123.124 30.2666 122.957 30.2404C122.852 30.223 122.808 30.1227 122.72 30.0791C122.377 29.9092 122.012 30.6938 121.783 30.2666C121.656 30.0268 121.422 30.1925 121.453 29.8568C121.519 29.1769 120.622 29.713 120.187 29.421C120.024 29.312 119.91 29.1986 120.015 28.9589C120.134 28.6887 120.389 28.7671 120.582 28.6756C120.816 28.5666 120.635 28.3748 120.741 28.2048C120.846 28.0348 121.541 28.1394 121.321 27.6338C121.027 26.9538 120.204 27.2894 119.874 27.5641C119.549 27.8387 119.646 27.2284 119.179 27.2241C118.639 27.2197 118.533 27.0105 118.313 26.6748C117.913 26.0559 117.148 26.2477 116.778 26.2302C116.338 26.2084 116.053 25.6025 116.734 25.4674C117.033 25.4064 116.73 25.0577 116.941 24.9836C117.614 24.7438 117.671 25.9207 118.467 25.7246C118.762 25.6505 118.766 26.1561 119.76 26.0166C120.468 25.9164 120.024 25.5851 120.459 25.559C120.582 25.5502 120.706 25.5197 120.662 25.3323C120.442 24.4256 118.586 25.2713 118.405 24.7133C118.238 24.199 118.894 24.5869 118.797 24.0944C118.726 23.7369 118.212 23.811 118.032 23.811C117.737 23.811 116.422 23.7892 116.699 23.1964C116.853 22.8695 117.222 22.8869 117.473 22.9131C117.961 22.961 117.952 22.6428 118.375 22.8041C118.546 22.8695 118.691 22.9959 118.885 22.9044C119.1 22.7998 119.342 22.5382 119.566 22.7344C119.87 23.0046 120.116 22.8564 120.389 22.9915C120.719 23.1572 120.754 23.6846 121.308 23.7151C121.431 23.7238 121.73 23.6715 121.717 23.4449C121.704 23.2182 121.392 23.1703 121.563 23.0221C121.774 22.839 122.082 22.9828 122.298 22.9959C122.478 23.0046 122.781 22.9741 122.9 22.7867C122.979 22.6603 122.839 22.3508 123.243 22.2767C123.582 22.2157 123.679 22.0239 123.604 21.8713C123.437 21.54 123.036 21.6752 123.001 21.5662C122.724 20.7729 121.88 20.9821 121.625 20.9908C121.207 21.0039 121.097 20.459 121.431 20.3762C121.963 20.2454 121.607 19.8052 122.324 19.7965C122.548 19.7965 122.737 19.3954 122.201 19.2211C122.1 19.1906 122.201 19.0293 122.087 18.868C121.704 18.3144 120.956 18.6152 121.115 18.0049C121.176 17.7739 121.537 17.6519 121.378 17.3511C121.269 17.1419 121.044 17.2334 120.912 17.107C120.82 17.0198 120.943 16.7365 120.389 16.6842C120.182 16.6624 119.94 16.5752 119.888 16.2745C119.808 15.8124 119.584 15.6904 119.237 15.6163C119.07 15.5814 118.916 15.6032 118.845 15.3809C118.784 15.1934 118.872 14.9799 119.043 14.945C119.201 14.9101 119.426 14.9973 119.545 14.8229C119.738 14.5352 119.399 14.3609 119.395 14.0994C119.395 13.8858 119.619 13.8204 119.659 13.6286C119.698 13.4412 119.58 13.293 119.443 13.2406C119.285 13.1796 119.096 13.245 119.03 13.014C118.999 12.905 119.021 12.5912 118.529 12.5737C118.313 12.565 118.256 12.3209 117.878 12.5955C117.693 12.7307 117.398 12.7873 117.328 12.4517C117.205 11.8937 116.668 12.1684 116.747 11.8109C116.791 11.6017 116.932 11.5799 117.077 11.5625C117.702 11.4971 117.473 10.9086 117.328 10.7517C117.029 10.4248 117.579 10.4945 117.781 10.1894C117.926 9.9671 117.979 9.51377 117.17 9.4266C116.963 9.4048 116.981 9.12147 116.906 9.04301C116.589 8.72917 116.184 9.18685 116.035 9.20429C115.819 9.23044 115.745 9.0866 115.578 8.97327C115.305 8.79019 114.896 9.22608 114.694 8.95583C114.443 8.61584 114.896 8.45892 114.892 8.17994C114.878 7.49559 113.739 7.89226 113.599 7.87046C113.185 7.8138 113.212 7.58713 112.952 7.59149C112.776 7.59149 112.464 7.70046 112.411 7.38226C112.354 7.04663 112.939 7.1556 113.009 6.89842C113.119 6.51048 112.671 6.55407 112.688 6.09638C112.715 5.50793 111.941 5.83921 111.826 5.87408C111.628 5.9351 111.417 5.78254 111.611 5.55588C111.725 5.42075 111.879 5.35101 111.76 5.13306C111.677 4.9805 111.553 4.81922 111.721 4.64922C111.817 4.54461 112.028 4.47922 111.967 4.22205C111.914 3.99102 111.633 4.01282 111.501 3.96487C111.329 3.89949 111.558 3.62052 110.74 3.55077C110.542 3.53334 110.753 2.92745 110.045 2.9013C109.825 2.89258 109.737 3.02334 109.579 3.05822C109.082 3.16719 109.187 3.40257 109.051 3.47231C108.928 3.53334 108.457 3.46795 108.259 3.77744C108.18 3.89949 108.193 4.03461 108.18 4.1741C108.097 4.36589 107.441 4.57076 107.828 4.96742C107.93 5.07204 107.635 4.98922 107.521 5.00665C107.195 5.06332 107.424 5.32485 106.993 5.28562C106.566 5.24639 106.839 5.39895 106.364 5.34665C106.188 5.32485 105.889 5.58639 105.946 5.84792C105.986 6.031 106.126 5.98305 105.964 6.13561C105.937 6.16177 105.739 6.1051 105.612 6.33612C105.48 6.5715 105.449 6.53227 105.313 6.58458C104.693 6.83304 105.278 7.17739 105.304 7.24714C105.352 7.38226 104.741 7.45636 105.111 8.0579C105.199 8.20174 105.41 8.14507 105.489 8.32379C105.586 8.55045 105.449 8.63327 105.335 8.76404C105.194 8.92096 105.313 9.12147 105.22 9.28275C105.137 9.43095 104.939 9.31326 104.811 9.32198C104.6 9.33942 104.407 9.36121 104.385 9.60531C103.567 9.75351 103.862 10.3594 104.2 10.3115C104.213 10.4597 104.174 10.5817 104.262 10.6907C104.389 10.8476 104.724 10.8607 104.851 10.6907C104.917 10.6079 104.891 10.4553 104.965 10.3725C105.093 10.233 105.264 10.3943 105.405 10.2809C105.502 10.2025 105.506 10.0543 105.599 9.99325C105.885 9.7971 106.025 10.2199 106.052 10.4248C106.096 10.7473 106.799 10.7386 106.535 10.9391C106.214 11.1832 106.513 11.3314 106.685 11.3053C106.843 11.2791 106.918 11.5973 106.698 11.6584C106.549 11.702 106.377 11.6758 106.232 11.6714C106.096 11.6714 106.078 11.7281 105.973 11.7978C105.739 11.9591 105.625 11.7455 105.401 11.7194C105.256 11.702 105.102 11.6889 104.961 11.7194C104.732 11.7673 104.789 11.9853 104.614 12.1291C104.451 12.2643 104.187 12.103 103.998 12.1684C103.862 12.2163 103.664 12.2686 103.562 12.4037C103.246 12.8396 103.791 12.7307 103.835 12.9965C103.892 13.3496 103.145 13.0227 103.066 12.9922C102.912 12.9355 102.041 12.7176 101.922 13.1142C101.865 13.306 102.063 13.3627 101.962 13.4673C101.685 13.5981 101.561 13.4586 101.372 13.4063C100.836 13.2581 100.871 13.5632 100.889 13.6068C100.73 13.6722 100.062 13.5981 100.132 14.047C99.965 14.0688 99.7759 13.9947 99.6747 14.2214C99.5824 14.4263 99.5912 14.6617 99.7451 14.7881C99.8946 14.9101 100.097 14.8883 100.246 14.9711C100.378 15.0452 100.453 15.346 100.308 15.4593C100.154 15.5814 99.8946 15.516 99.7143 15.5422C99.4064 15.5857 99.3625 15.8647 99.3053 15.9475C99.1778 16.1306 98.9095 16.0347 98.7512 16.1219C98.5796 16.2134 98.4389 16.4619 98.5884 16.658C98.7204 16.8237 98.971 16.7278 99.0854 16.9109C99.1382 17.0024 99.0766 17.3162 99.4064 17.4209C99.6703 17.508 99.7539 17.2901 99.578 17.0591C99.6923 16.7714 100.136 16.8978 100.176 17.2029C100.198 17.3903 100.084 17.4775 100.273 17.6039C100.37 17.6693 100.677 17.7739 100.642 17.5037C100.752 17.4426 100.897 17.5473 100.998 17.4557C101.095 17.3685 101.056 17.216 101.073 17.0896C101.342 16.7844 101.311 17.4078 101.997 17.4078C102.357 17.4078 102.885 17.6301 102.604 17.8611C102.52 17.9308 101.988 17.957 102.164 18.4103C102.23 18.5803 102.485 18.7852 102.3 18.9639C102.151 19.1121 101.909 18.9726 101.737 19.0119C101.619 19.0424 101.557 19.0903 101.495 19.2211C101.416 19.3824 101.438 19.439 101.267 19.3998C101.104 19.3649 100.805 19.1731 100.669 19.4172C100.598 19.548 100.669 19.6439 100.537 19.718C100.361 19.8139 100.141 19.8183 100.185 20.1452C100.202 20.2847 100.29 20.5113 100.163 20.4939C99.6923 20.4285 99.7891 20.9298 99.4328 20.8818C99.2437 20.8557 98.9842 20.677 98.8963 21.0344C98.7072 21.1434 98.5049 21.0082 98.3378 21.1957C98.2234 21.3264 98.2674 21.5531 98.4169 21.6098C98.5576 21.6664 98.7072 21.5313 98.8611 21.6272C98.6456 22.1416 99.1909 22.1241 99.3757 22.1023C99.4416 22.0936 99.9122 22.0936 99.7363 22.2941C99.6175 22.4336 99.1866 22.3987 99.1294 22.5687C99.0502 22.8041 99.3141 22.9654 99.7187 22.8957C99.9474 22.8564 99.8726 23.0613 100.123 23.0613C100.528 23.0613 100.51 22.7082 100.655 22.5818C100.889 22.39 101.254 22.6777 101.504 22.3551C101.715 22.0849 102.102 22.2985 102.243 22.2854C102.459 22.268 102.775 22.1241 102.942 22.3726C103.285 22.8739 102.595 22.8608 102.379 22.948C102.283 22.9872 102.102 23.0918 102.089 23.24C102.067 23.458 102.349 23.6497 101.913 23.7238C101.795 23.7456 101.425 23.8851 101.416 24.1031C101.412 24.2382 101.663 24.5128 101.205 24.4169C101.047 24.382 100.792 24.1292 100.629 24.26C100.488 24.3733 100.559 24.5564 100.339 24.5826C99.9474 24.6305 99.6219 24.1859 99.2261 24.2426C99.0326 24.2687 98.7116 24.5041 98.7951 24.8049C98.8655 25.0533 99.0766 24.879 99.2217 24.9705C99.3449 25.049 99.0678 25.3279 99.5208 25.3541C99.6131 25.3584 100.066 25.3105 99.9166 25.5459C99.8638 25.6331 99.3669 25.4543 99.2613 25.7769C99.2173 25.912 99.3009 25.9513 99.3317 26.0646C99.468 26.5397 98.9007 26.3174 98.7336 26.2695C98.5576 26.2215 98.4389 26.313 98.285 26.3523C97.9815 26.4307 97.9463 26.2389 97.7748 26.0166C97.6385 25.8379 97.3482 25.742 97.1811 25.9164C97.0316 26.0777 97.1283 26.2128 96.8908 26.2084C96.7501 26.2084 96.561 26.2215 96.4994 26.4177C96.3543 26.8797 97.1151 26.8361 97.1503 27.2284C97.2031 27.8779 96.196 27.2066 96.1036 27.8256C96.0904 27.9084 96.1696 28.074 95.9321 28.1133C95.7078 28.1525 95.4043 28.0217 95.224 28.2353C95.0393 28.4576 95.246 28.6015 95.4087 28.6538C95.699 28.7453 95.4835 29.1463 95.8837 29.2335C95.9717 29.251 96.2136 29.2335 96.1564 29.4297C95.6198 29.5779 95.8046 30.0879 95.9145 30.1794C96.2927 30.4889 96.5918 29.9702 96.7545 30.0661C97.379 30.4322 97.832 29.6215 98.1574 30.162C98.2718 30.3494 98.0827 30.5848 98.3158 30.6807C98.4433 30.733 98.6544 30.6545 98.6852 30.8812C98.7292 31.2125 97.8892 30.9117 97.7264 31.2735C97.6517 31.4435 97.7748 31.6396 97.7001 31.814C97.5901 32.0799 97.3966 32.0363 97.1987 32.045C97.0448 32.0537 96.7941 32.1627 96.8205 32.4068C96.4906 32.6422 96.0288 31.9535 95.6022 32.4242C95.356 32.6945 95.721 32.9517 95.9233 32.9735C96.2971 33.0127 95.9761 33.2786 96.1608 33.4922C96.4027 33.7712 96.6841 33.5314 96.8732 33.5837C97.4933 33.7537 97.2866 33.2306 97.467 33.1217C97.8628 32.8863 98.4257 33.2132 98.307 33.6317C98.2058 33.9847 98.2586 34.5427 98.5972 34.6124C98.9315 34.6822 98.8655 33.915 99.2173 34.207C99.4372 34.3901 99.2965 34.7083 99.3053 34.9699C99.3141 35.2881 99.4856 35.2793 99.6703 35.2881C99.877 35.2968 99.9298 35.554 100.11 35.6237C100.238 35.676 100.304 35.6716 100.418 35.5932C100.704 35.3927 100.976 35.7414 101.201 35.6193C101.434 35.4929 101.324 35.1311 101.056 34.996C100.805 34.8696 100.897 34.5819 101.223 34.4991C101.425 34.4468 101.654 34.5514 101.944 34.4555C102.362 34.316 102.406 33.9324 102.344 33.4704C102.964 33.6273 102.868 32.7468 103.246 33.1478C103.47 33.3832 103.316 33.8758 103.668 33.9586C103.879 34.0065 104.169 34.0153 104.253 33.7188C104.288 33.5881 104.293 33.3571 104.583 33.3701C104.662 33.3701 105.023 33.4006 104.93 33.1914C104.869 33.0519 104.609 33.0519 104.627 32.8471C104.649 32.5812 105.005 32.6901 105.124 32.7817C105.308 32.9255 105.326 33.2045 105.493 33.3614C105.66 33.5227 106.096 33.4704 106.232 33.2742C106.329 33.1348 106.311 32.9342 106.483 32.9604C106.685 32.9909 107.129 32.4984 106.65 32.2717C106.373 32.1409 105.995 32.5463 105.863 32.4286C105.779 32.3545 105.766 32.1976 105.656 32.154C105.533 32.106 105.264 32.2978 105.177 32.1191C105.115 31.9927 105.234 31.9186 105.133 31.8053C104.992 31.6484 104.455 31.3955 104.451 31.8445C104.332 31.875 104.042 31.7137 103.897 32.045C103.818 32.2194 103.497 32.1932 103.36 32.1017C103.193 31.984 103.101 31.7094 102.929 31.5873C102.762 31.4653 102.239 31.5655 102.217 31.8619C102.212 31.9491 102.278 32.0407 102.269 32.1496C102.252 32.4635 102.023 32.3632 101.843 32.4112C101.614 32.4678 101.671 32.725 101.504 32.8427C100.959 33.235 101.878 33.8409 100.946 33.9237C100.836 33.9324 100.669 33.9019 100.62 33.7712C100.299 32.9604 99.3185 33.3745 99.6219 32.8427C99.7011 32.7032 99.9342 32.6814 99.7627 32.4548C99.6483 32.3022 99.4636 32.2935 99.4504 32.0363C99.4372 31.7661 99.6263 31.6048 99.8111 31.5481C100.216 31.4261 100.743 31.7007 101.117 31.4566C101.276 31.3563 101.152 31.2517 101.254 31.1253C101.306 31.0599 101.473 31.0555 101.548 31.0294C101.803 30.9335 101.61 30.5238 101.174 30.6197C100.818 30.6981 100.809 30.2797 100.268 30.5063C100.167 30.5499 99.8067 30.6458 99.7583 30.4584C99.7143 30.2927 99.8902 30.284 99.921 30.1707C100.044 29.6912 99.2745 29.835 99.1206 29.8394C98.8303 29.8481 98.7951 29.4776 98.4213 29.5081C98.1223 29.5299 98.2102 29.8394 97.8936 29.8394C97.766 29.8394 97.6077 29.7479 97.7352 29.4515C97.8672 29.142 97.8276 28.8979 97.3746 28.4315C97.3262 28.0392 98.1003 28.4881 98.285 28.1438C98.5576 27.6382 98.7204 27.9825 99.0898 27.7907C99.5208 27.5684 99.6263 27.8997 99.9034 28.013C100.317 28.1787 100.532 27.7471 100.202 27.5248C100.238 27.2982 101.122 27.7035 101.047 27.1587C100.994 26.7925 100.585 26.4395 100.304 26.4351C100.163 26.3348 99.9606 26.1082 100.088 25.8815C100.229 25.6287 100.867 25.9295 100.849 25.4848C101.117 25.062 101.328 25.572 101.627 25.5938C101.966 25.62 102.177 25.1013 102.533 25.2669C102.652 25.3236 102.696 25.5284 102.815 25.62C103.017 25.7725 103.29 25.6548 103.505 25.7202C103.686 25.7725 103.932 25.851 103.888 26.1518C103.681 26.2782 103.378 26.2825 103.211 26.5005C103.079 26.6748 103.079 26.9277 103.193 27.1151C103.321 27.333 103.492 27.3592 103.694 27.3592C104.002 27.3548 103.985 28.1438 104.561 27.7384C104.759 27.5989 104.847 27.9346 105.058 27.6076C105.242 27.3243 105.515 27.2633 105.748 27.2502C105.964 27.2371 106.276 27.4594 106.36 27.0759C106.474 27.0497 106.857 27.163 106.874 26.9451C106.883 26.823 106.716 26.7838 106.751 26.653C106.799 26.4525 107.204 26.5571 107.323 26.531C107.468 26.5005 107.49 26.3697 107.582 26.2564C107.745 26.0515 108.211 26.3392 108.475 26.1256C108.638 25.9948 108.466 25.7246 108.233 25.7159C107.947 25.7028 107.771 25.9774 107.406 25.7072C107.336 25.6548 106.896 25.28 106.751 25.6679C106.619 26.021 106.439 25.79 106.342 25.7464C106.087 25.6287 105.805 25.8292 105.841 26.1736C105.858 26.3523 105.863 26.3784 105.713 26.4569C105.603 26.5179 105.467 26.4918 105.344 26.5353C104.996 26.6618 105.374 27.1543 105.106 27.2371C104.728 27.3548 104.811 26.8841 104.556 26.7707C104.433 26.7184 104.183 27.0323 103.967 26.7315C103.875 26.3436 104.407 26.2869 104.592 26.2869C104.763 26.2869 104.807 26.2389 104.899 26.082C105.001 25.912 105.058 25.9338 105.22 25.8772C105.454 25.7987 105.709 25.4413 105.506 25.171C105.405 25.0315 105.141 24.9356 105.344 24.8179C105.753 24.5913 105.59 24.1031 105.146 24.1336C104.842 24.151 104.816 23.8546 104.71 23.7631C104.359 23.471 103.919 23.8633 103.822 23.8372C103.716 23.8067 103.716 23.6759 103.624 23.6454C103.316 23.5321 102.947 24.5956 102.635 24.042C102.56 23.9069 102.481 23.5844 102.722 23.3795C102.868 23.2574 103.14 23.2226 103.215 23.0526C103.29 22.8739 103.184 22.5818 103.307 22.4423C103.395 22.3421 103.813 22.5687 103.897 22.2941C103.949 22.1241 103.87 22.1198 103.906 21.9934C104.077 21.8626 104.715 21.7972 104.746 22.1372C104.754 22.2505 104.671 22.3857 104.71 22.4946C104.772 22.6646 105.001 22.5949 105.119 22.6123C105.264 22.6298 105.291 23.1092 106.179 22.9436C106.311 22.9174 106.654 22.6516 107.019 22.7474C107.186 22.791 107.815 22.9174 107.934 22.6516C108.101 22.281 107.393 22.1851 107.23 22.1721C106.997 22.1546 106.694 22.2287 106.465 22.1416C106.228 22.05 106.307 21.7493 106.236 21.5226C106.166 21.3003 106.008 21.2567 105.845 21.2698C105.502 21.2959 105.603 21.0431 105.581 20.86C105.498 20.1757 104.662 20.6726 104.521 20.6595C104.385 20.6421 104.42 20.5593 104.328 20.4459C104.235 20.3239 103.998 20.2977 103.862 20.3718C103.69 20.4634 103.778 20.6857 103.492 20.6595C103.395 20.6508 102.912 20.6857 102.96 20.9254C103.026 21.2741 103.91 21.139 103.646 21.6708C103.567 21.8321 103.233 21.7144 103.022 21.9193C102.586 22.3464 102.072 21.3526 101.588 21.7667C101.359 21.9628 101.205 21.7885 101.113 21.7187C100.902 21.5618 100.682 21.7972 100.466 21.7275C100.255 21.6621 100.079 21.248 100.229 21.0126C100.396 20.7554 100.761 20.9298 100.897 20.6247C100.981 20.4285 100.726 20.35 100.968 20.1277C101.311 19.8183 101.689 20.4285 102.023 20.1626C102.146 20.0624 102.204 19.8575 102.318 19.7442C102.485 19.5829 102.674 19.6308 102.872 19.596C103.18 19.5436 103.158 19.0162 102.956 18.8375C102.806 18.7067 102.45 18.5978 102.349 18.3929C102.151 17.9875 102.753 18.2055 102.929 17.9744C103.07 17.7957 102.938 17.5908 103.017 17.4383C103.123 17.2465 103.36 17.1942 103.532 17.2291C103.752 17.277 103.967 17.4121 104.152 17.5647C105.146 18.3885 105.432 17.5298 105.572 17.3991C105.775 17.216 106.109 17.4034 106.285 17.1244C106.373 16.9806 106.276 16.7888 106.188 16.6886C106.025 16.5011 105.656 16.4052 105.458 16.5578C105.203 16.7539 105.682 17.1244 105.26 17.1288C105.049 17.1288 104.979 17.277 105.084 17.4819C104.987 17.8262 104.473 17.4121 104.402 17.2378C104.2 16.7103 104.965 16.9544 105.031 16.5491C105.141 15.8865 103.857 15.9432 103.725 15.7514C103.536 15.4681 104.306 15.006 103.787 14.8055C103.54 14.7096 103.237 14.775 102.986 14.8186C102.832 14.8447 102.586 14.9232 102.454 14.8011C102.371 14.727 102.379 14.4829 102.089 14.5222C101.962 14.5396 101.619 14.6006 101.724 14.3435C101.896 13.9206 102.599 13.9642 102.903 13.8814C103.136 13.816 103.228 13.6809 103.505 13.7463C103.734 13.7986 103.879 13.9381 104.147 13.8814C104.389 13.8291 104.851 13.5501 104.754 13.1753C104.943 12.9965 105.744 13.4891 105.805 12.5694C105.827 12.2381 106.535 12.4212 106.984 12.2599C107.31 12.1378 107.235 12.0768 107.375 11.8719C107.494 11.6976 107.675 11.715 107.846 11.715C107.982 11.715 108.233 11.7412 108.277 11.5145C108.369 11.0089 107.789 11.1222 107.556 11.1614C107.367 11.192 106.879 11.4012 106.716 11.1571C106.645 11.0481 106.817 10.9958 106.883 10.9435C107.116 10.7561 106.87 10.634 106.685 10.6035C106.958 10.1371 106.276 10.0848 106.258 9.74044C106.245 9.45275 106.522 9.24788 106.513 8.98199C106.505 8.77712 106.254 8.56353 106.478 8.36738C106.597 8.26276 106.896 8.42404 107.024 7.92713C107.107 7.59585 107.811 7.75277 107.771 8.17123C107.749 8.38481 107.477 8.53738 107.591 8.78583C107.679 8.97327 107.855 8.95147 108 8.94276C108.396 8.9166 108.325 9.19557 108.369 9.38301C108.466 9.82326 109.482 9.99325 109.579 9.60095C109.698 9.11275 110.274 9.45275 110.234 8.85558C110.212 8.54609 110.889 8.33687 111.118 8.69866C111.571 9.4048 112.226 8.24533 112.609 8.68558C112.75 9.26096 113.264 8.66378 113.414 8.95147C113.629 9.37429 112.912 9.41788 113.146 9.79274C113.295 10.0368 113.497 9.80582 113.66 9.92787C113.81 10.0412 113.66 10.2635 113.902 10.2853C114.078 10.3027 114.351 10.3289 114.474 10.5076C114.742 10.8999 113.621 10.8607 113.805 11.5189C113.612 11.6409 113.471 11.6802 113.181 11.4927C112.798 11.2486 112.068 11.4666 112.09 12.0463C112.108 12.395 111.224 11.9548 111.074 12.3819C110.977 12.6522 110.933 12.8876 110.379 12.7219C110.155 12.6522 109.799 12.3776 109.5 12.8876C109.249 13.3235 108.246 12.4953 107.903 12.9878C107.798 13.1404 107.974 13.2668 107.899 13.3235C107.244 13.7768 107.864 14.3304 108.215 13.9119C108.427 13.6591 108.734 13.5458 108.844 13.8596C109.007 14.3217 110.12 13.1404 110.322 13.5806C110.454 13.864 110.027 13.9206 109.961 14.1996C109.86 14.6486 110.823 14.4481 110.713 14.6878C110.56 14.9755 109.786 14.5614 109.834 14.945C109.86 15.1499 109.684 15.1891 109.601 15.1978C109.363 15.2196 108.783 15.3068 108.968 15.6468C109.253 16.1742 109.983 15.4768 110.489 15.7252C110.656 15.8081 111.087 15.6075 111.118 15.3242C111.136 15.1629 111.254 15.1934 111.386 15.1978C111.919 15.2109 112.31 14.714 111.8 14.3435C111.663 14.2432 111.488 14.0906 111.681 13.9032C111.813 13.7724 112.152 13.9904 112.336 13.6678C112.481 13.4063 112.996 13.6765 113.08 13.3714C113.146 13.1317 112.992 13.0445 112.868 12.9748C112.71 12.8832 112.574 12.796 112.728 12.5607C112.934 12.2468 113.295 12.5519 113.493 12.5345C113.774 12.5127 113.933 12.2904 114.122 12.7699C114.289 13.1971 114.707 12.7132 114.456 13.3017C114.157 14.0035 115.323 14.0732 115.745 13.6504C115.995 13.4019 115.819 13.0227 116.303 13.1186C116.303 13.6765 117.099 13.1796 117.284 13.5501C117.398 13.7812 117.658 13.694 117.873 13.7245C118.489 13.8073 118.313 14.3304 117.948 14.3042C117.623 14.2824 117.491 14.496 117.456 14.6835C117.398 14.9755 117.099 14.897 116.919 14.8796C116.594 14.8534 115.973 15.3504 116.457 15.7819C116.594 15.9039 116.602 16.1045 116.457 16.2047C115.894 16.5883 114.94 16.1001 114.698 15.9955C114.496 15.9083 114.144 15.9519 113.968 16.1306C113.726 16.3791 113.792 16.7365 113.304 16.7147C113.044 16.7016 112.912 16.7888 112.811 17.1157C112.635 17.6911 112.156 16.8237 111.58 17.168C111.329 17.3162 111.51 17.5516 111.184 17.6083C110.938 17.6475 110.696 17.787 110.753 18.079C110.885 18.759 109.9 18.4452 109.614 18.1183C109.451 17.9308 109.073 17.7739 108.822 17.9832C108.545 18.2055 108.347 18.2621 107.644 18.1357C106.993 18.018 107.063 18.5367 106.905 18.5716C106.769 18.6021 106.606 18.5542 106.491 18.6719C106.382 18.7852 106.461 18.916 106.386 19.0293C106.32 19.1252 105.902 19.269 106.065 19.609C106.179 19.8488 106.39 19.7529 106.426 20.0667C106.509 20.7685 107.433 20.0318 107.534 20.507C107.569 20.677 107.384 20.7206 107.529 20.8949C107.631 21.017 107.811 21.0082 107.938 21.0039C108.343 20.9908 109.196 20.7947 109.165 21.2611C109.157 21.357 109.02 21.3831 109.029 21.5008C109.06 21.8713 109.966 21.5008 110.089 21.7841C110.287 22.2244 111.298 22.1503 110.973 21.5575C110.828 21.2872 110.832 21.0693 111.307 20.9341C111.492 20.8818 111.562 20.7336 111.575 20.5157C111.597 20.1844 111.875 19.9447 112.125 19.9054C112.442 19.8575 112.811 19.9534 113.084 20.1583C113.335 20.3457 113.537 20.7162 113.928 20.5636C114.232 20.4459 114.122 20.1408 114.526 20.1365C114.812 20.1365 114.57 20.4503 114.694 20.6334C114.861 20.8818 115.279 20.6334 115.314 20.8906C115.353 21.1652 114.957 21.187 114.848 21.187C114.672 21.1913 114.509 21.187 114.469 21.4572C114.452 21.5793 114.496 21.6359 114.399 21.71C114.219 21.8539 113.453 21.5836 113.146 21.8844C112.86 22.1634 113.146 22.4467 113.238 22.4772C113.73 22.6341 113.352 22.8259 113.423 23.1921C113.563 23.8938 114.483 23.6541 114.856 23.4318C115.283 23.179 114.909 22.791 114.957 22.6254C115.041 22.329 115.921 22.4685 116.035 22.0762C116.233 21.4005 115.472 21.248 115.806 20.86C115.991 20.6465 116.347 20.8775 116.554 20.7336C116.84 20.5331 116.462 20.3849 116.453 20.2716C116.426 19.9098 116.871 20.1234 117.003 19.609C117.143 19.0729 117.504 19.6395 118.076 19.487C118.832 19.2821 118.713 19.7006 118.599 19.8313C118.445 20.01 118.142 19.9359 118.001 20.1277C117.763 20.4459 118.287 20.6552 118.361 20.8949C118.48 21.2785 118.12 21.5793 117.17 21.5967C116.198 21.6185 116.945 22.438 116.703 22.6123C116.633 22.6603 116.259 22.5862 116.29 22.9436C116.303 23.1136 116.576 23.2356 116.382 23.4144C116.189 23.5931 115.692 23.4405 115.622 23.811C115.604 23.9026 115.595 24.3646 114.856 24.2382C114.584 24.1946 114.205 24.1597 113.964 24.321C113.757 24.4561 113.577 24.6349 113.335 24.6218C113.036 24.6087 111.532 23.9985 111.32 24.8267C111.21 25.2582 111.831 25.1361 112.059 25.219C112.279 25.2974 112.226 25.4631 112.196 25.7028C112.165 25.9643 112.196 26.1343 112.424 26.2084C112.552 26.2477 112.728 26.2041 112.833 26.313C112.978 26.4612 112.86 26.5571 112.833 26.7097C112.763 27.1238 113.317 27.1369 113.317 27.5684C113.317 27.8648 113.128 27.9956 112.917 28.0392C112.627 28.1002 112.046 27.5379 111.562 27.5858C111.373 27.6033 111.303 27.6556 111.294 27.8997C111.268 28.5056 110.287 27.7515 110.071 27.6512C108.994 27.1456 109.073 27.891 108.66 27.8605C108.484 27.8474 108.242 28.0523 108.312 28.3138C108.409 28.6538 109.012 28.6625 109.183 28.6407C109.416 28.6146 109.843 28.2876 110.041 28.5797C110.151 28.7366 110.067 28.9851 110.159 29.1594C110.414 29.6345 110.982 28.9938 111.228 29.6563C111.342 29.9571 111.984 29.9876 112.103 29.6127C112.182 29.3599 112.517 29.2422 112.737 29.3251C113.247 29.5081 112.934 29.8438 113.066 30.3494C113.185 30.8071 114.008 30.794 114.386 30.515C114.826 30.1881 115.327 30.5238 115.402 30.6763C115.476 30.8332 115.169 31.3214 115.837 31.3825C115.987 31.3955 116.097 31.7573 116.699 31.2517C116.959 31.0338 117.178 31.522 117.451 31.4043C118.067 31.134 118.652 31.7399 118.265 31.8968C118.15 31.9448 117.97 31.8837 117.9 32.0319C117.693 32.4766 117.407 32.0363 117.161 32.2717C116.783 32.6378 117.266 32.8035 117.205 33.0955C117.126 33.4617 116.352 33.2001 116.171 33.2176C115.732 33.2568 115.903 33.4965 115.775 33.6012C115.652 33.7014 115.151 33.4878 114.975 33.9281C114.738 34.5296 115.591 34.6473 115.648 34.8652C115.771 35.3447 116.536 35.1573 116.699 34.9699C116.844 34.8042 116.69 34.7476 116.893 34.6865C117.099 34.6255 117.662 34.765 117.711 34.4032C117.733 34.2332 117.482 34.2855 117.403 34.2027C117.17 33.9499 117.513 33.7668 117.658 33.6971C117.895 33.5837 118.001 33.5096 118.076 33.1914C118.23 32.5419 118.722 32.8645 118.995 32.5812C119.193 32.3719 119.162 32.1453 119.492 32.0494C119.786 31.9666 120.393 32.093 120.297 32.4635C120.173 32.9386 120.613 33.0694 120.745 33.0824C121.189 33.1304 121.286 33.5663 121.062 33.6535C120.886 33.7232 120.653 33.5532 120.486 33.6622C120.367 33.7363 120.398 33.8888 120.31 33.9847C120.235 34.0676 119.729 33.8976 119.597 34.3204C119.395 34.9699 118.828 34.4337 118.669 35.057C118.621 35.2401 118.801 35.3316 118.726 35.3665C118.172 35.6411 118.586 35.968 118.784 35.8983C119.171 35.7675 119.364 35.8722 119.624 36.1468C119.993 36.5391 120.354 36.186 120.574 36.2427C120.736 36.2819 121.181 36.2732 121.181 35.8722C121.181 35.6324 121.603 35.9375 121.823 35.7327C121.994 35.5714 121.823 35.3752 121.84 35.2488L121.867 35.2183Z" fill="#5B8338"/>
<path d="M156.205 44.3935C156.262 43.8878 156.412 43.683 155.928 43.295C155.493 42.9463 155.185 43.0379 154.683 42.9725C154.358 42.9332 153.87 42.6673 154.094 42.2968C154.301 41.9481 154.943 41.9132 154.793 41.4076C154.727 41.1853 154.485 41.0763 154.745 40.841C155.057 40.5576 155.523 40.5925 155.356 40.0302C155.242 39.651 154.974 39.6728 154.701 39.4679C153.892 38.862 155.396 37.9946 154.428 37.2754C154.085 37.0225 153.755 37.2492 153.456 37.0966C153.175 36.9528 153.236 36.4908 152.907 36.3382C152.379 36.0941 152.014 36.7654 151.499 36.4864C151.46 36.4646 151.424 36.4428 151.398 36.421C151.381 36.4079 151.367 36.3949 151.35 36.3818C151.341 36.3731 151.332 36.3687 151.323 36.36C151.306 36.3426 151.293 36.3295 151.284 36.312C151.284 36.312 151.284 36.312 151.279 36.3077C151.266 36.2902 151.262 36.2728 151.253 36.2554L151.262 36.1333C151.262 36.1333 151.249 36.1726 151.244 36.1943C151.244 36.1726 151.253 36.1551 151.262 36.1333C151.319 36.0026 151.499 35.8762 151.618 35.7323C151.631 35.7149 151.644 35.7018 151.653 35.6844C151.662 35.6756 151.666 35.6626 151.671 35.6538C151.68 35.6364 151.688 35.619 151.697 35.5972C151.697 35.5885 151.706 35.5797 151.706 35.571C151.715 35.5449 151.719 35.5144 151.719 35.4838C151.719 35.4533 151.715 35.4272 151.706 35.401C151.706 35.3923 151.697 35.3879 151.697 35.3792C151.688 35.3618 151.68 35.3444 151.671 35.3269C151.666 35.3182 151.662 35.3138 151.658 35.3051C151.644 35.2877 151.631 35.2703 151.618 35.2572C151.618 35.2572 151.609 35.2485 151.605 35.2441C151.543 35.1744 151.464 35.1133 151.403 35.0436C151.385 35.0218 151.372 35.0044 151.359 34.9826L151.403 34.4551C151.438 34.4028 151.477 34.3505 151.521 34.2982C151.706 34.0759 151.899 33.9844 151.803 33.6618C151.741 33.4526 151.583 33.2826 151.517 33.0603C151.486 32.96 151.455 32.8816 151.42 32.8205C151.183 32.4065 150.8 32.7857 150.329 32.4936C150.079 32.3411 150.035 32.0577 149.714 31.9793C149.454 31.9139 149.217 32.0011 148.992 32.1449C148.913 32.0752 148.825 32.0185 148.729 31.9706C143.156 19.5346 130.592 10.856 115.973 10.856C115.793 10.856 115.612 10.856 115.428 10.8603L115.722 12.4426L115.7 12.957C116.338 12.9177 116.984 12.8959 117.635 12.8959C119.777 12.8959 121.87 13.1095 123.894 13.5193C126.902 14.1295 129.752 15.1713 132.373 16.5749C137.404 19.2687 141.595 23.3007 144.467 28.187C144.317 28.2132 144.172 28.2568 144.04 28.3003C143.913 28.3439 143.856 28.4442 143.759 28.5096C143.605 28.3745 143.521 28.1347 143.328 27.9952C143.002 27.7511 142.611 27.7729 142.255 27.9168C142.211 27.9342 142.167 27.9516 142.123 27.9691C141.859 27.9909 141.604 28.0868 141.384 28.2524C141.191 28.4006 141.059 28.5444 140.966 28.6927C140.891 28.7711 140.821 28.8583 140.76 28.9542C140.531 29.3116 140.619 30.227 140.315 30.4013C139.906 30.6367 139.792 30.179 139.559 30.0003C139.339 29.8303 139.022 29.8914 138.829 30.0396C138.736 30.1093 138.754 30.2924 138.618 30.3098C138.455 30.3316 138.288 30.0831 138.046 30.1093C137.804 30.1311 137.725 30.1878 137.615 30.4013C137.483 30.6585 137.562 31.2644 137.149 31.308C136.722 31.356 136.727 30.9942 136.586 30.7544C136.423 30.4798 136.049 30.3316 135.711 30.3403C135.077 30.3578 134.937 31.0988 134.185 31.0116C133.587 30.9419 132.839 30.6542 132.403 31.2819C132.096 31.7265 132.28 32.3454 132.461 32.8031C132.32 32.4413 131.854 33.3654 131.845 33.4046C131.713 33.8449 132.25 34.4813 132.082 34.83C131.92 35.1613 131.524 34.9433 131.207 34.9477C130.596 34.9477 130.68 35.3487 130.354 35.6887C130.205 35.8456 130.046 36.02 129.791 35.9067C129.474 35.7672 129.664 35.5405 129.602 35.3095C129.47 34.7908 129.215 34.7908 128.67 34.7036C128.727 33.9844 128.067 33.4221 127.346 33.3959C126.457 33.3611 126.145 34.2372 125.349 34.4769C124.936 34.6033 124.698 34.7908 124.597 35.2092C124.522 35.5144 124.698 35.8761 124.421 36.0985C124.118 36.3469 123.872 36.1072 123.581 35.9982C123.054 35.7977 122.389 35.7541 122.002 36.2292C121.809 36.469 121.906 36.6695 121.804 36.9005C121.69 37.1577 121.444 37.2928 121.29 37.5238C121.022 37.9248 121.233 37.9074 121.352 38.3128C121.519 38.8925 120.921 38.7574 120.599 39.0407C120.322 39.2848 120.393 39.8515 119.988 39.9256C119.509 40.0128 119.526 39.5638 119.408 39.311C119.188 38.8489 119.06 38.8751 118.568 38.8359C117.956 38.7879 118.141 38.2692 117.604 38.0818C116.962 37.8595 115.828 38.0992 115.344 38.5264C115.089 38.7487 115.106 38.9361 114.913 39.1671C114.5 39.6597 113.444 39.4025 113.426 40.2612C113.418 40.6404 113.739 40.9804 113.73 41.364C113.721 41.7127 113.923 42.3361 113.237 42.4494C111.32 42.772 110.814 44.4022 111.03 45.9147H155.906C155.919 45.8842 155.932 45.8537 155.954 45.8188C156.047 45.6576 156.275 45.5922 156.359 45.4265C156.53 45.0822 156.179 44.7596 156.218 44.3935H156.205Z" fill="#5B8338"/>
<path d="M101.685 13.7988L102.978 13.7726L104.565 13.4936L104.851 13.0665L105.915 12.4606L106.962 11.9985C105.141 12.4649 103.378 13.0708 101.685 13.8031V13.7988Z" fill="#5B8338"/>
<path d="M102.753 44.1541C102.569 43.9928 102.582 43.8577 102.34 43.7007C101.874 43.4 100.783 43.23 100.163 43.3869C99.6483 43.5177 99.8242 43.8882 99.2349 43.9187C98.7599 43.9448 98.6368 43.9274 98.4257 44.2543C98.3114 44.433 98.329 44.7512 97.8628 44.6902C97.4714 44.6379 97.5373 44.2369 97.2735 44.0625C96.9612 43.862 96.3851 43.9579 96.5478 43.5482C96.6621 43.2605 96.8644 43.2736 96.605 42.9902C96.4554 42.8289 96.218 42.7331 96.108 42.55C96.0112 42.3887 96.108 42.2449 95.9189 42.0749C95.5495 41.7392 94.9074 41.7697 94.4016 41.9092C94.1245 41.9877 93.8871 42.1533 93.5924 41.979C93.3241 41.822 93.4956 41.5649 93.4253 41.3469C93.3241 41.0549 93.0998 40.9197 92.6996 40.8282C91.9344 40.6582 91.6353 40.0392 90.7777 40.061C90.0829 40.0785 89.4452 40.4795 89.5023 40.9851C88.9746 41.0462 88.7283 41.0462 88.6008 41.4123C88.5436 41.5779 88.7239 41.7349 88.4204 41.8351C88.1742 41.9136 88.0202 41.7915 87.8795 41.6782C87.5672 41.4385 87.6464 41.1551 87.0571 41.1551C86.9383 41.1551 86.8108 41.1769 86.6877 41.19C87.5584 30.3189 94.1333 21.0387 103.444 16.2875L103.109 15.4375L102.16 14.4001L101.056 14.8142V14.0645C91.068 18.6064 83.5476 27.564 81.0495 38.4177C80.5042 40.789 80.1743 43.3738 80.1348 45.902H103.87C103.862 45.8758 103.897 45.7276 103.892 45.6971C103.884 45.4269 104.191 45.1828 104.187 44.9169C104.169 44.311 103.153 44.4941 102.753 44.1453V44.1541Z" fill="#5B8338"/>
<path d="M97.9948 29.1421C98.5049 29.081 99.1602 28.8544 99.169 28.8413C99.3186 28.9328 99.4769 28.9852 99.6528 29.02C100.203 29.129 100.849 29.0113 101.346 29.3644C101.214 29.4254 101.091 29.5082 100.977 29.6346C100.656 29.9877 100.466 30.6372 99.987 30.7069C99.9387 30.7156 99.9387 30.7985 99.987 30.7985C100.33 30.8072 100.554 30.5544 100.783 30.258C100.915 30.0836 101.043 29.8918 101.196 29.748C101.399 29.5605 101.689 29.5344 101.931 29.5169C102.441 29.4777 102.872 29.421 103.343 29.1682C103.659 28.9982 103.989 28.7367 104.328 28.5798C104.262 28.6582 104.117 29.0287 104.099 29.3121C104.051 29.3208 102.898 29.4167 101.359 30.7374C101.346 30.7505 101.35 30.7854 101.368 30.7767C102.283 30.2841 103.532 29.4167 104.073 29.5562C104.016 30.0357 103.651 30.1446 103.611 30.6328C103.576 31.06 103.026 31.4 102.278 31.2736C101.856 31.2038 101.386 30.9641 100.959 31.0382C100.919 31.0469 100.924 31.1254 100.959 31.1385C101.254 31.2256 101.557 31.3215 101.856 31.4044C101.487 32.0015 101.342 31.7836 100.981 31.9928C100.484 32.2805 100.181 32.9431 99.8243 33.4356C99.7847 33.4879 99.8419 33.5577 99.8859 33.5141C100.26 33.1261 100.515 32.5725 100.937 32.2543C101.122 32.1149 101.342 32.1192 101.54 32.0277C101.79 31.9143 102.006 31.4261 102.186 31.4915C102.243 31.5046 103.008 31.7661 103.536 31.2605C103.699 31.1036 103.826 30.8944 103.848 30.6372C103.875 30.3103 104.315 30.2492 104.328 29.53C105.036 29.4428 105.031 29.8962 105.317 30.0749C105.827 30.3887 106.588 30.3887 106.953 30.3713C106.105 30.659 105.608 31.6179 105.366 31.8141C105.106 32.0277 104.671 32.1018 104.367 32.0669C104.354 32.0669 104.35 32.0887 104.359 32.0931C104.807 32.3982 105.454 32.0233 105.722 31.7095C105.981 31.4044 106.461 30.6023 107.485 30.4977C108.893 30.2536 109.627 32.0015 109.957 32.7338L109.975 45.9239L111.298 45.9065L111.057 35.1661C111.14 35.0092 111.773 33.6623 112.354 33.0041C113.278 31.9536 114.21 32.3066 114.452 32.3633C114.962 32.481 115.754 32.5072 116.044 32.481C116.875 32.4025 117.522 33.1261 118.181 33.6666C118.463 33.8977 118.788 34.0589 119.109 34.1723C119.259 34.2246 119.413 34.2551 119.571 34.2769C119.786 34.3074 120.015 34.1374 120.209 34.351C120.213 34.3597 120.226 34.351 120.222 34.3379C120.055 33.9935 119.725 34.1374 119.452 34.0764C119.149 34.0066 118.85 33.8584 118.568 33.6753C119.241 33.7277 119.998 33.2264 120.503 32.7992C120.539 32.7687 120.517 32.6772 120.473 32.7077C119.791 33.1392 118.863 33.8061 118.199 33.3746C118.186 33.3659 117.552 32.821 117.244 32.6205C117.011 32.4679 116.765 32.3546 116.514 32.2936C116.805 32.1715 117.064 31.9797 117.302 31.7356C117.425 31.6049 117.856 31.1297 118.19 31.1428C118.225 31.1428 118.221 31.0731 118.19 31.06C117.948 30.9554 117.689 31.1297 117.495 31.2997C117.17 31.5831 116.915 31.8795 116.536 32.0538C115.758 32.4156 114.861 32.1018 114.078 31.9187C114.052 31.9143 114.025 31.9056 113.999 31.9013C114.188 31.6528 114.364 31.3956 114.672 31.3782C115.221 31.3477 115.701 31.5831 116.185 31.1385C116.22 31.1079 116.189 31.0426 116.149 31.0644C115.864 31.2256 115.547 31.2213 115.239 31.1908C114.993 31.1646 114.716 31.0731 114.469 31.121C114.065 31.2038 113.766 31.7226 113.665 31.849C113.181 31.8359 112.561 32.1802 112.244 32.5202C112.077 31.3738 113.638 30.8421 113.797 30.1359C113.818 30.0444 113.7 29.9659 113.665 30.0662C113.445 30.6372 112.895 30.8464 112.504 31.1995C112.024 31.6354 111.835 32.2587 111.927 32.8864C111.58 33.2002 111.123 33.95 111.052 34.0851L110.828 24.077C111.021 23.9637 111.206 23.8329 111.373 23.6673C111.589 23.7719 111.734 23.9593 112.033 23.9724C112.319 23.9855 112.609 23.7937 112.877 23.955C113.159 24.125 113.37 24.308 113.691 24.3691C113.99 24.4257 114.311 24.4126 114.606 24.3298C114.61 24.3298 114.61 24.3168 114.606 24.3168C114.293 24.2339 113.972 24.2514 113.66 24.1642C113.418 24.0944 113.238 23.907 113.036 23.7632C113.475 23.6106 113.915 23.4842 114.324 23.2052C114.566 23.0396 114.782 22.8173 114.984 22.5863C115.265 22.2593 116.07 21.5968 116.347 21.4878C116.726 21.5837 117.222 21.4486 117.447 21.3876C117.856 21.2742 118.247 21.0083 118.467 20.5506C118.493 20.494 118.428 20.4286 118.392 20.4809C118.106 20.895 117.759 21.0999 117.337 21.2306C116.937 21.3527 116.677 21.296 116.668 21.296C116.915 21.1391 117.148 20.956 117.363 20.7119C117.675 20.3545 117.9 19.5045 118.388 19.2255C118.406 19.2168 118.401 19.1689 118.384 19.1732C117.922 19.2386 117.588 20.1714 117.407 20.3283C117.236 20.0407 117.095 19.5568 117.205 19.2299C117.209 19.2125 117.187 19.1994 117.179 19.2081C116.906 19.4391 117.161 20.2412 117.306 20.4722C116.972 20.9037 116.528 21.126 116.079 21.4006C115.498 21.7494 114.702 22.595 114.417 22.8347C113.902 23.2663 112.706 23.6324 112.204 23.676C111.976 23.6978 111.839 23.6586 111.598 23.4319C111.791 23.1791 111.919 22.7693 111.985 22.3596C112.697 22.3509 113.278 22.0676 113.568 21.8888C113.607 21.867 113.577 21.8017 113.541 21.8104C113.273 21.867 112.653 22.2245 112.033 22.1155C112.218 20.9255 112.789 20.2194 113.295 19.7137C113.308 19.7007 113.295 19.6832 113.282 19.6876C112.763 19.984 112.306 20.6335 112.059 21.2742C111.8 21.9455 111.835 22.6996 111.4 23.2706C111.307 23.3927 110.977 23.6498 110.832 23.7327L110.687 17.2379C111.052 16.8281 111.435 16.4533 111.892 16.1961C113.207 15.4638 114.118 15.721 114.359 15.6905C115.133 15.5858 114.905 15.2197 115.204 14.8448C115.397 14.6007 115.749 14.6312 115.965 14.4961C116.233 14.6487 116.994 14.9276 117.75 14.4961C117.768 14.4874 117.768 14.4482 117.746 14.4525C117.288 14.5223 116.484 14.6617 116.127 14.313C116.317 14.1387 116.391 13.7987 116.541 13.5764C116.748 13.2582 116.954 13.1884 117.275 13.1797C117.293 13.1797 117.297 13.1405 117.28 13.1274C116.906 12.9051 116.418 13.3105 116.251 13.7159C115.758 14.932 115.133 14.0079 114.782 15.1282C114.676 15.4594 114.214 15.4028 113.717 15.3417C114.065 14.9625 114.126 13.8118 114.834 13.3497C114.861 13.3323 114.861 13.2843 114.834 13.2843C114.447 13.2495 113.964 14.2171 113.92 14.3261C113.7 14.2825 113.475 14.2564 113.264 14.1648C112.921 14.021 113.049 13.5241 112.785 13.293C112.732 13.2451 112.684 13.3454 112.719 13.3977C112.847 13.5938 112.816 14.2171 113.137 14.3523C113.361 14.4482 113.594 14.5135 113.827 14.5571C113.797 14.64 113.691 15.2894 113.04 15.4681C112.578 15.5902 111.501 15.8387 110.674 16.741C110.674 16.741 110.529 11.009 110.56 10.7256C110.612 10.2331 111.233 9.71874 111.567 9.63156C111.835 9.56181 112.086 9.56182 112.301 9.31336C112.486 9.10413 112.526 8.7467 112.803 8.53311C112.82 8.52003 112.803 8.48952 112.781 8.49824C112.49 8.60721 112.35 8.97336 112.262 9.11285C112.108 9.35695 111.734 9.39618 111.479 9.43541C111.624 9.24361 111.795 8.92977 111.747 8.66824C111.738 8.60721 111.668 8.62465 111.664 8.68131C111.642 9.15644 111.413 9.20438 111.281 9.48335C111.017 9.61848 110.718 9.85386 110.533 10.0936L110.485 7.98389H109.953L109.962 12.0115C109.808 11.6585 109.645 11.3141 109.539 10.9305C109.469 10.669 109.46 10.3813 109.363 10.1285C109.253 9.83643 109.064 9.64028 108.88 9.41797C108.862 9.39618 108.836 9.41797 108.84 9.44848C108.88 9.69258 109.069 9.82771 109.17 10.0369C109.302 10.3159 109.311 10.8477 109.399 11.1877C109.104 11.1179 108.937 10.5469 108.836 10.3987C108.607 10.0718 107.877 9.99335 107.846 9.80156C107.855 9.78412 108 9.59233 108.035 9.46156C108.11 9.20438 108.004 8.86875 107.991 8.60721C107.991 8.52439 107.886 8.52439 107.886 8.60721C107.886 8.88618 108.031 9.37002 107.719 9.62284C107.675 9.54874 107.503 9.18695 107.208 9.0649C106.923 8.94721 106.632 8.90362 106.338 8.96464C106.298 8.97336 106.311 9.04746 106.346 9.04746C106.703 9.02567 107.054 9.07798 107.345 9.3613C107.463 9.479 107.547 9.63156 107.613 9.7972C107.719 10.0718 107.886 10.1154 107.956 10.1546C108.277 10.3464 108.598 10.3639 108.77 10.8041C108.844 10.9915 108.91 11.1485 109.034 11.2967C109.148 11.4361 109.513 11.5713 109.531 11.5756C109.667 11.9331 109.852 12.2731 109.966 12.6392V14.9102C109.447 14.6835 109.394 13.9251 109.056 13.3323C108.589 12.5172 107.569 11.9984 107.2 11.9069C107.191 11.9069 107.186 11.92 107.195 11.9243C107.811 12.3123 108.559 12.7918 108.937 13.4456C108.625 13.4761 108.339 13.7159 108.018 13.6418C107.833 13.5982 107.714 13.3933 107.534 13.3236C107.34 13.2495 107.156 13.2713 106.962 13.3105C106.478 13.4151 106.184 13.2669 105.814 12.8964C105.625 12.709 105.458 12.4431 105.203 12.5084C105.524 12.5913 105.696 13.0184 105.924 13.2669C106.179 13.5415 106.659 13.6592 106.962 13.572C106.76 13.742 106.28 13.9905 105.876 13.9774C105.41 13.9643 104.992 13.633 104.543 13.5459C104.521 13.5459 104.508 13.5764 104.53 13.5895C104.926 13.8859 105.418 14.1692 105.88 14.1779C106.764 14.1953 107.292 13.5895 107.283 13.5371C107.38 13.5371 107.477 13.5633 107.578 13.633C107.736 13.7464 107.855 13.8597 108.04 13.9033C108.391 13.9861 108.704 13.6636 109.056 13.6941C109.06 13.6941 109.416 15.0192 109.97 15.2371V18.1184C108.963 18.1445 108.792 17.2161 108.576 16.7976C108.383 16.4228 108.013 16.2004 107.666 16.3225C107.301 16.4489 106.98 17.0374 106.606 16.6756C106.386 16.462 106.742 15.9607 106.681 15.6033C106.566 14.9669 106.113 14.8056 105.788 14.7315C105.269 14.6138 104.759 14.6051 104.271 14.3174C104.033 14.1779 103.923 13.9905 103.791 13.7246C103.721 13.5764 103.629 13.4805 103.492 13.4456C103.431 13.4282 103.409 13.5328 103.466 13.5589C103.712 13.6723 103.769 14.1212 103.954 14.3348C104.169 14.5833 104.587 14.7228 104.869 14.8143C104.658 14.8405 104.306 14.8535 104.416 15.6861C104.486 16.2004 103.963 16.1699 103.747 16.0828C103.725 16.074 103.703 16.1176 103.721 16.1351C103.857 16.2702 104.187 16.3399 104.42 16.2048C104.702 16.0435 104.477 15.4899 104.614 15.211C104.732 14.9625 105.018 15.0453 105.383 14.9364C105.524 14.9582 106.602 15.1543 106.386 15.8605C106.302 16.1263 106.008 16.6581 106.549 17.0635C106.764 17.2248 107.037 17.1333 107.261 17.0068C107.56 16.8412 107.754 16.523 108.097 16.7453C108.268 16.8586 108.365 17.1027 108.449 17.3512C108.163 17.4166 107.912 17.6912 107.631 17.7915C107.398 17.8743 107.151 17.6345 106.931 17.5648C106.689 17.4863 106.465 17.543 106.228 17.6084C105.348 17.8394 104.812 16.4533 103.936 16.6669C103.901 16.6756 103.901 16.7497 103.936 16.7584C104.363 16.863 104.658 17.0766 105.009 17.3861C105.326 17.665 105.643 17.8961 106.034 17.9266C106.285 17.944 106.522 17.8045 106.773 17.8612C107.015 17.9135 107.226 18.1227 107.472 18.1358C107.974 18.1663 108.273 17.6476 108.563 17.6825C108.581 17.7261 109.161 18.624 109.962 18.5804L109.97 24.1729C109.816 24.2601 109.531 24.4344 109.407 24.6219C109.306 23.8678 108.726 23.2401 108.374 22.4991C108.194 22.1199 108.611 21.9193 108.981 21.7145C109.223 21.5837 109.416 21.2612 109.271 20.9255C109.258 20.8994 109.218 20.9037 109.218 20.9342C109.196 21.5706 108.717 21.6142 108.581 21.697C108.413 21.7973 108.264 21.9368 108.194 22.1242C108.07 21.8845 107.934 21.6622 107.851 21.3963C107.745 21.065 107.745 20.6989 107.71 20.3501C107.701 20.263 107.609 20.263 107.6 20.3501C107.569 20.6727 107.569 20.9822 107.622 21.3004C107.648 21.466 107.697 21.6142 107.758 21.7537C107.49 21.6622 107.134 21.7188 106.918 21.7014C106.619 21.6752 106.324 21.4355 106.043 21.3265C105.331 21.0476 104.622 21.3047 103.343 20.9386C102.533 20.7076 102.344 19.9186 101.94 19.984C101.909 19.9883 101.909 20.0494 101.94 20.0581C102.287 20.1758 102.679 20.8906 103.25 21.0955C104.284 21.4704 105.177 21.2917 105.999 21.527C106.263 21.6011 106.478 21.867 106.742 21.9193C107.107 21.9934 107.758 21.8147 107.978 22.207C107.982 22.2201 108.277 22.9045 108.523 23.4319C108.352 23.3578 108.088 23.2924 107.89 23.288C107.472 23.275 107.116 23.6498 106.72 23.7675C106.368 23.8721 106.012 23.5191 105.66 23.4929C105.207 23.458 104.785 23.8721 104.337 23.9419C104.293 23.9462 104.275 24.0378 104.323 24.0465C104.684 24.1119 105.014 23.8678 105.348 23.7457C105.783 23.5888 106.091 23.9288 106.496 24.0203C106.861 24.1032 107.2 23.8198 107.525 23.6586C107.916 23.4668 108.286 23.6237 108.638 23.8286C108.928 24.1032 109.047 24.5303 109.086 25.1232C109.108 25.4457 109.091 25.7726 109.157 26.0865C109.24 26.4962 109.794 27.3985 109.966 27.6644V29.5257C109.764 29.3339 108.734 28.6887 107.855 28.51C107.332 28.4054 106.799 28.5318 106.28 28.5754C105.827 28.6146 105.546 28.3052 105.15 28.1047C104.631 27.8388 103.725 28.5231 103.716 28.5231C103.193 28.449 103.052 27.7908 102.674 27.4377C102.67 27.4334 102.595 27.2459 102.806 26.9321C102.995 26.6488 103.123 25.9601 103.127 25.5808C103.127 25.4631 103.048 25.4719 103.039 25.5852C103.026 25.8337 102.872 26.3654 102.863 26.4003C102.727 26.2913 102.525 26.1998 102.388 26.0865C102.054 25.8162 102.133 25.4196 102.16 24.9706C102.16 24.9226 102.102 24.9314 102.089 24.9706C101.997 25.2888 101.988 25.7116 102.116 26.0124C102.248 26.3175 102.551 26.396 102.758 26.5921C102.723 26.8231 102.463 27.0236 102.459 27.3113C102.296 27.259 102.12 27.2765 101.953 27.2852C101.496 27.307 101.117 27.3288 100.691 27.0803C100.647 27.0542 100.59 27.1283 100.634 27.1718C100.889 27.4377 101.205 27.5031 101.531 27.5162C101.825 27.5293 102.212 27.4116 102.489 27.5772C102.705 27.7472 102.907 28.1875 103.057 28.4141C103.149 28.5536 103.255 28.6582 103.378 28.7323C103.004 28.9416 102.63 29.1159 102.204 29.1857C101.997 29.2205 101.786 29.2423 101.588 29.299C101.082 28.8457 100.418 28.9241 99.8243 28.8762C99.4329 28.8413 99.1426 28.6887 98.8436 28.3705C98.6149 28.1221 98.3862 27.8736 98.0651 27.9216C98.0256 27.9259 98.0256 27.9957 98.0651 28C98.4698 28.0393 98.7248 28.4534 99.0283 28.7411C99.0723 28.7846 97.6649 29.2685 97.1636 28.9503C97.1636 28.9503 97.1592 28.9503 97.1592 28.9546C97.2032 29.3077 97.8233 29.1857 98.008 29.1639L97.9948 29.1421ZM109.838 26.5354C109.702 26.3044 109.57 26.069 109.509 25.7901C109.447 25.5242 109.447 25.2583 109.438 24.988C109.443 24.988 109.702 24.5783 109.944 24.5434V26.7272C109.913 26.6618 109.878 26.5965 109.838 26.5354ZM104.499 28.8064C104.627 28.6059 104.904 28.4272 105.159 28.497C105.396 28.6103 105.621 28.8457 105.863 28.9285C106.338 29.0898 106.896 28.8762 107.38 28.8675C107.873 28.8544 109.056 29.2205 109.957 30.0705V31.8184C109.957 31.8184 109.196 30.1446 107.982 30.1098C107.679 30.101 105.801 30.1839 105.388 29.7392C105.273 29.6172 105.071 29.2075 104.354 29.2816C104.376 29.1116 104.411 28.9503 104.499 28.8108V28.8064Z" fill="#5B8338"/>
<path d="M210.168 46.4643H209.244V45.9849H211.623V46.4643H210.7V48.9664H210.163V46.4643H210.168Z" fill="#231F20"/>
<path d="M212.002 45.9849H212.82L213.625 48.0728L214.438 45.9849H215.248V48.9664H214.737V46.4905H214.729L213.814 48.9664H213.44L212.525 46.4905H212.517V48.9664H212.006V45.9849H212.002Z" fill="#231F20"/>
<path d="M72.7022 94.2597C72.7022 96.0207 72.9309 96.3476 74.8088 96.2866V96.8402H68.4846V96.2866C70.2218 96.3476 70.4065 95.8769 70.4065 94.5256V86.309C70.4065 84.9796 70.1778 84.6483 68.4846 84.6483V84.0947C68.9596 84.0947 70.0151 84.0119 71.44 83.9509C72.5351 83.9116 73.5466 83.9116 73.96 83.9116C78.1337 83.9116 79.563 85.7162 79.563 87.5775C79.563 89.0944 78.6966 90.2015 76.9594 90.9164C77.2893 91.1431 78.1776 92.0018 78.5075 92.3287L79.8532 93.6582C81.6916 95.4802 83.0989 96.2997 84.8141 96.4871V97.0625C80.7416 97.1627 79.7301 96.4479 77.8698 94.604L76.7747 93.5187C75.7192 92.4725 75.4113 92.1892 74.5406 91.5528C73.9424 91.592 73.2388 91.6138 72.7022 91.5528V94.2553V94.2597ZM72.7022 90.9818C72.8474 91.0036 73.2388 91.0428 73.3619 91.0428C76.1106 90.9208 77.0606 89.8746 77.0606 87.7867C77.0606 85.6988 75.9435 84.487 73.6918 84.487C73.3795 84.487 72.8869 84.5262 72.6978 84.5698V90.9818H72.7022Z" fill="white"/>
<path d="M91.6749 94.8136C90.6414 96.348 89.278 97.0672 87.4793 97.0672C84.5854 97.0672 83.6355 94.8529 83.6355 92.948C83.6355 90.2847 85.4342 88.3799 87.9147 88.3799C89.0317 88.3799 89.9201 88.7504 90.4787 89.2996C91.4286 90.2411 91.0592 91.2045 91.7804 91.5139V92.0893H85.6014C85.6014 94.3647 86.8636 95.8772 88.6799 95.8772C89.5683 95.8772 90.4171 95.4065 91.2835 94.4431L91.6749 94.8136ZM89.4012 91.5139C89.234 89.814 88.6139 88.9335 87.5628 88.9335C86.5117 88.9335 85.8081 89.7922 85.6014 91.5139H89.4056H89.4012Z" fill="white"/>
<path d="M101.165 95.7944C100.194 96.6531 99.4063 97.0629 98.7246 97.0629C97.9374 97.0629 97.546 96.6313 97.568 95.7944C96.5741 96.5529 96.3498 97.0629 95.1271 97.0629C93.9045 97.0629 92.9766 96.2434 92.9766 95.097C92.9766 94.5216 93.1613 94.0334 93.5131 93.6847C93.9265 93.275 94.5466 93.0701 95.2679 92.8652C95.9935 92.6385 96.7984 92.3944 97.5636 91.8627V91.2088C97.5636 89.7747 97.1282 89.1383 96.1563 89.1383C95.5142 89.1383 94.9996 89.5263 94.9996 89.997C94.9996 90.1801 95.1008 90.4286 95.2063 90.6117L93.324 91.3701C93.1393 91.126 93.0777 90.9211 93.0777 90.7337C93.0777 89.7312 94.9996 88.3799 96.8203 88.3799C98.5135 88.3799 99.5295 89.1994 99.5295 90.6727V95.2626C99.5295 95.6942 99.6526 95.96 99.9649 95.96C100.211 95.96 100.545 95.7944 100.976 95.4283L101.161 95.7988L101.165 95.7944ZM97.568 92.4555C95.3558 93.7457 95.048 93.8678 95.048 94.8921C95.048 95.6113 95.4394 96.0995 96.0199 96.0995C96.3278 96.0995 96.5345 95.9775 96.7632 95.8118C96.9699 95.6462 97.137 95.5242 97.568 95.2365V92.4511V92.4555Z" fill="white"/>
<path d="M101.456 83.9554L104.411 83.0967H105.009V94.8135C105.009 95.9816 105.321 96.3304 106.579 96.3304V96.8403H101.451V96.3304C102.753 96.3304 103.043 95.9206 103.043 94.6696V85.76C103.043 84.8185 102.96 84.5918 101.451 84.4697V83.9597L101.456 83.9554Z" fill="white"/>
<path d="M113.92 96.8407V96.2871C115.596 96.2871 116.009 96.0212 116.009 94.8748V86.0436C116.009 84.6924 115.327 84.6488 113.92 84.6488V84.0952H124.484L124.668 87.1682H124.11L124.009 86.7367C123.595 85.0585 123.266 85.0149 121.942 85.0149H118.305V89.788H121.506C122.707 89.788 122.931 89.6441 123.054 88.2318H123.613V92.351H123.054C122.909 90.8951 122.641 90.712 121.506 90.712H118.305V94.4389C118.305 95.7074 118.472 95.9122 119.523 95.9122H121.819C123.908 95.9122 124.321 95.6245 124.88 93.6194H125.438L125.126 96.8363H113.924L113.92 96.8407Z" fill="white"/>
<path d="M126.63 94.4823H127.105C127.351 95.7115 128.178 96.5092 129.194 96.5092C129.92 96.5092 130.434 96.0603 130.434 95.3846C130.434 93.7849 126.674 92.8652 126.674 90.7119C126.674 89.3606 127.914 88.3755 129.59 88.3755C130.148 88.3755 130.746 88.4583 131.512 88.6632V90.9167H131.059C130.79 89.6875 130.192 89.0119 129.343 89.0119C128.745 89.0119 128.27 89.4216 128.27 89.9752C128.27 91.5749 132.092 92.146 132.092 94.6654C132.092 96.0167 130.83 97.0628 129.22 97.0628C128.829 97.0628 128.539 97.0236 128.288 96.98C128.059 96.9408 127.896 96.8972 127.729 96.8972C127.562 96.8972 127.378 96.98 127.338 97.0802H126.903L126.634 94.478L126.63 94.4823Z" fill="white"/>
<path d="M139.299 95.3452C138.701 96.6572 137.729 97.0669 136.718 97.0669C135.333 97.0669 134.343 96.2474 134.343 94.3818V89.6698H133.415V89.2819C134.677 88.6281 135.398 87.704 135.812 86.3135H136.309V88.6063H139.304L138.851 89.6698H136.309V94.1377C136.309 95.1621 136.621 96.0208 137.527 96.0208C138.108 96.0208 138.455 95.7331 138.851 94.9964L139.304 95.3452H139.299Z" fill="white"/>
<path d="M148.478 95.7944C147.506 96.6531 146.719 97.0629 146.037 97.0629C145.25 97.0629 144.858 96.6313 144.88 95.7944C143.887 96.5529 143.662 97.0629 142.44 97.0629C141.217 97.0629 140.289 96.2434 140.289 95.097C140.289 94.5216 140.474 94.0334 140.826 93.6847C141.239 93.275 141.859 93.0701 142.58 92.8652C143.306 92.6385 144.111 92.3944 144.876 91.8627V91.2088C144.876 89.7747 144.441 89.1383 143.469 89.1383C142.827 89.1383 142.312 89.5263 142.312 89.997C142.312 90.1801 142.413 90.4286 142.519 90.6117L140.636 91.3701C140.452 91.126 140.39 90.9211 140.39 90.7337C140.39 89.7312 142.312 88.3799 144.133 88.3799C145.826 88.3799 146.842 89.1994 146.842 90.6727V95.2626C146.842 95.6942 146.965 95.96 147.277 95.96C147.524 95.96 147.858 95.7944 148.289 95.4283L148.474 95.7988L148.478 95.7944ZM144.88 92.4555C142.668 93.7457 142.36 93.8678 142.36 94.8921C142.36 95.6113 142.752 96.0995 143.332 96.0995C143.64 96.0995 143.847 95.9775 144.076 95.8118C144.282 95.6462 144.449 95.5242 144.88 95.2365V92.4511V92.4555Z" fill="white"/>
<path d="M154.969 95.3452C154.371 96.6572 153.399 97.0669 152.388 97.0669C151.002 97.0669 150.013 96.2474 150.013 94.3818V89.6698H149.085V89.2819C150.347 88.6281 151.068 87.704 151.482 86.3135H151.979V88.6063H154.974L154.521 89.6698H151.979V94.1377C151.979 95.1621 152.291 96.0208 153.197 96.0208C153.778 96.0208 154.125 95.7331 154.521 94.9964L154.974 95.3452H154.969Z" fill="white"/>
<path d="M163.524 94.8136C162.49 96.348 161.127 97.0672 159.328 97.0672C156.434 97.0672 155.484 94.8529 155.484 92.948C155.484 90.2847 157.283 88.3799 159.763 88.3799C160.88 88.3799 161.769 88.7504 162.327 89.2996C163.277 90.2411 162.908 91.2045 163.629 91.5139V92.0893H157.45C157.45 94.3647 158.712 95.8772 160.529 95.8772C161.417 95.8772 162.266 95.4065 163.132 94.4431L163.524 94.8136ZM161.25 91.5139C161.083 89.814 160.463 88.9335 159.411 88.9335C158.36 88.9335 157.657 89.7922 157.45 91.5139H161.254H161.25Z" fill="white"/>
<defs>
<linearGradient id="paint0_linear_4058_18783" x1="117.654" y1="6.85062" x2="117.654" y2="45.9196" gradientUnits="userSpaceOnUse">
<stop stop-color="#CFE0D8"/>
<stop offset="0.12" stop-color="#D4E3DC"/>
<stop offset="0.27" stop-color="#E4EDE9"/>
<stop offset="0.44" stop-color="white"/>
<stop offset="0.5" stop-color="#FDFDF8"/>
<stop offset="0.57" stop-color="#F9F7E7"/>
<stop offset="0.66" stop-color="#F2EECB"/>
<stop offset="0.75" stop-color="#E8E1A4"/>
<stop offset="0.85" stop-color="#DBD273"/>
<stop offset="0.86" stop-color="#DBD170"/>
</linearGradient>
</defs>
</svg>
