<svg width="163" height="72" viewBox="0 0 163 72" fill="none" xmlns="http://www.w3.org/2000/svg">
<g clip-path="url(#clip0_4174_932)">
<path d="M5.60172 33.9946C4.22915 31.013 3.63948 30.6998 0.661133 30.6998V29.6404H12.0348V30.6998C10.0359 30.7797 9.48623 31.013 9.48623 31.9924C9.48623 32.7387 10.2325 34.501 10.7788 35.6404L17.6017 50.1123L21.7194 41.6037L18.1114 33.9946C16.6223 30.8164 16.2691 30.6598 13.6806 30.6998V29.6404H32.0737V30.6998C29.3685 30.7398 28.9754 31.0529 27.5262 33.9946L24.9776 39.0918L30.2713 49.9957L37.0542 33.7981C37.524 32.6987 37.6439 32.189 37.6439 31.8758C37.6439 31.013 36.8977 30.6998 34.7822 30.6998V29.6404H43.2541V30.6998C41.0587 30.7398 40.3924 30.8564 38.7033 34.8975L30.4279 54.6631H27.9193L22.7822 43.8392L17.6051 54.6631H15.1731L5.60505 33.9946H5.60172ZM25.9171 32.7387C26.2303 32.1123 26.3469 31.6792 26.3469 31.4061C26.3469 30.8964 25.9537 30.6998 24.6611 30.6998H23.2086C21.836 30.6998 21.4829 30.8564 21.4829 31.3661C21.4829 31.7592 21.6395 32.2289 22.0726 33.1318L23.9149 36.8964L25.9138 32.7387H25.9171Z" fill="#1B5633"/>
<path d="M52.5723 50.3922C50.61 53.3339 48.0215 54.7064 44.61 54.7064C39.1197 54.7064 37.3141 50.4721 37.3141 46.8241C37.3141 41.727 40.7255 38.079 45.4329 38.079C47.5517 38.079 49.2375 38.7853 50.2969 39.8447C52.0992 41.647 51.3963 43.4927 52.7688 44.079V45.1784H41.042C41.042 49.5326 43.434 52.4344 46.8854 52.4344C48.5712 52.4344 50.1803 51.5315 51.826 49.6892L52.5723 50.3955V50.3922ZM48.258 44.079C47.9448 40.8241 46.7688 39.1384 44.7666 39.1384C42.7644 39.1384 41.4318 40.7842 41.042 44.079H48.258Z" fill="#1B5633"/>
<path d="M54.1014 49.7658H55.0042C55.474 52.1179 57.0431 53.647 58.9654 53.647C60.3379 53.647 61.3174 52.7842 61.3174 51.4915C61.3174 48.4332 54.1814 46.6676 54.1814 42.5498C54.1814 39.9613 56.5334 38.079 59.7116 38.079C60.771 38.079 61.9071 38.2356 63.3596 38.6287V42.943H62.4967C61.987 40.5909 60.851 39.295 59.2419 39.295C58.1058 39.295 57.203 40.0779 57.203 41.1373C57.203 44.1956 64.459 45.295 64.459 50.119C64.459 52.7075 62.067 54.7064 59.0087 54.7064C58.2624 54.7064 57.7161 54.6265 57.243 54.5498C56.8132 54.4699 56.4967 54.3933 56.1836 54.3933C55.8704 54.3933 55.5173 54.5498 55.4373 54.7464H54.6145L54.1047 49.7658H54.1014Z" fill="#1B5633"/>
<path d="M76.9687 51.4116C75.8326 53.9202 73.987 54.7064 72.068 54.7064C69.4395 54.7064 67.5572 53.1373 67.5572 49.5693V40.551H65.7915V39.8047C68.1835 38.5488 69.5561 36.7864 70.3423 34.1179H71.2852V38.5088H76.972L76.1091 40.5476H71.2852V49.0962C71.2852 51.0585 71.8748 52.7042 73.5972 52.7042C74.6966 52.7042 75.3629 52.1545 76.1058 50.742L76.9687 51.4083V51.4116Z" fill="#1B5633"/>
<path d="M92.8099 50.3922C90.8477 53.3339 88.2625 54.7064 84.8477 54.7064C79.3574 54.7064 77.5551 50.4721 77.5551 46.8241C77.5551 41.727 80.9665 38.079 85.6739 38.079C87.7927 38.079 89.4785 38.7853 90.5379 39.8447C92.3435 41.647 91.6373 43.4927 93.0098 44.079V45.1784H81.283C81.283 49.5326 83.675 52.4344 87.1264 52.4344C88.8122 52.4344 90.4213 51.5315 92.067 49.6892L92.8133 50.3955L92.8099 50.3922ZM88.4957 44.079C88.1825 40.8241 87.0065 39.1384 85.0043 39.1384C83.0021 39.1384 81.6695 40.7842 81.2797 44.079H88.4957Z" fill="#1B5633"/>
<path d="M93.7928 40.5876V39.8047L99.1665 38.079H100.146V42.0002H100.226C101.755 39.0984 102.658 38.079 103.717 38.079C104.307 38.079 105.05 38.5887 107.402 39.0585L106.109 42.2733C104.344 41.9202 103.208 41.1739 102.698 41.1739C101.795 41.1739 100.972 41.9968 100.149 43.6826V50.1923C100.149 53.0174 100.856 53.3305 104.07 53.2905V54.27H93.7962V53.2905C95.5985 53.2905 96.4247 52.6642 96.4247 50.3488V41.5637L93.7962 40.5843L93.7928 40.5876Z" fill="#1B5633"/>
<path d="M110.137 41.767C109.391 40.0413 108.881 39.5715 107.155 39.4916V38.5121H116.334V39.4916C114.411 39.5715 113.785 39.8447 113.785 40.591C113.785 40.9041 113.942 41.3372 114.375 42.3167L117.906 50.5521L121.277 42.9063C121.631 42.1234 121.787 41.5338 121.787 41.104C121.787 40.0846 120.884 39.5748 119.042 39.4949V38.5154H126.375V39.4949C124.572 39.6515 124.023 40.1612 122.807 42.9063L117.59 54.7098H115.864L110.137 41.767Z" fill="#1B5633"/>
<path d="M140.643 50.3922C138.681 53.3339 136.093 54.7064 132.681 54.7064C127.191 54.7064 125.385 50.4721 125.385 46.8241C125.385 41.727 128.797 38.079 133.504 38.079C135.623 38.079 137.309 38.7853 138.368 39.8447C140.17 41.647 139.467 43.4927 140.84 44.079V45.1784H129.113C129.113 49.5326 131.505 52.4344 134.957 52.4344C136.642 52.4344 138.251 51.5315 139.897 49.6892L140.643 50.3955V50.3922ZM136.329 44.079C136.016 40.8241 134.84 39.1384 132.838 39.1384C130.835 39.1384 129.503 40.7842 129.113 44.079H136.329Z" fill="#1B5633"/>
<path d="M140.986 29.6071L146.593 27.9613H147.489V50.3922C147.733 52.6276 148.319 53.2939 150.711 53.2939V54.2734H140.986V53.2939C143.458 53.2939 144.005 52.511 144.005 50.119V33.0585C144.005 31.2561 143.848 30.8231 140.986 30.5865V29.6071Z" fill="#1B5633"/>
<path d="M161.961 51.4116C160.825 53.9202 158.98 54.7064 157.061 54.7064C154.432 54.7064 152.55 53.1373 152.55 49.5693V40.551H150.784V39.8047C153.176 38.5488 154.549 36.7864 155.335 34.1179H156.278V38.5088H161.965L161.102 40.5476H156.278V49.0962C156.278 51.0585 156.868 52.7042 158.59 52.7042C159.689 52.7042 160.356 52.1545 161.099 50.742L161.961 51.4083V51.4116Z" fill="#1B5633"/>
<path d="M11.3151 58.4344V58.9341H108.584H161.965V58.4344H11.3151Z" fill="#231F20"/>
<path d="M111.839 32.9019C111.879 32.3455 111.899 31.7825 111.899 31.2162C111.899 18.1468 101.239 7.54931 88.0859 7.54931C87.5795 7.54931 87.0798 7.56597 86.5834 7.59929L86.6067 7.3361L86.2869 5.60373L85.2475 4.3944L83.8216 3.85803L81.2464 3.04515L79.9871 3.44493L79.4074 4.06458L79.3374 5.08402L79.6273 5.67702L80.027 6.09346L79.7672 6.25337L80.0304 6.43327C80.0304 6.43327 80.0404 6.56653 80.2869 6.81972L79.1709 7.28613L78.398 7.80917L78.1814 8.13566L76.9854 8.24893L75.976 8.37219L75.5329 8.57541V9.16175L76.3224 9.07513L77.082 9.63815L77.2886 10.1212C69.5629 14.0324 64.2691 22.0113 64.2691 31.2228C64.2691 31.7892 64.2891 32.3522 64.3291 32.9086H111.833L111.839 32.9019Z" fill="url(#paint0_linear_4174_932)"/>
<path d="M91.2774 24.7231C91.3174 24.4766 92.1569 24.5566 91.9204 24.2101C91.8305 24.0768 91.6739 24.1601 91.5739 24.0802C91.4973 24.0169 91.6639 23.8003 91.3741 23.7237C91.2941 23.7037 91.1142 23.7237 91.2108 23.5704C91.2974 23.4305 91.6439 23.5704 92.007 23.2906C92.1669 23.1673 92.0337 23.0707 92.1136 22.9108C92.1736 22.7875 92.3568 22.8608 92.3868 22.7242C92.4601 22.3778 92.0237 22.4577 91.9004 22.4211C91.7838 22.3844 91.6672 22.2512 91.6972 22.0846C91.7572 21.7814 92.1536 21.8914 92.3035 21.6948C92.3768 21.5982 92.3169 21.4816 92.3368 21.3683C92.4701 21.305 92.5334 21.1984 92.5334 21.1018C92.5334 20.8453 92.2302 20.9386 92.1036 20.9186C92.0237 20.9052 91.9904 20.8286 91.9237 20.7953C91.6639 20.6654 91.3874 21.265 91.2141 20.9386C91.1175 20.7553 90.941 20.8819 90.9643 20.6254C91.0142 20.1057 90.3346 20.5155 90.0048 20.2923C89.8815 20.209 89.7949 20.1223 89.8749 19.9391C89.9648 19.7326 90.1581 19.7925 90.3046 19.7226C90.4812 19.6393 90.3446 19.4927 90.4246 19.3628C90.5045 19.2328 91.0309 19.3128 90.8643 18.9263C90.6411 18.4066 90.0181 18.6632 89.7683 18.873C89.5217 19.0829 89.595 18.6165 89.2419 18.6132C88.8321 18.6099 88.7522 18.4499 88.5856 18.1934C88.2824 17.7203 87.7028 17.8669 87.4229 17.8536C87.0898 17.8369 86.8732 17.3739 87.3896 17.2706C87.6161 17.224 87.3863 16.9574 87.5462 16.9008C88.0559 16.7176 88.0992 17.6171 88.7022 17.4672C88.9254 17.4105 88.9287 17.797 89.6817 17.6904C90.218 17.6137 89.8815 17.3605 90.2114 17.3406C90.3046 17.3339 90.3979 17.3106 90.3646 17.1673C90.198 16.4744 88.7922 17.1207 88.6556 16.6943C88.529 16.3011 89.0253 16.5976 88.9521 16.2212C88.8988 15.948 88.509 16.0046 88.3724 16.0046C88.1492 16.0046 87.1531 15.988 87.3629 15.5349C87.4795 15.285 87.7594 15.2984 87.9493 15.3183C88.3191 15.355 88.3124 15.1118 88.6322 15.2351C88.7622 15.285 88.8721 15.3816 89.0187 15.3117C89.1819 15.2317 89.3652 15.0318 89.5351 15.1818C89.7649 15.3883 89.9515 15.275 90.1581 15.3783C90.4079 15.5049 90.4346 15.908 90.8543 15.9313C90.9476 15.938 91.1742 15.898 91.1642 15.7248C91.1542 15.5516 90.9176 15.5149 91.0476 15.4016C91.2075 15.2617 91.4407 15.3717 91.6039 15.3816C91.7405 15.3883 91.9704 15.365 92.0603 15.2217C92.1203 15.1251 92.0137 14.8886 92.3202 14.832C92.5767 14.7853 92.65 14.6387 92.5934 14.5221C92.4668 14.2689 92.1636 14.3722 92.137 14.2889C91.9271 13.6826 91.2874 13.8425 91.0942 13.8492C90.7777 13.8592 90.6944 13.4427 90.9476 13.3794C91.3507 13.2795 91.0809 12.943 91.6239 12.9363C91.7938 12.9363 91.9371 12.6298 91.5306 12.4966C91.454 12.4733 91.5306 12.35 91.444 12.2267C91.1542 11.8036 90.5878 12.0335 90.7078 11.5671C90.7544 11.3905 91.0276 11.2972 90.9076 11.0674C90.8244 10.9075 90.6544 10.9774 90.5545 10.8808C90.4845 10.8142 90.5778 10.5976 90.1581 10.5577C90.0015 10.541 89.8182 10.4744 89.7783 10.2445C89.7183 9.89136 89.5484 9.79808 89.2852 9.74145C89.1586 9.71479 89.042 9.73145 88.9887 9.56155C88.9421 9.41829 89.0087 9.25505 89.1386 9.2284C89.2586 9.20175 89.4285 9.26838 89.5184 9.13512C89.665 8.91524 89.4085 8.78198 89.4051 8.58209C89.4051 8.41885 89.5751 8.36888 89.605 8.22229C89.635 8.07904 89.5451 7.96577 89.4418 7.92579C89.3219 7.87915 89.1786 7.92912 89.1286 7.75255C89.1053 7.66926 89.122 7.4294 88.7488 7.41607C88.5856 7.40941 88.5423 7.22285 88.2558 7.43273C88.1159 7.53601 87.8926 7.57931 87.8393 7.32279C87.7461 6.89636 87.3396 7.10624 87.3996 6.83306C87.4329 6.67315 87.5395 6.65649 87.6494 6.64317C88.1225 6.5932 87.9493 6.14345 87.8393 6.02351C87.6128 5.77365 88.0292 5.82695 88.1825 5.59375C88.2924 5.42384 88.3324 5.07737 87.7194 5.01074C87.5628 4.99408 87.5762 4.77754 87.5195 4.71757C87.2797 4.4777 86.9732 4.82751 86.8599 4.84084C86.6966 4.86082 86.64 4.75089 86.5134 4.66427C86.3069 4.52434 85.997 4.85749 85.8438 4.65094C85.6539 4.39109 85.997 4.27115 85.9937 4.05794C85.9837 3.53489 85.1209 3.83806 85.0142 3.8214C84.7011 3.77809 84.7211 3.60486 84.5245 3.60819C84.3913 3.60819 84.1547 3.69147 84.1147 3.44828C84.0714 3.19175 84.5145 3.27504 84.5678 3.07848C84.6511 2.78198 84.3113 2.81529 84.3246 2.46549C84.3446 2.01574 83.7583 2.26893 83.6717 2.29558C83.5217 2.34222 83.3618 2.22562 83.5084 2.05238C83.595 1.94911 83.7116 1.8958 83.6217 1.72923C83.5584 1.61263 83.4651 1.48936 83.5917 1.35944C83.665 1.27948 83.8249 1.22951 83.7783 1.03295C83.7383 0.856382 83.5251 0.873039 83.4251 0.836393C83.2952 0.786421 83.4684 0.573206 82.8488 0.519902C82.6989 0.506576 82.8588 0.0435003 82.3224 0.0235114C82.1558 0.0168484 82.0892 0.116793 81.9693 0.143445C81.5928 0.226732 81.6728 0.406632 81.5695 0.459936C81.4762 0.506576 81.1197 0.456604 80.9698 0.693139C80.9099 0.786421 80.9199 0.889697 80.9099 0.996304C80.8466 1.14289 80.3502 1.29947 80.6433 1.60263C80.72 1.68259 80.4968 1.61929 80.4101 1.63262C80.1636 1.67593 80.3368 1.87582 80.0104 1.84583C79.6872 1.81585 79.8938 1.93245 79.534 1.89247C79.4007 1.87582 79.1742 2.0757 79.2175 2.27559C79.2475 2.41552 79.3541 2.37887 79.2308 2.49547C79.2108 2.51546 79.0609 2.47215 78.9643 2.64872C78.8643 2.82862 78.841 2.79864 78.7377 2.83861C78.268 3.02851 78.7111 3.2917 78.7311 3.345C78.7677 3.44828 78.3046 3.50491 78.5845 3.96466C78.6511 4.07459 78.811 4.03128 78.871 4.16788C78.9443 4.34111 78.841 4.40441 78.7544 4.50436C78.6478 4.62429 78.7377 4.77754 78.6678 4.9008C78.6045 5.01407 78.4546 4.92412 78.3579 4.93079C78.198 4.94411 78.0514 4.96077 78.0348 5.14733C77.4151 5.2606 77.6383 5.72368 77.8949 5.68703C77.9049 5.8003 77.8749 5.89358 77.9415 5.97687C78.0381 6.0968 78.2913 6.1068 78.3879 5.97687C78.4379 5.91357 78.4179 5.79697 78.4745 5.73367C78.5712 5.62707 78.7011 5.75033 78.8077 5.66371C78.881 5.60374 78.8843 5.49047 78.9543 5.44383C79.1708 5.29392 79.2774 5.61707 79.2974 5.77365C79.3307 6.02018 79.8638 6.01352 79.6639 6.16677C79.4207 6.35333 79.6472 6.4666 79.7772 6.44661C79.8971 6.42662 79.9537 6.66982 79.7871 6.71646C79.6739 6.74977 79.544 6.72979 79.434 6.72645C79.3307 6.72645 79.3174 6.76976 79.2375 6.82307C79.0609 6.94633 78.9743 6.78309 78.8044 6.7631C78.6944 6.74977 78.5778 6.73978 78.4712 6.7631C78.298 6.79975 78.3413 6.96632 78.208 7.07626C78.0848 7.17954 77.8849 7.05627 77.7416 7.10624C77.6383 7.14289 77.4884 7.18287 77.4118 7.28614C77.1719 7.61929 77.585 7.536 77.6184 7.73922C77.6617 8.00908 77.0953 7.75921 77.0353 7.73589C76.9187 7.69258 76.2591 7.52601 76.1692 7.82917C76.1259 7.97576 76.2758 8.01907 76.1991 8.09903C75.9893 8.19897 75.896 8.09236 75.7527 8.05238C75.3463 7.93911 75.3729 8.17232 75.3863 8.20563C75.2663 8.25561 74.7599 8.19897 74.8132 8.54211C74.6867 8.55877 74.5434 8.50214 74.4668 8.67537C74.3968 8.83195 74.4035 9.01185 74.5201 9.10846C74.6333 9.20175 74.7866 9.18509 74.8999 9.24839C74.9998 9.30502 75.0564 9.53489 74.9465 9.62151C74.8299 9.7148 74.6334 9.66482 74.4968 9.68481C74.2636 9.71813 74.2302 9.93134 74.1869 9.99464C74.0903 10.1346 73.8871 10.0613 73.7672 10.1279C73.6372 10.1979 73.5306 10.3878 73.6439 10.5377C73.7438 10.6643 73.9337 10.591 74.0204 10.7309C74.0603 10.8009 74.0137 11.0407 74.2636 11.1207C74.4634 11.1873 74.5267 11.0207 74.3935 10.8442C74.4801 10.6243 74.8166 10.7209 74.8466 10.9541C74.8632 11.0974 74.7766 11.164 74.9199 11.2606C74.9931 11.3106 75.2264 11.3905 75.1997 11.184C75.283 11.1373 75.3929 11.2173 75.4696 11.1473C75.5428 11.0807 75.5129 10.9641 75.5262 10.8675C75.7294 10.6343 75.7061 11.1107 76.2258 11.1107C76.499 11.1107 76.8988 11.2806 76.6855 11.4572C76.6222 11.5105 76.2191 11.5305 76.3524 11.8769C76.4024 12.0069 76.5956 12.1634 76.4557 12.3C76.3424 12.4133 76.1592 12.3067 76.0292 12.3367C75.9393 12.36 75.8926 12.3966 75.846 12.4966C75.786 12.6198 75.8027 12.6632 75.6728 12.6332C75.5495 12.6065 75.323 12.4599 75.2197 12.6465C75.1664 12.7464 75.2197 12.8197 75.1197 12.8764C74.9865 12.9497 74.8199 12.953 74.8532 13.2029C74.8666 13.3095 74.9332 13.4827 74.8366 13.4694C74.4801 13.4194 74.5534 13.8025 74.2835 13.7659C74.1403 13.7459 73.9437 13.6093 73.8771 13.8825C73.7338 13.9658 73.5806 13.8625 73.454 14.0057C73.3674 14.1057 73.4007 14.2789 73.514 14.3222C73.6206 14.3655 73.7338 14.2623 73.8505 14.3356C73.6872 14.7287 74.1003 14.7153 74.2402 14.6987C74.2902 14.692 74.6467 14.692 74.5134 14.8453C74.4235 14.9519 74.097 14.9252 74.0537 15.0552C73.9937 15.2351 74.1936 15.3583 74.5001 15.305C74.6733 15.275 74.6167 15.4316 74.8066 15.4316C75.1131 15.4316 75.0998 15.1618 75.2097 15.0652C75.3863 14.9186 75.6628 15.1384 75.8527 14.8919C76.0126 14.6854 76.3058 14.8486 76.4124 14.8386C76.5756 14.8253 76.8155 14.7154 76.9421 14.9052C77.2019 15.2884 76.6789 15.2784 76.5156 15.345C76.4423 15.375 76.3058 15.4549 76.2958 15.5682C76.2791 15.7348 76.4923 15.8814 76.1625 15.938C76.0726 15.9547 75.7927 16.0613 75.786 16.2278C75.7827 16.3311 75.9726 16.541 75.6261 16.4677C75.5062 16.4411 75.313 16.2478 75.1897 16.3478C75.0831 16.4344 75.1364 16.5743 74.9698 16.5943C74.6733 16.631 74.4268 16.2911 74.127 16.3344C73.9804 16.3544 73.7372 16.5343 73.8005 16.7642C73.8538 16.9541 74.0137 16.8208 74.1236 16.8908C74.2169 16.9508 74.007 17.164 74.3502 17.184C74.4201 17.1873 74.7633 17.1507 74.65 17.3306C74.61 17.3972 74.2336 17.2606 74.1536 17.5071C74.1203 17.6104 74.1836 17.6404 74.2069 17.727C74.3102 18.0901 73.8804 17.9202 73.7538 17.8836C73.6206 17.8469 73.5306 17.9169 73.414 17.9469C73.1842 18.0069 73.1575 17.8603 73.0276 17.6904C72.9243 17.5538 72.7044 17.4805 72.5778 17.6137C72.4646 17.737 72.5378 17.8403 72.3579 17.837C72.2513 17.837 72.1081 17.8469 72.0614 17.9969C71.9515 18.35 72.5279 18.3167 72.5545 18.6165C72.5945 19.1129 71.8316 18.5999 71.7616 19.0729C71.7516 19.1362 71.8116 19.2628 71.6317 19.2928C71.4618 19.3228 71.2319 19.2228 71.0953 19.3861C70.9554 19.556 71.112 19.6659 71.2352 19.7059C71.4551 19.7759 71.2919 20.0824 71.595 20.149C71.6617 20.1623 71.8449 20.149 71.8016 20.2989C71.3951 20.4122 71.5351 20.802 71.6184 20.8719C71.9049 21.1085 72.1314 20.712 72.2547 20.7853C72.7277 21.0652 73.0709 20.4455 73.3174 20.8586C73.404 21.0019 73.2608 21.1818 73.4373 21.2551C73.534 21.295 73.6939 21.2351 73.7172 21.4083C73.7505 21.6615 73.1142 21.4316 72.9909 21.7081C72.9343 21.8381 73.0276 21.988 72.9709 22.1212C72.8877 22.3245 72.7411 22.2911 72.5912 22.2978C72.4745 22.3045 72.2847 22.3878 72.3046 22.5743C72.0548 22.7542 71.705 22.2278 71.3818 22.5876C71.1953 22.7942 71.4718 22.9908 71.625 23.0074C71.9082 23.0374 71.665 23.2406 71.8049 23.4039C71.9882 23.6171 72.2014 23.4338 72.3446 23.4738C72.8144 23.6037 72.6578 23.204 72.7944 23.1207C73.0942 22.9408 73.5206 23.1906 73.4307 23.5105C73.3541 23.7803 73.394 24.2067 73.6506 24.26C73.9038 24.3134 73.8538 23.727 74.1203 23.9502C74.2869 24.0901 74.1803 24.3333 74.1869 24.5332C74.1936 24.7764 74.3235 24.7698 74.4634 24.7764C74.62 24.7831 74.66 24.9797 74.7966 25.033C74.8932 25.0729 74.9432 25.0696 75.0298 25.0096C75.2463 24.8564 75.4529 25.1229 75.6228 25.0296C75.7994 24.933 75.7161 24.6565 75.5129 24.5532C75.323 24.4566 75.3929 24.2367 75.6395 24.1734C75.7927 24.1335 75.9659 24.2134 76.1858 24.1401C76.5023 24.0335 76.5356 23.7403 76.489 23.3872C76.9587 23.5071 76.8854 22.8342 77.1719 23.1407C77.3418 23.3206 77.2252 23.697 77.4918 23.7603C77.6517 23.797 77.8715 23.8036 77.9348 23.5771C77.9615 23.4771 77.9648 23.3006 78.1847 23.3106C78.2447 23.3106 78.5179 23.3339 78.4479 23.174C78.4013 23.0674 78.2047 23.0674 78.218 22.9108C78.2347 22.7076 78.5045 22.7909 78.5945 22.8608C78.7344 22.9708 78.7477 23.184 78.8743 23.3039C79.0009 23.4272 79.3307 23.3872 79.434 23.2373C79.5073 23.1307 79.494 22.9774 79.6239 22.9974C79.7772 23.0207 80.1136 22.6443 79.7505 22.471C79.5406 22.3711 79.2541 22.6809 79.1542 22.591C79.0909 22.5343 79.0809 22.4144 78.9976 22.3811C78.9043 22.3444 78.7011 22.491 78.6345 22.3544C78.5878 22.2578 78.6778 22.2012 78.6011 22.1146C78.4945 21.9946 78.0881 21.8014 78.0848 22.1446C77.9948 22.1679 77.7749 22.0446 77.665 22.2978C77.605 22.4311 77.3618 22.4111 77.2586 22.3411C77.132 22.2512 77.062 22.0413 76.9321 21.948C76.8055 21.8547 76.409 21.9313 76.3924 22.1579C76.389 22.2245 76.439 22.2945 76.4323 22.3778C76.419 22.6176 76.2458 22.541 76.1092 22.5777C75.936 22.621 75.9793 22.8175 75.8527 22.9075C75.4396 23.2073 76.1358 23.6704 75.4296 23.7337C75.3463 23.7403 75.2197 23.717 75.183 23.6171C74.9398 22.9974 74.1969 23.3139 74.4268 22.9075C74.4868 22.8009 74.6633 22.7842 74.5334 22.611C74.4468 22.4944 74.3069 22.4877 74.2969 22.2911C74.2869 22.0846 74.4301 21.9613 74.5701 21.918C74.8765 21.8247 75.2763 22.0346 75.5595 21.8481C75.6794 21.7714 75.5862 21.6915 75.6628 21.5949C75.7028 21.5449 75.8294 21.5416 75.886 21.5216C76.0792 21.4483 75.9326 21.1351 75.6028 21.2084C75.333 21.2684 75.3263 20.9486 74.9165 21.1218C74.8399 21.1551 74.5667 21.2284 74.5301 21.0851C74.4968 20.9585 74.63 20.9519 74.6533 20.8653C74.7466 20.4988 74.1636 20.6087 74.047 20.6121C73.8271 20.6187 73.8005 20.3356 73.5173 20.3589C73.2908 20.3755 73.3574 20.6121 73.1175 20.6121C73.0209 20.6121 72.901 20.5421 72.9976 20.3156C73.0975 20.079 73.0676 19.8925 72.7244 19.536C72.6878 19.2362 73.2741 19.5793 73.414 19.3161C73.6206 18.9297 73.7438 19.1929 74.0237 19.0463C74.3502 18.8764 74.4301 19.1296 74.64 19.2162C74.9532 19.3428 75.1164 19.013 74.8666 18.8431C74.8932 18.6698 75.5628 18.9796 75.5062 18.5632C75.4662 18.2834 75.1564 18.0135 74.9432 18.0102C74.8366 17.9336 74.6833 17.7603 74.7799 17.5871C74.8865 17.3939 75.3696 17.6237 75.3563 17.2839C75.5595 16.9608 75.7194 17.3506 75.946 17.3672C76.2025 17.3872 76.3624 16.9908 76.6322 17.1173C76.7222 17.1607 76.7555 17.3172 76.8454 17.3872C76.9987 17.5038 77.2053 17.4139 77.3685 17.4638C77.5051 17.5038 77.6916 17.5638 77.6583 17.7936C77.5018 17.8903 77.2719 17.8936 77.1453 18.0602C77.0453 18.1934 77.0453 18.3866 77.132 18.5299C77.2286 18.6965 77.3585 18.7165 77.5117 18.7165C77.745 18.7131 77.7316 19.3161 78.168 19.0063C78.318 18.8997 78.3846 19.1562 78.5445 18.9064C78.6844 18.6898 78.891 18.6432 79.0676 18.6332C79.2308 18.6232 79.4673 18.7931 79.5306 18.4999C79.6172 18.4799 79.9071 18.5665 79.9204 18.4C79.9271 18.3067 79.8005 18.2767 79.8271 18.1768C79.8638 18.0235 80.1703 18.1035 80.2602 18.0835C80.3702 18.0602 80.3868 17.9602 80.4568 17.8736C80.58 17.717 80.9332 17.9369 81.1331 17.7737C81.2563 17.6737 81.1264 17.4672 80.9498 17.4605C80.7333 17.4505 80.6 17.6604 80.3235 17.4538C80.2702 17.4139 79.9371 17.1273 79.8271 17.4238C79.7272 17.6937 79.5906 17.5171 79.5173 17.4838C79.3241 17.3939 79.1109 17.5471 79.1375 17.8103C79.1508 17.9469 79.1542 17.9669 79.0409 18.0268C78.9576 18.0735 78.8543 18.0535 78.7611 18.0868C78.4979 18.1834 78.7844 18.5599 78.5812 18.6232C78.2946 18.7131 78.3579 18.3533 78.1647 18.2667C78.0714 18.2267 77.8815 18.4666 77.7183 18.2367C77.6483 17.9402 78.0514 17.8969 78.1914 17.8969C78.3213 17.8969 78.3546 17.8603 78.4246 17.7403C78.5012 17.6104 78.5445 17.6271 78.6678 17.5838C78.8443 17.5238 79.0376 17.2506 78.8843 17.0441C78.8077 16.9374 78.6078 16.8642 78.7611 16.7742C79.0709 16.601 78.9476 16.2278 78.6111 16.2512C78.3813 16.2645 78.3613 16.0379 78.2813 15.968C78.0148 15.7448 77.6817 16.0446 77.6084 16.0246C77.5284 16.0013 77.5284 15.9014 77.4584 15.878C77.2252 15.7914 76.9454 16.6043 76.7089 16.1812C76.6522 16.0779 76.5923 15.8314 76.7755 15.6748C76.8854 15.5815 77.092 15.5549 77.1486 15.425C77.2053 15.2884 77.1253 15.0652 77.2186 14.9585C77.2852 14.8819 77.6017 15.0552 77.665 14.8453C77.705 14.7154 77.645 14.712 77.6717 14.6154C77.8016 14.5155 78.2847 14.4655 78.308 14.7253C78.3146 14.812 78.2513 14.9152 78.2813 14.9985C78.328 15.1285 78.5012 15.0752 78.5911 15.0885C78.7011 15.1018 78.7211 15.4683 79.394 15.3417C79.494 15.3217 79.7538 15.1185 80.0304 15.1918C80.1569 15.2251 80.6334 15.3217 80.7233 15.1185C80.8499 14.8353 80.3135 14.762 80.1903 14.752C80.0137 14.7387 79.7838 14.7953 79.6106 14.7287C79.4307 14.6587 79.4907 14.4288 79.4373 14.2556C79.384 14.0857 79.2641 14.0524 79.1408 14.0624C78.881 14.0824 78.9576 13.8891 78.941 13.7492C78.8777 13.2262 78.2447 13.606 78.1381 13.596C78.0348 13.5826 78.0614 13.5193 77.9915 13.4327C77.9215 13.3394 77.7416 13.3195 77.6383 13.3761C77.5084 13.4461 77.575 13.616 77.3585 13.596C77.2852 13.5893 76.9187 13.616 76.9554 13.7992C77.0054 14.0657 77.675 13.9624 77.4751 14.3689C77.4151 14.4921 77.1619 14.4022 77.002 14.5588C76.6722 14.8853 76.2824 14.1257 75.916 14.4422C75.7427 14.5921 75.6261 14.4588 75.5562 14.4055C75.3963 14.2856 75.2297 14.4655 75.0664 14.4122C74.9065 14.3622 74.7733 14.0457 74.8865 13.8658C75.0131 13.6693 75.2897 13.8025 75.3929 13.5693C75.4562 13.4194 75.263 13.3594 75.4462 13.1895C75.7061 12.953 75.9926 13.4194 76.2458 13.2162C76.3391 13.1396 76.3824 12.983 76.469 12.8964C76.5956 12.7731 76.7388 12.8097 76.8888 12.7831C77.122 12.7431 77.1053 12.34 76.9521 12.2034C76.8388 12.1035 76.5689 12.0202 76.4923 11.8636C76.3424 11.5538 76.7988 11.7203 76.9321 11.5438C77.0387 11.4072 76.9387 11.2506 76.9987 11.134C77.0787 10.9874 77.2586 10.9474 77.3885 10.9741C77.5551 11.0107 77.7183 11.114 77.8582 11.2306C78.6111 11.8603 78.8277 11.204 78.9343 11.104C79.0875 10.9641 79.3407 11.1074 79.474 10.8941C79.5406 10.7842 79.4673 10.6376 79.4007 10.561C79.2774 10.4177 78.9976 10.3444 78.8477 10.461C78.6544 10.611 79.0176 10.8941 78.6978 10.8975C78.5378 10.8975 78.4845 11.0107 78.5645 11.1673C78.4912 11.4305 78.1014 11.114 78.0481 10.9808C77.8949 10.5776 78.4745 10.7642 78.5245 10.4544C78.6078 9.948 77.635 9.99131 77.5351 9.84472C77.3918 9.62818 77.9748 9.27504 77.5817 9.12179C77.3951 9.0485 77.1653 9.09847 76.9754 9.13178C76.8588 9.15177 76.6722 9.21174 76.5723 9.11846C76.509 9.06182 76.5156 8.87526 76.2958 8.90524C76.1991 8.91857 75.9393 8.96521 76.0192 8.76865C76.1492 8.4455 76.6822 8.47881 76.9121 8.41552C77.0887 8.36554 77.1586 8.26227 77.3685 8.31224C77.5417 8.35222 77.6517 8.45883 77.8549 8.41552C78.0381 8.37554 78.3879 8.16232 78.3146 7.87582C78.4579 7.73923 79.0642 8.11568 79.1109 7.41274C79.1275 7.15955 79.6639 7.29947 80.0037 7.1762C80.2502 7.08292 80.1936 7.03628 80.3002 6.8797C80.3902 6.74644 80.5267 6.75977 80.6567 6.75977C80.7599 6.75977 80.9498 6.77976 80.9832 6.60652C81.0531 6.22007 80.6134 6.30669 80.4368 6.33667C80.2935 6.35999 79.9237 6.5199 79.8005 6.33334C79.7472 6.25005 79.8771 6.21007 79.9271 6.1701C80.1036 6.02684 79.9171 5.93356 79.7772 5.91024C79.9837 5.55377 79.4673 5.51379 79.454 5.25061C79.444 5.03073 79.6539 4.87415 79.6472 4.67093C79.6406 4.51435 79.4507 4.35111 79.6206 4.20119C79.7105 4.12123 79.9371 4.2445 80.0337 3.86471C80.097 3.61152 80.63 3.73145 80.6 4.05127C80.5834 4.21452 80.3768 4.33112 80.4634 4.52101C80.5301 4.66427 80.6633 4.64761 80.7733 4.64095C81.0731 4.62096 81.0198 4.83417 81.0531 4.97743C81.1264 5.31391 81.896 5.44383 81.9693 5.144C82.0592 4.77087 82.4956 5.03073 82.4657 4.57432C82.449 4.33778 82.9621 4.17787 83.1353 4.45438C83.4784 4.99408 83.9748 4.10791 84.2647 4.44439C84.3713 4.88414 84.7611 4.42773 84.8743 4.64761C85.0376 4.97076 84.4945 5.00408 84.6711 5.29059C84.7844 5.47715 84.9376 5.30058 85.0609 5.39386C85.1742 5.48048 85.0609 5.65039 85.2441 5.66704C85.3774 5.68037 85.5839 5.70036 85.6772 5.83695C85.8804 6.13678 85.0309 6.1068 85.1708 6.60985C85.0242 6.70313 84.9176 6.73312 84.6978 6.58986C84.4079 6.4033 83.8549 6.56988 83.8716 7.01296C83.8849 7.27948 83.2153 6.943 83.102 7.26949C83.0287 7.47604 82.9954 7.65594 82.5756 7.52934C82.4057 7.47604 82.1358 7.26615 81.9093 7.65594C81.7194 7.98909 80.9598 7.3561 80.7 7.73256C80.62 7.84916 80.7533 7.94578 80.6966 7.98909C80.2003 8.33556 80.67 8.75866 80.9365 8.43884C81.0964 8.24561 81.3296 8.15899 81.4129 8.39886C81.5362 8.752 82.379 7.84916 82.5323 8.18564C82.6322 8.40219 82.3091 8.4455 82.2591 8.65871C82.1825 9.00186 82.9121 8.84861 82.8288 9.03184C82.7122 9.25172 82.1259 8.93523 82.1625 9.2284C82.1825 9.38498 82.0492 9.41496 81.9859 9.42162C81.806 9.43828 81.3663 9.50491 81.5062 9.76477C81.7227 10.1679 82.2758 9.63484 82.6589 9.82473C82.7855 9.88803 83.112 9.73478 83.1353 9.51824C83.1486 9.39497 83.2386 9.41829 83.3385 9.42162C83.7416 9.43162 84.0381 9.05183 83.6517 8.76865C83.5484 8.69203 83.4151 8.57543 83.5617 8.43217C83.6617 8.33223 83.9182 8.4988 84.0581 8.25227C84.1681 8.05238 84.5578 8.25894 84.6211 8.02573C84.6711 7.8425 84.5545 7.77587 84.4612 7.72257C84.3413 7.65261 84.238 7.58598 84.3546 7.40608C84.5112 7.16621 84.7844 7.39941 84.9343 7.38609C85.1475 7.36943 85.2674 7.19953 85.4107 7.56599C85.5373 7.89247 85.8538 7.52268 85.6639 7.97243C85.4373 8.5088 86.3202 8.5621 86.64 8.23895C86.8299 8.04905 86.6966 7.75921 87.0631 7.83251C87.0631 8.25894 87.6661 7.87915 87.806 8.16232C87.8926 8.33889 88.0892 8.27226 88.2525 8.29558C88.7189 8.35888 88.5856 8.75866 88.3091 8.73867C88.0626 8.72201 87.9626 8.88525 87.936 9.02851C87.8926 9.25172 87.6661 9.19175 87.5295 9.17843C87.283 9.15844 86.8133 9.53823 87.1797 9.86804C87.283 9.96132 87.2897 10.1146 87.1797 10.1912C86.7533 10.4844 86.0303 10.1112 85.8471 10.0313C85.6939 9.96466 85.4274 9.99797 85.2941 10.1346C85.1109 10.3245 85.1608 10.5976 84.791 10.581C84.5945 10.571 84.4945 10.6376 84.4179 10.8875C84.2847 11.3272 83.9215 10.6643 83.4851 10.9275C83.2952 11.0407 83.4318 11.2206 83.1853 11.2639C82.9987 11.2939 82.8155 11.4005 82.8588 11.6237C82.9587 12.1434 82.2125 11.9036 81.9959 11.6537C81.8727 11.5105 81.5862 11.3905 81.3963 11.5504C81.1864 11.7203 81.0365 11.7637 80.5034 11.667C80.0104 11.5771 80.0637 11.9735 79.9437 12.0002C79.8405 12.0235 79.7172 11.9869 79.6306 12.0768C79.5473 12.1634 79.6073 12.2634 79.5506 12.35C79.5006 12.4233 79.1842 12.5332 79.3074 12.7931C79.394 12.9763 79.5539 12.903 79.5806 13.1429C79.6439 13.6793 80.3435 13.1162 80.4201 13.4794C80.4468 13.6093 80.3069 13.6426 80.4168 13.7759C80.4934 13.8692 80.63 13.8625 80.7266 13.8592C81.0331 13.8492 81.6794 13.6992 81.6561 14.0557C81.6494 14.129 81.5462 14.149 81.5528 14.2389C81.5762 14.5221 82.2624 14.2389 82.3557 14.4555C82.5056 14.792 83.2719 14.7353 83.0254 14.2823C82.9154 14.0757 82.9187 13.9091 83.2785 13.8059C83.4185 13.7659 83.4718 13.6526 83.4818 13.486C83.4984 13.2328 83.7083 13.0496 83.8982 13.0196C84.1381 12.983 84.4179 13.0563 84.6245 13.2129C84.8144 13.3561 84.9676 13.6393 85.2641 13.5227C85.494 13.4327 85.4107 13.1995 85.7172 13.1962C85.9337 13.1962 85.7505 13.4361 85.8438 13.576C85.9704 13.7659 86.2869 13.576 86.3135 13.7725C86.3435 13.9824 86.0437 13.9991 85.9604 13.9991C85.8271 14.0024 85.7039 13.9991 85.6739 14.2056C85.6606 14.2989 85.6939 14.3422 85.6206 14.3989C85.484 14.5088 84.9043 14.3022 84.6711 14.5321C84.4546 14.7453 84.6711 14.9619 84.7411 14.9852C85.1142 15.1051 84.8277 15.2517 84.881 15.5316C84.9876 16.0679 85.6839 15.8847 85.9671 15.7148C86.2902 15.5216 86.007 15.2251 86.0437 15.0985C86.107 14.8719 86.7733 14.9785 86.8599 14.6787C87.0098 14.1623 86.4335 14.0457 86.6867 13.7492C86.8266 13.586 87.0964 13.7625 87.253 13.6526C87.4696 13.4994 87.183 13.3861 87.1764 13.2995C87.1564 13.023 87.4929 13.1862 87.5928 12.7931C87.6994 12.3833 87.9726 12.8164 88.4057 12.6998C88.9787 12.5432 88.8888 12.863 88.8021 12.963C88.6855 13.0996 88.4557 13.0429 88.3491 13.1895C88.1692 13.4327 88.5656 13.5926 88.6222 13.7759C88.7122 14.069 88.439 14.2989 87.7194 14.3122C86.9832 14.3289 87.5495 14.9552 87.3663 15.0885C87.313 15.1251 87.0298 15.0685 87.0531 15.3417C87.0631 15.4716 87.2697 15.5649 87.1231 15.7015C86.9765 15.8381 86.6 15.7215 86.5467 16.0046C86.5334 16.0746 86.5267 16.4277 85.9671 16.3311C85.7605 16.2978 85.474 16.2712 85.2908 16.3944C85.1342 16.4977 84.9976 16.6343 84.8144 16.6243C84.5878 16.6143 83.4485 16.1479 83.2885 16.7809C83.2053 17.1107 83.675 17.0174 83.8482 17.0807C84.0148 17.1407 83.9748 17.2673 83.9515 17.4505C83.9282 17.6504 83.9515 17.7803 84.1247 17.837C84.2214 17.8669 84.3546 17.8336 84.4346 17.9169C84.5445 18.0302 84.4546 18.1035 84.4346 18.2201C84.3813 18.5366 84.801 18.5466 84.801 18.8764C84.801 19.1029 84.6578 19.2029 84.4979 19.2362C84.278 19.2828 83.8382 18.8531 83.4718 18.8897C83.3285 18.903 83.2752 18.943 83.2686 19.1296C83.2486 19.5926 82.5056 19.0163 82.3424 18.9397C81.5262 18.5532 81.5862 19.1229 81.273 19.0996C81.1397 19.0896 80.9565 19.2462 81.0098 19.4461C81.0831 19.7059 81.5395 19.7126 81.6694 19.6959C81.846 19.6759 82.1692 19.4261 82.3191 19.6493C82.4024 19.7692 82.3391 19.9591 82.409 20.0924C82.6023 20.4555 83.032 19.9658 83.2186 20.4722C83.3052 20.702 83.7916 20.7253 83.8815 20.4388C83.9415 20.2456 84.1947 20.1557 84.3613 20.219C84.7477 20.3589 84.5112 20.6154 84.6111 21.0019C84.7011 21.3517 85.3241 21.3417 85.6106 21.1285C85.9437 20.8786 86.3235 21.1351 86.3802 21.2517C86.4368 21.3717 86.2036 21.7448 86.71 21.7914C86.8232 21.8014 86.9065 22.0779 87.3629 21.6915C87.5595 21.5249 87.7261 21.898 87.9326 21.8081C88.399 21.6015 88.8421 22.0646 88.549 22.1845C88.4623 22.2212 88.3257 22.1745 88.2724 22.2878C88.1159 22.6276 87.8993 22.2911 87.7127 22.471C87.4262 22.7509 87.7927 22.8775 87.7461 23.1007C87.6861 23.3805 87.0998 23.1806 86.9632 23.194C86.63 23.224 86.7599 23.4072 86.6633 23.4871C86.57 23.5638 86.1903 23.4005 86.057 23.737C85.8771 24.1968 86.5234 24.2867 86.5667 24.4533C86.66 24.8197 87.2397 24.6765 87.3629 24.5332C87.4729 24.4066 87.3563 24.3633 87.5095 24.3167C87.6661 24.27 88.0925 24.3767 88.1292 24.1001C88.1458 23.9702 87.9559 24.0102 87.896 23.9469C87.7194 23.7537 87.9793 23.6137 88.0892 23.5604C88.2691 23.4738 88.3491 23.4172 88.4057 23.174C88.5223 22.6776 88.8954 22.9241 89.102 22.7076C89.2519 22.5477 89.2286 22.3744 89.4784 22.3011C89.7016 22.2378 90.1614 22.3345 90.0881 22.6176C89.9948 22.9808 90.328 23.0807 90.4279 23.0907C90.7644 23.1273 90.8377 23.4605 90.6678 23.5271C90.5345 23.5804 90.3579 23.4505 90.2313 23.5338C90.1414 23.5904 90.1647 23.707 90.0981 23.7803C90.0415 23.8436 89.6583 23.7137 89.5584 24.0368C89.4051 24.5332 88.9754 24.1235 88.8555 24.5999C88.8188 24.7398 88.9554 24.8097 88.8988 24.8364C88.479 25.0463 88.7921 25.2961 88.9421 25.2428C89.2352 25.1429 89.3818 25.2228 89.5784 25.4327C89.8582 25.7326 90.1314 25.4627 90.298 25.506C90.4212 25.536 90.7577 25.5293 90.7577 25.2228C90.7577 25.0396 91.0775 25.2728 91.2441 25.1162C91.374 24.993 91.2441 24.8431 91.2574 24.7464L91.2774 24.7231Z" fill="#5B8338"/>
<path d="M117.29 31.7359C117.333 31.3494 117.446 31.1928 117.08 30.8963C116.75 30.6298 116.517 30.6998 116.137 30.6498C115.89 30.6198 115.521 30.4166 115.691 30.1334C115.847 29.8669 116.334 29.8403 116.22 29.4538C116.17 29.2839 115.987 29.2006 116.184 29.0207C116.42 28.8042 116.773 28.8308 116.647 28.4011C116.56 28.1112 116.357 28.1279 116.15 27.9713C115.537 27.5082 116.677 26.8453 115.944 26.2956C115.684 26.1023 115.434 26.2756 115.207 26.159C114.994 26.049 115.041 25.6959 114.791 25.5793C114.391 25.3927 114.115 25.9058 113.725 25.6926C113.695 25.6759 113.668 25.6592 113.648 25.6426C113.635 25.6326 113.625 25.6226 113.612 25.6126C113.605 25.6059 113.598 25.6026 113.592 25.5959C113.578 25.5826 113.568 25.5726 113.562 25.5593C113.562 25.5593 113.562 25.5593 113.558 25.556C113.548 25.5426 113.545 25.5293 113.538 25.516L113.545 25.4227C113.545 25.4227 113.535 25.4527 113.532 25.4693C113.532 25.4527 113.538 25.4394 113.545 25.4227C113.588 25.3228 113.725 25.2262 113.815 25.1162C113.825 25.1029 113.835 25.0929 113.842 25.0796C113.848 25.0729 113.852 25.0629 113.855 25.0562C113.862 25.0429 113.868 25.0296 113.875 25.0129C113.875 25.0063 113.882 24.9996 113.882 24.9929C113.888 24.973 113.892 24.9496 113.892 24.9263C113.892 24.903 113.888 24.883 113.882 24.863C113.882 24.8564 113.875 24.853 113.875 24.8464C113.868 24.833 113.862 24.8197 113.855 24.8064C113.852 24.7997 113.848 24.7964 113.845 24.7897C113.835 24.7764 113.825 24.7631 113.815 24.7531C113.815 24.7531 113.808 24.7464 113.805 24.7431C113.758 24.6898 113.698 24.6431 113.652 24.5898C113.638 24.5732 113.628 24.5599 113.618 24.5432L113.652 24.1401C113.678 24.1001 113.708 24.0601 113.742 24.0202C113.882 23.8502 114.028 23.7803 113.955 23.5338C113.908 23.3738 113.788 23.2439 113.738 23.074C113.715 22.9974 113.692 22.9374 113.665 22.8908C113.485 22.5743 113.195 22.8641 112.839 22.6409C112.649 22.5243 112.616 22.3078 112.372 22.2478C112.176 22.1978 111.996 22.2645 111.826 22.3744C111.766 22.3211 111.699 22.2778 111.626 22.2411C107.405 12.7364 97.8871 6.10344 86.8133 6.10344C86.6767 6.10344 86.5401 6.10344 86.4002 6.10677L86.6234 7.3161L86.6067 7.70921C87.0898 7.67923 87.5795 7.66257 88.0726 7.66257C89.695 7.66257 91.2808 7.82582 92.8133 8.13898C95.092 8.60538 97.2508 9.40161 99.2364 10.4743C103.048 12.5332 106.222 15.6148 108.398 19.3494C108.285 19.3694 108.175 19.4027 108.075 19.436C107.978 19.4693 107.935 19.546 107.862 19.5959C107.745 19.4927 107.682 19.3094 107.535 19.2028C107.289 19.0163 106.992 19.0329 106.722 19.1429C106.689 19.1562 106.656 19.1695 106.622 19.1828C106.422 19.1995 106.229 19.2728 106.063 19.3994C105.916 19.5127 105.816 19.6226 105.746 19.7359C105.689 19.7958 105.636 19.8625 105.589 19.9358C105.416 20.2089 105.483 20.9085 105.253 21.0418C104.943 21.2217 104.857 20.8719 104.68 20.7353C104.513 20.6054 104.274 20.652 104.127 20.7653C104.057 20.8186 104.07 20.9585 103.967 20.9718C103.844 20.9885 103.717 20.7986 103.534 20.8186C103.351 20.8353 103.291 20.8786 103.207 21.0418C103.108 21.2384 103.168 21.7014 102.854 21.7348C102.531 21.7714 102.535 21.4949 102.428 21.3117C102.305 21.1018 102.021 20.9885 101.765 20.9952C101.285 21.0085 101.179 21.5748 100.609 21.5082C100.156 21.4549 99.5895 21.235 99.2597 21.7148C99.0265 22.0546 99.1664 22.5276 99.303 22.8775C99.1964 22.6009 98.8432 23.3072 98.8366 23.3372C98.7366 23.6737 99.1431 24.1601 99.0165 24.4266C98.8932 24.6798 98.5934 24.5132 98.3535 24.5165C97.8904 24.5165 97.9537 24.823 97.7072 25.0829C97.5939 25.2028 97.474 25.3361 97.2808 25.2495C97.0409 25.1429 97.1842 24.9696 97.1375 24.7931C97.0376 24.3966 96.8444 24.3966 96.4313 24.33C96.4746 23.7803 95.9748 23.3505 95.4285 23.3305C94.7555 23.3039 94.519 23.9735 93.916 24.1567C93.6028 24.2534 93.4229 24.3966 93.3463 24.7164C93.2897 24.9496 93.4229 25.2262 93.213 25.3961C92.9832 25.586 92.7966 25.4027 92.5767 25.3194C92.1769 25.1662 91.6739 25.1329 91.3807 25.496C91.2341 25.6792 91.3074 25.8325 91.2308 26.0091C91.1442 26.2056 90.9576 26.3089 90.841 26.4855C90.6378 26.7919 90.7977 26.7786 90.8877 27.0884C91.0143 27.5315 90.5612 27.4283 90.318 27.6448C90.1081 27.8314 90.1614 28.2645 89.8549 28.3211C89.4918 28.3877 89.5051 28.0446 89.4152 27.8514C89.2486 27.4982 89.152 27.5182 88.7788 27.4882C88.3158 27.4516 88.4557 27.0551 88.0492 26.9119C87.5628 26.742 86.7033 26.9252 86.3369 27.2517C86.1436 27.4216 86.157 27.5648 86.0104 27.7414C85.6972 28.1179 84.8977 27.9213 84.8843 28.5776C84.8777 28.8675 85.1209 29.1273 85.1142 29.4205C85.1075 29.687 85.2608 30.1634 84.7411 30.25C83.2886 30.4966 82.9054 31.7425 83.0687 32.8986H117.063C117.073 32.8752 117.083 32.8519 117.1 32.8253C117.17 32.702 117.343 32.652 117.406 32.5254C117.536 32.2622 117.27 32.0157 117.3 31.7359H117.29Z" fill="#5B8338"/>
<path d="M75.9893 8.35219L76.9688 8.3322L78.1714 8.11899L78.388 7.7925L79.1942 7.32942L79.9871 6.97629C78.6078 7.33276 77.2719 7.79583 75.9893 8.35552V8.35219Z" fill="#5B8338"/>
<path d="M76.7988 31.5526C76.6589 31.4294 76.6689 31.3261 76.4857 31.2062C76.1325 30.9763 75.3063 30.8464 74.8366 30.9663C74.4468 31.0662 74.58 31.3494 74.1336 31.3727C73.7738 31.3927 73.6805 31.3794 73.5206 31.6293C73.434 31.7659 73.4473 32.0091 73.0942 31.9624C72.7977 31.9224 72.8477 31.6159 72.6478 31.4827C72.4113 31.3294 71.9748 31.4027 72.0981 31.0896C72.1847 30.8697 72.338 30.8797 72.1414 30.6631C72.0281 30.5399 71.8482 30.4666 71.7649 30.3267C71.6916 30.2034 71.7649 30.0935 71.6217 29.9635C71.3418 29.707 70.8555 29.7303 70.4723 29.8369C70.2624 29.8969 70.0825 30.0235 69.8593 29.8902C69.6561 29.7703 69.786 29.5737 69.7327 29.4072C69.6561 29.184 69.4862 29.0807 69.183 29.0107C68.6034 28.8808 68.3768 28.4077 67.7272 28.4244C67.2008 28.4377 66.7178 28.7442 66.7611 29.1307C66.3613 29.1773 66.1747 29.1773 66.0781 29.4571C66.0348 29.5837 66.1714 29.7037 65.9415 29.7803C65.7549 29.8403 65.6383 29.747 65.5317 29.6604C65.2952 29.4771 65.3552 29.2606 64.9088 29.2606C64.8188 29.2606 64.7222 29.2772 64.6289 29.2872C65.2885 20.9785 70.2691 13.8858 77.3219 10.2545L77.0687 9.60484L76.3491 8.81194L75.5129 9.12843V8.55542C67.9471 12.0268 62.2502 18.873 60.3579 27.1684C59.9448 28.9807 59.695 30.9563 59.665 32.8886H77.645C77.6383 32.8686 77.665 32.7553 77.6617 32.732C77.655 32.5254 77.8882 32.3389 77.8849 32.1357C77.8716 31.6726 77.102 31.8125 76.7988 31.546V31.5526Z" fill="#5B8338"/>
<path d="M73.1942 20.079C73.5807 20.0324 74.077 19.8592 74.0837 19.8492C74.197 19.9191 74.3169 19.9591 74.4502 19.9857C74.8666 20.069 75.3563 19.9791 75.7328 20.2489C75.6328 20.2956 75.5396 20.3589 75.453 20.4555C75.2098 20.7253 75.0665 21.2217 74.7034 21.275C74.6667 21.2817 74.6667 21.345 74.7034 21.345C74.9632 21.3517 75.1331 21.1584 75.3064 20.9319C75.4063 20.7986 75.5029 20.652 75.6195 20.5421C75.7728 20.3989 75.9927 20.3789 76.1759 20.3655C76.5623 20.3356 76.8888 20.2922 77.2453 20.099C77.4852 19.9691 77.735 19.7692 77.9915 19.6493C77.9416 19.7092 77.8316 19.9924 77.8183 20.209C77.7817 20.2156 76.9088 20.2889 75.7428 21.2984C75.7328 21.3083 75.7361 21.335 75.7495 21.3283C76.4424 20.9519 77.3885 20.2889 77.7983 20.3955C77.755 20.762 77.4785 20.8453 77.4485 21.2184C77.4219 21.5449 77.0054 21.8047 76.4391 21.7081C76.1192 21.6548 75.7628 21.4716 75.4396 21.5282C75.4096 21.5349 75.413 21.5949 75.4396 21.6048C75.6628 21.6715 75.8927 21.7448 76.1192 21.8081C75.8394 22.2645 75.7295 22.0979 75.4563 22.2578C75.0798 22.4777 74.85 22.9841 74.5801 23.3605C74.5501 23.4005 74.5934 23.4538 74.6267 23.4205C74.9099 23.124 75.1031 22.7009 75.423 22.4577C75.5629 22.3511 75.7295 22.3544 75.8794 22.2845C76.0693 22.1979 76.2325 21.8247 76.3691 21.8747C76.4124 21.8847 76.9921 22.0846 77.3919 21.6981C77.5151 21.5782 77.6118 21.4183 77.6284 21.2217C77.6484 20.9719 77.9815 20.9252 77.9915 20.3755C78.5279 20.3089 78.5246 20.6554 78.7411 20.792C79.1276 21.0318 79.7039 21.0318 79.9804 21.0185C79.3375 21.2384 78.961 21.9713 78.7778 22.1212C78.5812 22.2845 78.2514 22.3411 78.0215 22.3145C78.0115 22.3145 78.0082 22.3311 78.0149 22.3344C78.3547 22.5676 78.8444 22.2811 79.0476 22.0413C79.2442 21.8081 79.6073 21.1951 80.3835 21.1151C81.4496 20.9286 82.006 22.2645 82.2558 22.8242L82.2692 32.9052L83.2719 32.8919L83.0887 24.6831C83.152 24.5632 83.6317 23.5338 84.0715 23.0307C84.7711 22.2278 85.4774 22.4977 85.6606 22.541C86.0471 22.6309 86.6467 22.6509 86.8666 22.6309C87.4963 22.571 87.986 23.124 88.4857 23.5371C88.6989 23.7137 88.9455 23.8369 89.1887 23.9236C89.3019 23.9635 89.4185 23.9869 89.5385 24.0035C89.7017 24.0268 89.8749 23.8969 90.0215 24.0602C90.0249 24.0668 90.0349 24.0602 90.0315 24.0502C89.9049 23.787 89.6551 23.8969 89.4485 23.8503C89.2186 23.797 88.9921 23.6837 88.7789 23.5438C89.2886 23.5837 89.8616 23.2006 90.2447 22.8741C90.2714 22.8508 90.2547 22.7809 90.2214 22.8042C89.705 23.134 89.0021 23.6437 88.499 23.3139C88.489 23.3072 88.0093 22.8908 87.7761 22.7376C87.5995 22.621 87.413 22.5343 87.2231 22.4877C87.443 22.3944 87.6395 22.2478 87.8194 22.0613C87.9127 21.9613 88.2392 21.5982 88.4924 21.6082C88.519 21.6082 88.5157 21.5549 88.4924 21.5449C88.3091 21.4649 88.1126 21.5982 87.966 21.7281C87.7195 21.9447 87.5262 22.1712 87.2397 22.3045C86.6501 22.581 85.9704 22.3411 85.3774 22.2012C85.3574 22.1979 85.3375 22.1912 85.3175 22.1879C85.4607 21.998 85.594 21.8014 85.8272 21.7881C86.2436 21.7648 86.6068 21.9447 86.9732 21.6048C86.9999 21.5815 86.9765 21.5316 86.9466 21.5482C86.73 21.6715 86.4902 21.6681 86.2569 21.6448C86.0704 21.6248 85.8605 21.5549 85.6739 21.5915C85.3674 21.6548 85.1409 22.0513 85.0643 22.1479C84.6978 22.1379 84.2281 22.4011 83.9882 22.6609C83.8616 21.7847 85.0443 21.3783 85.1642 20.8386C85.1809 20.7686 85.0909 20.7087 85.0643 20.7853C84.8977 21.2217 84.4813 21.3816 84.1848 21.6515C83.8216 21.9846 83.6784 22.461 83.7483 22.9408C83.4852 23.1806 83.1387 23.7537 83.0854 23.8569L82.9155 16.2078C83.0621 16.1212 83.202 16.0213 83.3286 15.8947C83.4918 15.9746 83.6018 16.1179 83.8283 16.1279C84.0448 16.1379 84.2647 15.9913 84.4679 16.1146C84.6812 16.2445 84.8411 16.3844 85.0843 16.4311C85.3108 16.4744 85.554 16.4644 85.7772 16.4011C85.7805 16.4011 85.7805 16.3911 85.7772 16.3911C85.5407 16.3278 85.2975 16.3411 85.0609 16.2745C84.8777 16.2212 84.7411 16.0779 84.5879 15.968C84.921 15.8514 85.2542 15.7548 85.564 15.5416C85.7472 15.415 85.9105 15.245 86.0637 15.0685C86.2769 14.8186 86.8866 14.3122 87.0965 14.2289C87.383 14.3022 87.7595 14.199 87.9294 14.1523C88.2392 14.0657 88.5357 13.8625 88.7023 13.5127C88.7222 13.4694 88.6723 13.4194 88.6456 13.4594C88.4291 13.7759 88.1659 13.9324 87.8461 14.0324C87.5429 14.1257 87.3463 14.0824 87.3397 14.0824C87.5262 13.9624 87.7028 13.8225 87.8661 13.6359C88.1026 13.3628 88.2725 12.7131 88.6423 12.4999C88.6556 12.4932 88.6523 12.4566 88.639 12.4599C88.2891 12.5099 88.036 13.2228 87.8994 13.3428C87.7694 13.1229 87.6628 12.7531 87.7461 12.5032C87.7495 12.4899 87.7328 12.4799 87.7261 12.4866C87.5196 12.6631 87.7128 13.2761 87.8227 13.4527C87.5696 13.7825 87.2331 13.9524 86.8933 14.1623C86.4535 14.4288 85.8505 15.0751 85.634 15.2584C85.2442 15.5882 84.338 15.868 83.9582 15.9014C83.785 15.918 83.6817 15.888 83.4985 15.7148C83.6451 15.5216 83.7417 15.2084 83.7917 14.8952C84.3314 14.8886 84.7711 14.672 84.991 14.5354C85.021 14.5188 84.9977 14.4688 84.971 14.4755C84.7678 14.5188 84.298 14.792 83.8283 14.7087C83.9682 13.7992 84.4013 13.2595 84.7844 12.873C84.7944 12.863 84.7844 12.8497 84.7744 12.853C84.3813 13.0796 84.0348 13.576 83.8483 14.0657C83.6517 14.5788 83.6784 15.1551 83.3486 15.5915C83.2786 15.6848 83.0287 15.8814 82.9188 15.9447L82.8089 10.9808C83.0854 10.6676 83.3752 10.3811 83.7217 10.1845C84.7178 9.62484 85.4074 9.82139 85.5906 9.79807C86.177 9.71812 86.0038 9.43827 86.2303 9.15177C86.3769 8.9652 86.6434 8.98852 86.8066 8.88525C87.0099 9.00185 87.5862 9.21506 88.1592 8.88525C88.1726 8.87858 88.1726 8.8486 88.1559 8.85193C87.8094 8.90524 87.1998 9.01184 86.9299 8.74533C87.0732 8.61207 87.1298 8.35221 87.2431 8.1823C87.3997 7.93911 87.5562 7.8858 87.7994 7.87914C87.8128 7.87914 87.8161 7.84916 87.8028 7.83916C87.5196 7.66926 87.1498 7.97908 87.0232 8.28891C86.6501 9.2184 86.177 8.51212 85.9105 9.36831C85.8305 9.62151 85.4807 9.5782 85.1043 9.53156C85.3674 9.24172 85.4141 8.36221 85.9505 8.00907C85.9704 7.99574 85.9704 7.9591 85.9505 7.9591C85.6573 7.93244 85.2908 8.67203 85.2575 8.75532C85.0909 8.722 84.921 8.70202 84.7611 8.63205C84.5013 8.52212 84.5979 8.14233 84.398 7.96576C84.358 7.92911 84.3214 8.00574 84.348 8.04571C84.4446 8.19563 84.4213 8.67203 84.6645 8.77531C84.8344 8.8486 85.011 8.89857 85.1875 8.93189C85.1642 8.99519 85.0843 9.49158 84.5912 9.62817C84.2414 9.72145 83.4252 9.91134 82.7989 10.601C82.7989 10.601 82.6889 6.22006 82.7122 6.00352C82.7522 5.62706 83.222 5.23394 83.4752 5.16731C83.6784 5.11401 83.8683 5.11401 84.0315 4.92411C84.1714 4.7642 84.2014 4.49102 84.4113 4.32778C84.4246 4.31778 84.4113 4.29446 84.3946 4.30113C84.1748 4.38441 84.0682 4.66426 84.0015 4.77087C83.8849 4.95743 83.6018 4.98741 83.4085 5.0174C83.5185 4.87081 83.6484 4.63094 83.6118 4.43106C83.6051 4.38441 83.5518 4.39774 83.5485 4.44105C83.5318 4.80418 83.3586 4.84083 83.2586 5.05404C83.0587 5.15732 82.8322 5.33722 82.6923 5.52045L82.6556 3.90801H82.2525L82.2592 6.9863C82.1426 6.71645 82.0193 6.45326 81.9393 6.16009C81.886 5.96021 81.8794 5.74033 81.8061 5.5471C81.7228 5.32389 81.5795 5.17398 81.4396 5.00407C81.4263 4.98741 81.4063 5.00407 81.4096 5.02739C81.4396 5.21395 81.5829 5.31723 81.6595 5.47714C81.7594 5.69036 81.7661 6.0968 81.8327 6.35665C81.6095 6.30335 81.4829 5.86692 81.4063 5.75365C81.2331 5.50379 80.68 5.44383 80.6567 5.29724C80.6634 5.28391 80.7733 5.13733 80.8 5.03739C80.8566 4.84083 80.7767 4.5843 80.7667 4.38441C80.7667 4.32112 80.6867 4.32112 80.6867 4.38441C80.6867 4.59763 80.7966 4.96742 80.5601 5.16065C80.5268 5.10401 80.3969 4.8275 80.1737 4.73422C79.9571 4.64427 79.7372 4.61096 79.514 4.6576C79.484 4.66426 79.494 4.72089 79.5207 4.72089C79.7905 4.70424 80.0571 4.74421 80.2769 4.96076C80.3669 5.05071 80.4302 5.16731 80.4802 5.29391C80.5601 5.50379 80.6867 5.53711 80.74 5.56709C80.9832 5.71368 81.2264 5.727 81.3563 6.06348C81.413 6.20674 81.4629 6.32667 81.5562 6.43994C81.6428 6.54655 81.9194 6.64982 81.9327 6.65315C82.036 6.92634 82.1759 7.18619 82.2625 7.46604V9.20174C81.8694 9.0285 81.8294 8.44882 81.5729 7.99574C81.2197 7.37275 80.4468 6.97631 80.167 6.90635C80.1603 6.90635 80.157 6.91634 80.1637 6.91967C80.6301 7.21617 81.1964 7.58264 81.4829 8.08236C81.2464 8.10568 81.0299 8.28891 80.7867 8.23228C80.6467 8.19896 80.5568 8.04238 80.4202 7.98908C80.2736 7.93244 80.1337 7.9491 79.9871 7.97908C79.6206 8.05904 79.3974 7.94577 79.1176 7.66259C78.9743 7.51934 78.8477 7.31612 78.6545 7.36609C78.8977 7.42939 79.0276 7.75587 79.2009 7.94577C79.3941 8.15565 79.7572 8.2456 79.9871 8.17897C79.8339 8.3089 79.4707 8.4988 79.1642 8.4888C78.8111 8.47881 78.4946 8.22561 78.1548 8.15898C78.1381 8.15898 78.1281 8.1823 78.1448 8.1923C78.4446 8.41884 78.8177 8.63539 79.1676 8.64205C79.8372 8.65538 80.237 8.1923 80.2303 8.15232C80.3036 8.15232 80.3769 8.17231 80.4535 8.22561C80.5734 8.31223 80.6634 8.39885 80.8033 8.43217C81.0698 8.49546 81.3064 8.24893 81.5729 8.27225C81.5762 8.27225 81.8461 9.28503 82.2658 9.4516V11.6537C81.5029 11.6737 81.373 10.9641 81.2098 10.6443C81.0632 10.3578 80.7833 10.1879 80.5201 10.2811C80.2436 10.3778 80.0004 10.8275 79.7172 10.551C79.5507 10.3877 79.8205 10.0046 79.7739 9.73144C79.6873 9.24505 79.3441 9.12178 79.0976 9.06515C78.7045 8.9752 78.318 8.96853 77.9482 8.74866C77.7683 8.64205 77.685 8.4988 77.5851 8.29557C77.5318 8.1823 77.4618 8.10901 77.3586 8.08236C77.3119 8.06903 77.2953 8.14899 77.3386 8.16898C77.5251 8.2556 77.5684 8.59874 77.7084 8.76198C77.8716 8.95188 78.1881 9.05848 78.4013 9.12845C78.2414 9.14843 77.9749 9.15843 78.0582 9.79474C78.1115 10.1879 77.715 10.1645 77.5518 10.0979C77.5351 10.0912 77.5185 10.1246 77.5318 10.1379C77.6351 10.2412 77.8849 10.2945 78.0615 10.1912C78.2747 10.0679 78.1048 9.64483 78.2081 9.43161C78.298 9.24172 78.5146 9.30501 78.7911 9.22173C78.8977 9.23838 79.7139 9.3883 79.5507 9.928C79.4874 10.1312 79.2642 10.5377 79.6739 10.8475C79.8372 10.9708 80.0437 10.9008 80.2136 10.8042C80.4402 10.6776 80.5868 10.4344 80.8466 10.6043C80.9765 10.6909 81.0498 10.8775 81.1131 11.0674C80.8966 11.1173 80.7067 11.3272 80.4935 11.4038C80.3169 11.4671 80.1304 11.2839 79.9638 11.2306C79.7805 11.1706 79.6106 11.214 79.4307 11.2639C78.7644 11.4405 78.358 10.3811 77.695 10.5443C77.6684 10.551 77.6684 10.6076 77.695 10.6143C78.0182 10.6942 78.2414 10.8575 78.5079 11.094C78.7478 11.3072 78.9877 11.4838 79.2842 11.5071C79.4741 11.5205 79.6539 11.4138 79.8438 11.4572C80.0271 11.4971 80.187 11.657 80.3736 11.667C80.7533 11.6904 80.9799 11.2939 81.1998 11.3206C81.2131 11.3539 81.6528 12.0402 82.2592 12.0068L82.2658 16.2811C82.1492 16.3478 81.9327 16.481 81.8394 16.6243C81.7628 16.0479 81.323 15.5682 81.0565 15.0018C80.9199 14.712 81.2364 14.5588 81.5162 14.4022C81.6995 14.3022 81.8461 14.0557 81.7361 13.7992C81.7261 13.7792 81.6962 13.7825 81.6962 13.8058C81.6795 14.2922 81.3164 14.3256 81.2131 14.3889C81.0865 14.4655 80.9732 14.5721 80.9199 14.7153C80.8266 14.5321 80.7234 14.3622 80.6601 14.159C80.5801 13.9058 80.5801 13.6259 80.5534 13.3594C80.5468 13.2928 80.4768 13.2928 80.4702 13.3594C80.4468 13.606 80.4468 13.8425 80.4868 14.0857C80.5068 14.2123 80.5435 14.3256 80.5901 14.4322C80.3869 14.3622 80.117 14.4055 79.9538 14.3922C79.7272 14.3722 79.504 14.189 79.2908 14.1057C78.7511 13.8925 78.2148 14.089 77.2453 13.8092C76.6323 13.6326 76.489 13.0296 76.1825 13.0796C76.1592 13.0829 76.1592 13.1296 76.1825 13.1362C76.4457 13.2262 76.7422 13.7725 77.1753 13.9291C77.9582 14.2156 78.6345 14.079 79.2575 14.2589C79.4574 14.3156 79.6206 14.5188 79.8205 14.5588C80.097 14.6154 80.5901 14.4788 80.7567 14.7786C80.76 14.7886 80.9832 15.3117 81.1698 15.7148C81.0398 15.6582 80.84 15.6082 80.69 15.6048C80.3736 15.5949 80.1037 15.8814 79.8039 15.9713C79.5373 16.0513 79.2675 15.7814 79.001 15.7614C78.6578 15.7348 78.338 16.0513 77.9982 16.1046C77.9649 16.1079 77.9516 16.1779 77.9882 16.1845C78.2614 16.2345 78.5113 16.0479 78.7644 15.9547C79.0943 15.8347 79.3275 16.0946 79.634 16.1645C79.9105 16.2278 80.167 16.0113 80.4135 15.888C80.71 15.7414 80.9899 15.8614 81.2564 16.018C81.4763 16.2278 81.5662 16.5543 81.5962 17.0074C81.6129 17.2539 81.5995 17.5038 81.6495 17.7437C81.7128 18.0568 82.1326 18.7464 82.2625 18.9497V20.3722C82.1093 20.2256 81.3297 19.7326 80.6634 19.596C80.2669 19.516 79.8638 19.6126 79.4707 19.6459C79.1276 19.6759 78.9144 19.4394 78.6145 19.2861C78.2214 19.0829 77.5351 19.606 77.5285 19.606C77.132 19.5493 77.0254 19.0463 76.7389 18.7764C76.7356 18.7731 76.6789 18.6298 76.8388 18.39C76.9821 18.1734 77.0787 17.647 77.082 17.3572C77.082 17.2673 77.0221 17.2739 77.0154 17.3605C77.0054 17.5504 76.8888 17.9569 76.8822 17.9835C76.7789 17.9002 76.6256 17.8303 76.5224 17.7437C76.2692 17.5371 76.3291 17.2339 76.3491 16.8908C76.3491 16.8542 76.3058 16.8608 76.2958 16.8908C76.2259 17.134 76.2192 17.4572 76.3158 17.687C76.4157 17.9202 76.6456 17.9802 76.8022 18.1301C76.7755 18.3067 76.579 18.4599 76.5757 18.6798C76.4524 18.6398 76.3191 18.6532 76.1925 18.6598C75.8461 18.6765 75.5596 18.6931 75.2364 18.5032C75.2031 18.4832 75.1598 18.5399 75.1931 18.5732C75.3863 18.7764 75.6262 18.8264 75.8727 18.8364C76.0959 18.8464 76.3891 18.7564 76.599 18.883C76.7622 19.013 76.9155 19.3494 77.0287 19.5227C77.0987 19.6293 77.1787 19.7092 77.2719 19.7659C76.9888 19.9258 76.7056 20.059 76.3824 20.1123C76.2259 20.139 76.0659 20.1557 75.916 20.199C75.5329 19.8525 75.0299 19.9125 74.5801 19.8758C74.2836 19.8492 74.0637 19.7326 73.8372 19.4894C73.6639 19.2995 73.4907 19.1096 73.2475 19.1462C73.2175 19.1495 73.2175 19.2029 73.2475 19.2062C73.554 19.2362 73.7472 19.5527 73.9771 19.7725C74.0104 19.8058 72.9443 20.1756 72.5646 19.9324C72.5646 19.9324 72.5612 19.9324 72.5612 19.9358C72.5945 20.2056 73.0643 20.1123 73.2042 20.0957L73.1942 20.079ZM82.1659 18.0868C82.0626 17.9102 81.9627 17.7303 81.916 17.5171C81.8694 17.3139 81.8694 17.1107 81.8627 16.9041C81.8661 16.9041 82.0626 16.591 82.2458 16.5643V18.2334C82.2225 18.1834 82.1959 18.1334 82.1659 18.0868ZM78.1215 19.8225C78.2181 19.6693 78.428 19.5327 78.6212 19.586C78.8011 19.6726 78.971 19.8525 79.1542 19.9158C79.514 20.0391 79.9371 19.8758 80.3036 19.8691C80.6767 19.8592 81.5729 20.139 82.2558 20.7886V22.1246C82.2558 22.1246 81.6795 20.8453 80.76 20.8186C80.5301 20.812 79.1076 20.8753 78.7944 20.5354C78.7078 20.4422 78.5546 20.129 78.0115 20.1856C78.0282 20.0557 78.0548 19.9324 78.1215 19.8258V19.8225Z" fill="#5B8338"/>
<path d="M158.167 33.3183H157.467V32.9519H159.27V33.3183H158.57V35.2306H158.164V33.3183H158.167Z" fill="#231F20"/>
<path d="M159.556 32.9519H160.176L160.786 34.5476L161.402 32.9519H162.015V35.2306H161.628V33.3383H161.622L160.929 35.2306H160.646L159.953 33.3383H159.946V35.2306H159.56V32.9519H159.556Z" fill="#231F20"/>
<path d="M54.0348 69.848C54.0348 71.1939 54.208 71.4438 55.6306 71.3972V71.8203H50.8399V71.3972C52.1558 71.4438 52.2958 71.084 52.2958 70.0512V63.7714C52.2958 62.7553 52.1225 62.5021 50.8399 62.5021V62.079C51.1997 62.079 51.9992 62.0157 53.0786 61.9691C53.9082 61.9391 54.6744 61.9391 54.9876 61.9391C58.1492 61.9391 59.2319 63.3183 59.2319 64.7408C59.2319 65.9002 58.5756 66.7464 57.2597 67.2928C57.5095 67.466 58.1825 68.1223 58.4323 68.3722L59.4518 69.3883C60.8443 70.7808 61.9104 71.4071 63.2097 71.5504V71.9902C60.1247 72.0668 59.3585 71.5204 57.9493 70.1112L57.1197 69.2817C56.3202 68.4821 56.087 68.2656 55.4273 67.7792C54.9743 67.8091 54.4412 67.8258 54.0348 67.7792V69.8447V69.848ZM54.0348 67.3427C54.1447 67.3594 54.4412 67.3894 54.5345 67.3894C56.6167 67.2961 57.3363 66.4965 57.3363 64.9008C57.3363 63.305 56.4901 62.3788 54.7844 62.3788C54.5478 62.3788 54.1747 62.4088 54.0315 62.4421V67.3427H54.0348Z" fill="#5B8338"/>
<path d="M68.4069 70.2711C67.624 71.4438 66.5913 71.9935 65.2287 71.9935C63.0366 71.9935 62.317 70.3011 62.317 68.8452C62.317 66.8097 63.6795 65.3539 65.5585 65.3539C66.4047 65.3539 67.0777 65.637 67.5007 66.0568C68.2203 66.7764 67.9405 67.5127 68.4869 67.7492V68.1889H63.8061C63.8061 69.928 64.7623 71.084 66.1382 71.084C66.8111 71.084 67.4541 70.7242 68.1104 69.9879L68.4069 70.2711ZM66.6845 67.7492C66.5579 66.4499 66.0882 65.777 65.292 65.777C64.4958 65.777 63.9627 66.4333 63.8061 67.7492H66.6879H66.6845Z" fill="#5B8338"/>
<path d="M75.5962 71.0207C74.8599 71.677 74.2636 71.9902 73.7472 71.9902C73.1509 71.9902 72.8543 71.6604 72.871 71.0207C72.1181 71.6004 71.9482 71.9902 71.022 71.9902C70.0959 71.9902 69.3929 71.3638 69.3929 70.4877C69.3929 70.0479 69.5329 69.6748 69.7994 69.4083C70.1125 69.0951 70.5823 68.9385 71.1286 68.7819C71.6783 68.6087 72.288 68.4221 72.8677 68.0157V67.516C72.8677 66.4199 72.5379 65.9335 71.8016 65.9335C71.3152 65.9335 70.9254 66.23 70.9254 66.5898C70.9254 66.7298 71.002 66.9197 71.082 67.0596L69.6561 67.6392C69.5162 67.4527 69.4696 67.2961 69.4696 67.1529C69.4696 66.3866 70.9254 65.3539 72.3047 65.3539C73.5873 65.3539 74.3568 65.9802 74.3568 67.1062V70.6143C74.3568 70.9441 74.4501 71.1473 74.6867 71.1473C74.8732 71.1473 75.1264 71.0207 75.4529 70.7409L75.5928 71.024L75.5962 71.0207ZM72.871 68.4688C71.1953 69.4549 70.9621 69.5482 70.9621 70.3311C70.9621 70.8808 71.2586 71.2539 71.6983 71.2539C71.9315 71.2539 72.0881 71.1606 72.2613 71.034C72.4179 70.9074 72.5445 70.8142 72.871 70.5943V68.4655V68.4688Z" fill="#5B8338"/>
<path d="M75.8161 61.9724L78.0548 61.3161H78.5079V70.2711C78.5079 71.164 78.7444 71.4305 79.6972 71.4305V71.8203H75.8127V71.4305C76.7989 71.4305 77.0187 71.1173 77.0187 70.1612V63.3516C77.0187 62.632 76.9554 62.4588 75.8127 62.3655V61.9757L75.8161 61.9724Z" fill="#5B8338"/>
<path d="M85.2575 71.8203V71.3972C86.5268 71.3972 86.84 71.194 86.84 70.3178V63.5682C86.84 62.5354 86.3236 62.5021 85.2575 62.5021V62.079H93.2598L93.3997 64.4277H92.9766L92.9 64.0979C92.5868 62.8153 92.3369 62.782 91.3342 62.782H88.579V66.43H91.0043C91.9138 66.43 92.0837 66.32 92.177 65.2406H92.6001V68.3889H92.177C92.0671 67.2761 91.8639 67.1362 91.0043 67.1362H88.579V69.9846C88.579 70.9541 88.7056 71.1107 89.5018 71.1107H91.2409C92.8233 71.1107 93.1365 70.8908 93.5596 69.3583H93.9827L93.7462 71.817H85.2609L85.2575 71.8203Z" fill="#5B8338"/>
<path d="M94.8854 70.0179H95.2453C95.4318 70.9574 96.0581 71.5671 96.8277 71.5671C97.3774 71.5671 97.7672 71.2239 97.7672 70.7075C97.7672 69.4849 94.9188 68.7819 94.9188 67.1362C94.9188 66.1034 95.8582 65.3505 97.1275 65.3505C97.5506 65.3505 98.0037 65.4138 98.5834 65.5704V67.2928H98.2402C98.037 66.3533 97.5839 65.8369 96.941 65.8369C96.4879 65.8369 96.1281 66.1501 96.1281 66.5732C96.1281 67.7958 99.0232 68.2322 99.0232 70.1578C99.0232 71.1906 98.067 71.9902 96.8477 71.9902C96.5512 71.9902 96.3313 71.9602 96.1414 71.9269C95.9682 71.8969 95.8449 71.8636 95.7183 71.8636C95.5917 71.8636 95.4518 71.9269 95.4218 72.0035H95.092L94.8888 70.0146L94.8854 70.0179Z" fill="#5B8338"/>
<path d="M104.483 70.6776C104.03 71.6803 103.294 71.9935 102.528 71.9935C101.478 71.9935 100.729 71.3672 100.729 69.9413V66.34H100.026V66.0435C100.982 65.5438 101.528 64.8375 101.842 63.7747H102.218V65.5271H104.487L104.144 66.34H102.218V69.7547C102.218 70.5376 102.455 71.1939 103.141 71.1939C103.581 71.1939 103.844 70.9741 104.144 70.411L104.487 70.6776H104.483Z" fill="#5B8338"/>
<path d="M111.436 71.0207C110.7 71.677 110.104 71.9902 109.587 71.9902C108.991 71.9902 108.694 71.6604 108.711 71.0207C107.958 71.6004 107.788 71.9902 106.862 71.9902C105.936 71.9902 105.233 71.3638 105.233 70.4877C105.233 70.0479 105.373 69.6748 105.639 69.4083C105.953 69.0951 106.422 68.9385 106.969 68.7819C107.518 68.6087 108.128 68.4221 108.708 68.0157V67.516C108.708 66.4199 108.378 65.9335 107.642 65.9335C107.155 65.9335 106.766 66.23 106.766 66.5898C106.766 66.7298 106.842 66.9197 106.922 67.0596L105.496 67.6392C105.356 67.4527 105.31 67.2961 105.31 67.1529C105.31 66.3866 106.766 65.3539 108.145 65.3539C109.427 65.3539 110.197 65.9802 110.197 67.1062V70.6143C110.197 70.9441 110.29 71.1473 110.527 71.1473C110.713 71.1473 110.967 71.0207 111.293 70.7409L111.433 71.024L111.436 71.0207ZM108.711 68.4688C107.035 69.4549 106.802 69.5482 106.802 70.3311C106.802 70.8808 107.099 71.2539 107.538 71.2539C107.772 71.2539 107.928 71.1606 108.101 71.034C108.258 70.9074 108.385 70.8142 108.711 70.5943V68.4655V68.4688Z" fill="#5B8338"/>
<path d="M116.354 70.6776C115.9 71.6803 115.164 71.9935 114.398 71.9935C113.349 71.9935 112.599 71.3672 112.599 69.9413V66.34H111.896V66.0435C112.852 65.5438 113.399 64.8375 113.712 63.7747H114.088V65.5271H116.357L116.014 66.34H114.088V69.7547C114.088 70.5376 114.325 71.1939 115.011 71.1939C115.451 71.1939 115.714 70.9741 116.014 70.411L116.357 70.6776H116.354Z" fill="#5B8338"/>
<path d="M122.833 70.2711C122.05 71.4438 121.018 71.9935 119.655 71.9935C117.463 71.9935 116.743 70.3011 116.743 68.8452C116.743 66.8097 118.106 65.3539 119.985 65.3539C120.831 65.3539 121.504 65.637 121.927 66.0568C122.647 66.7764 122.367 67.5127 122.913 67.7492V68.1889H118.232C118.232 69.928 119.189 71.084 120.564 71.084C121.237 71.084 121.88 70.7242 122.537 69.9879L122.833 70.2711ZM121.111 67.7492C120.984 66.4499 120.515 65.777 119.718 65.777C118.922 65.777 118.389 66.4333 118.232 67.7492H121.114H121.111Z" fill="#5B8338"/>
</g>
<defs>
<linearGradient id="paint0_linear_4174_932" x1="88.0859" y1="3.04182" x2="88.0859" y2="32.9019" gradientUnits="userSpaceOnUse">
<stop stop-color="#CFE0D8"/>
<stop offset="0.12" stop-color="#D4E3DC"/>
<stop offset="0.27" stop-color="#E4EDE9"/>
<stop offset="0.44" stop-color="white"/>
<stop offset="0.5" stop-color="#FDFDF8"/>
<stop offset="0.57" stop-color="#F9F7E7"/>
<stop offset="0.66" stop-color="#F2EECB"/>
<stop offset="0.75" stop-color="#E8E1A4"/>
<stop offset="0.85" stop-color="#DBD273"/>
<stop offset="0.86" stop-color="#DBD170"/>
</linearGradient>
<clipPath id="clip0_4174_932">
<rect width="161.35" height="72" fill="white" transform="translate(0.661133 0.00683594)"/>
</clipPath>
</defs>
</svg>
