<svg width="107" height="64" viewBox="0 0 107 64" fill="none" xmlns="http://www.w3.org/2000/svg">
<path d="M16.1858 27.7979H16.4067C16.4395 27.8545 16.4636 27.8959 16.538 27.9111C16.6123 27.9264 16.7261 27.9351 16.9382 27.9351H20.3872C20.8027 27.9351 20.8683 27.9198 20.9164 27.7979H21.1373L21.2839 29.1942H21.0477C20.9339 28.349 20.7699 28.3011 20.28 28.3011H19.1143V32.1264C19.1143 32.6797 19.204 32.769 20.0613 32.769V32.9891H17.2641V32.769C18.0798 32.769 18.2111 32.6645 18.2111 32.1264V28.3011H17.0454C16.5642 28.3011 16.4002 28.349 16.2777 29.1942H16.0415L16.188 27.7979H16.1858Z" fill="white"/>
<path d="M23.6896 32.7857C24.2123 32.7857 24.3086 32.6637 24.3086 31.1845C24.3086 30.372 24.1052 30.0626 23.6962 30.0626C23.4512 30.0626 23.1494 30.1672 22.7339 30.4046V32.191C22.7339 32.6288 22.8892 32.7835 23.2807 32.7835V32.9861H21.4282V32.7835C21.7869 32.7835 21.9575 32.6528 21.9575 32.1256V28.5029C21.9575 28.2828 21.9334 28.1543 21.4282 28.0803V27.8777L22.5283 27.5356H22.7317V30.1846C23.2872 29.8274 23.8165 29.6313 24.2167 29.6313C24.7722 29.6313 25.0806 29.9798 25.0806 30.9797C25.0806 31.4503 25.0237 31.9622 25.0237 32.2628C25.0237 32.6615 25.2031 32.7835 25.6514 32.7835V32.9861H23.6853V32.7835L23.6896 32.7857Z" fill="white"/>
<path d="M29.0416 32.185C28.6348 32.7949 28.0946 33.0781 27.386 33.0781C26.2443 33.0781 25.8682 32.2002 25.8682 31.4443C25.8682 30.3878 26.5768 29.6318 27.5566 29.6318C27.9962 29.6318 28.3483 29.7778 28.567 29.9978C28.9432 30.3725 28.7944 30.7537 29.0809 30.8757V31.1023H26.6424C26.6424 32.0042 27.1388 32.6054 27.8584 32.6054C28.2083 32.6054 28.5429 32.4181 28.8863 32.0368L29.0416 32.1828V32.185ZM28.1449 30.8779C28.0793 30.2026 27.8343 29.854 27.4188 29.854C27.0032 29.854 26.7255 30.1961 26.6446 30.8779H28.1449Z" fill="white"/>
<path d="M3.41137 37.7271C2.5103 35.7774 2.12319 35.5726 0.167969 35.5726V34.8799H7.63457V35.5726C6.32234 35.6249 5.96147 35.7774 5.96147 36.4179C5.96147 36.9058 6.45137 38.0582 6.81005 38.8032L11.2891 48.2664L13.9923 42.7026L11.6238 37.7271C10.6461 35.6489 10.4143 35.5465 8.71497 35.5726V34.8799H20.7897V35.5726C19.0138 35.5988 18.7557 35.8035 17.8044 37.7271L16.1313 41.0601L19.6065 48.1901L24.0593 37.5986C24.3677 36.8797 24.4465 36.5464 24.4465 36.3416C24.4465 35.7774 23.9566 35.5726 22.5678 35.5726V34.8799H28.1294V35.5726C26.6882 35.5988 26.2508 35.675 25.1419 38.3175L19.7093 51.2421H18.0624L14.69 44.1644L11.2913 51.2421H9.69477L3.41356 37.7271H3.41137ZM16.748 36.9058C16.9536 36.4963 17.0302 36.2131 17.0302 36.0345C17.0302 35.7012 16.7721 35.5726 15.9235 35.5726H14.9699C14.0689 35.5726 13.8371 35.675 13.8371 36.0083C13.8371 36.2654 13.9398 36.5725 14.2242 37.1629L15.4336 39.6245L16.7458 36.9058H16.748Z" fill="white"/>
<path d="M34.2467 48.449C32.9585 50.3725 31.2592 51.27 29.0196 51.27C25.4154 51.27 24.23 48.5012 24.23 46.1159C24.23 42.7828 26.4695 40.3975 29.5598 40.3975C30.9508 40.3975 32.0574 40.8593 32.7529 41.552C33.9361 42.7306 33.4747 43.9374 34.3757 44.3208V45.0397H26.6773C26.6773 47.8869 28.2476 49.7843 30.5134 49.7843C31.62 49.7843 32.6764 49.194 33.7568 47.9893L34.2467 48.4511V48.449ZM31.4145 44.3208C31.2089 42.1925 30.4368 41.0902 29.1224 41.0902C27.808 41.0902 26.9332 42.1663 26.6773 44.3208H31.4145Z" fill="white"/>
<path d="M35.2505 48.0394H35.8432C36.1516 49.5774 37.1817 50.5773 38.4436 50.5773C39.3447 50.5773 39.9876 50.0131 39.9876 49.1678C39.9876 47.168 35.303 46.0135 35.303 43.3209C35.303 41.6283 36.847 40.3975 38.9335 40.3975C39.629 40.3975 40.3748 40.4998 41.3283 40.7569V43.578H40.7619C40.4272 42.04 39.6815 41.1926 38.6251 41.1926C37.8793 41.1926 37.2866 41.7045 37.2866 42.3973C37.2866 44.3971 42.05 45.116 42.05 48.2703C42.05 49.963 40.4797 51.27 38.472 51.27C37.9821 51.27 37.6234 51.2177 37.3129 51.1676C37.0307 51.1154 36.823 51.0653 36.6174 51.0653C36.4118 51.0653 36.18 51.1676 36.1275 51.2962H35.5873L35.2527 48.0394H35.2505Z" fill="white"/>
<path d="M50.2624 49.1159C49.5166 50.7562 48.305 51.2703 47.0452 51.2703C45.3196 51.2703 44.0839 50.2443 44.0839 47.9112V42.0142H42.9248V41.5262C44.4951 40.7049 45.3962 39.5525 45.9123 37.8076H46.5313V40.6788H50.2646L49.6981 42.012H46.5313V47.6019C46.5313 48.885 46.9184 49.9611 48.0491 49.9611C48.7708 49.9611 49.2082 49.6017 49.6959 48.678L50.2624 49.1137V49.1159Z" fill="white"/>
<path d="M60.662 48.449C59.3738 50.3725 57.6767 51.27 55.4349 51.27C51.8307 51.27 50.6475 48.5012 50.6475 46.1159C50.6475 42.7828 52.887 40.3975 55.9773 40.3975C57.3683 40.3975 58.4749 40.8593 59.1704 41.552C60.3558 42.7306 59.8921 43.9374 60.7932 44.3208V45.0397H53.0948C53.0948 47.8869 54.6651 49.7843 56.9309 49.7843C58.0375 49.7843 59.0939 49.194 60.1743 47.9893L60.6642 48.4511L60.662 48.449ZM57.8297 44.3208C57.6242 42.1925 56.8521 41.0902 55.5377 41.0902C54.2233 41.0902 53.3485 42.1663 53.0926 44.3208H57.8297Z" fill="white"/>
<path d="M61.3071 42.0378V41.5259L64.8348 40.3975H65.4778V42.9615H65.5303C66.5342 41.0641 67.1269 40.3975 67.8224 40.3975C68.2095 40.3975 68.6972 40.7308 70.2412 41.0379L69.3927 43.1401C68.2335 42.9092 67.4877 42.4212 67.1531 42.4212C66.5604 42.4212 66.0202 42.9593 65.48 44.0616V48.3182C65.48 50.1656 65.9437 50.3703 68.0542 50.3442V50.9846H61.3093V50.3442C62.4925 50.3442 63.0349 49.9346 63.0349 48.4206V42.6761L61.3093 42.0356L61.3071 42.0378Z" fill="white"/>
<path d="M72.0368 42.809C71.5469 41.6806 71.2122 41.3734 70.0793 41.3211V40.6807H76.1047V41.3211C74.8427 41.3734 74.4316 41.552 74.4316 42.04C74.4316 42.2448 74.5344 42.528 74.8187 43.1684L77.137 48.5535L79.3503 43.554C79.5821 43.0421 79.6849 42.6565 79.6849 42.3755C79.6849 41.7089 79.0922 41.3756 77.8828 41.3233V40.6828H82.6965V41.3233C81.5133 41.4257 81.1524 41.759 80.3541 43.554L76.9292 51.2722H75.7963L72.0368 42.809Z" fill="white"/>
<path d="M92.0636 48.449C90.7754 50.3725 89.0761 51.27 86.8365 51.27C83.2323 51.27 82.0469 48.5012 82.0469 46.1159C82.0469 42.7828 84.2864 40.3975 87.3767 40.3975C88.7677 40.3975 89.8743 40.8593 90.5698 41.552C91.753 42.7306 91.2915 43.9374 92.1926 44.3208V45.0397H84.4942C84.4942 47.8869 86.0645 49.7843 88.3303 49.7843C89.4369 49.7843 90.4933 49.194 91.5737 47.9893L92.0636 48.4511V48.449ZM89.2313 44.3208C89.0258 42.1925 88.2537 41.0902 86.9393 41.0902C85.6249 41.0902 84.7501 42.1663 84.4942 44.3208H89.2313Z" fill="white"/>
<path d="M92.2891 34.8574L95.9699 33.7812H96.5582V48.4486C96.7179 49.9104 97.1028 50.3461 98.6731 50.3461V50.9865H92.2891V50.3461C93.9119 50.3461 94.2705 49.8341 94.2705 48.27V37.1143C94.2705 35.9357 94.1677 35.6525 92.2891 35.4979V34.8574Z" fill="white"/>
<path d="M106.059 49.1159C105.313 50.7562 104.101 51.2703 102.841 51.2703C101.116 51.2703 99.8801 50.2443 99.8801 47.9112V42.0142H98.7209V41.5262C100.291 40.7049 101.192 39.5525 101.708 37.8076H102.327V40.6788H106.061L105.494 42.012H102.327V47.6019C102.327 48.885 102.715 49.9611 103.845 49.9611C104.567 49.9611 105.004 49.6017 105.492 48.678L106.059 49.1137V49.1159Z" fill="white"/>
<path d="M106.061 53.708H7.16211V54.0348H106.061V53.708Z" fill="#231F20"/>
<path d="M30.1524 63.3345C30.0343 63.2866 29.9665 63.267 29.82 63.267C29.3804 63.267 28.7068 63.4914 27.8757 63.4914C25.599 63.4914 24.3677 62.1669 24.3677 60.4263C24.3677 58.6857 25.4809 57.126 27.9544 57.126C29.0195 57.126 29.7719 57.4462 30.0562 57.4462C30.1349 57.4462 30.1831 57.4266 30.2312 57.3787H30.4761L30.5242 58.9842H30.2312C29.8703 57.9821 29.0786 57.4375 27.9938 57.4375C26.5285 57.4375 25.5509 58.5267 25.5509 60.1714C25.5509 61.8161 26.675 63.1406 28.1688 63.1406C29.1267 63.1406 29.9775 62.6352 30.5242 61.7094H30.8173L30.1524 63.3345Z" fill="white"/>
<path d="M37.7351 57.124C39.8456 57.124 41.3021 58.3788 41.3021 60.2C41.3021 62.0211 39.8959 63.4894 37.6957 63.4894C35.653 63.4894 34.168 62.215 34.168 60.4723C34.168 58.5248 35.6639 57.124 37.7351 57.124ZM37.851 63.1779C39.2091 63.1779 40.1189 62.0778 40.1189 60.444C40.1189 58.6816 39.0932 57.4355 37.6563 57.4355C36.2194 57.4355 35.3512 58.5052 35.3512 60.2087C35.3512 62.1649 36.6109 63.1779 37.8532 63.1779H37.851Z" fill="white"/>
<path d="M44.5432 63.0708C45.149 63.0708 45.324 62.964 45.383 62.1166L45.617 58.5353C45.6761 57.6683 45.5689 57.5419 45.0025 57.5419V57.2783H46.8112L48.9217 61.7855L50.9141 57.2783H52.7228V57.5419C52.176 57.5419 52.0579 57.6595 52.0973 58.1061L52.4494 62.5349C52.4888 63.0316 52.6747 63.0708 53.2499 63.0708V63.3344H50.4745V63.0708C51.275 63.0708 51.4127 62.8769 51.334 61.8443L51.0694 58.2521H51.0497L48.7926 63.3322H48.4602L46.1638 58.3784H46.1441L45.9101 61.9794C45.8423 63.0207 46.0654 63.0207 46.7106 63.0686V63.3322H44.541V63.0686L44.5432 63.0708Z" fill="white"/>
<path d="M56.6596 63.0711C57.3332 63.0428 57.4797 62.9055 57.4797 62.0385V58.5726C57.4797 57.6294 57.3135 57.54 56.5415 57.54V57.2764C56.8258 57.2764 57.3135 57.2568 57.5475 57.2481C58.0156 57.2285 58.6608 57.2002 58.8467 57.2002C60.6925 57.2002 61.6898 57.6185 61.6898 58.9517C61.6898 60.091 60.7428 60.8796 59.365 60.8796C59.1004 60.8796 58.8379 60.86 58.5645 60.812V62.1452C58.5645 62.8946 58.7592 63.0602 59.669 63.0689V63.3325H56.6596V63.0689V63.0711ZM58.5645 60.5223C58.6914 60.5419 58.8379 60.5702 58.9844 60.5702C59.8833 60.5702 60.5088 59.8884 60.5088 58.9342C60.5088 58.2829 60.2158 57.4747 59.0435 57.4747C58.8576 57.4747 58.7111 57.4834 58.5645 57.503V60.5201V60.5223Z" fill="white"/>
<path d="M64.2598 63.0712C64.9137 63.0624 65.0405 62.9535 65.3161 62.1954L67.0854 57.368L67.0067 57.124H68.1002L70.0052 62.1954C70.2895 62.9535 70.3857 63.0712 71.0025 63.0712V63.3347H68.1002V63.0712C68.8723 63.0712 69.0866 62.9927 69.0866 62.7117C69.0866 62.6137 69.0472 62.4481 68.9488 62.1954L68.4808 60.9886H66.2434L65.7645 62.2826C65.6967 62.4677 65.666 62.5941 65.666 62.6921C65.666 62.9753 65.8607 63.1017 66.6437 63.0712V63.3347H64.2598V63.0712ZM68.2949 60.5028L67.3566 58.0411L66.4293 60.5028H68.2949Z" fill="white"/>
<path d="M75.2517 58.3804V62.1186C75.2517 62.8767 75.3501 63.1207 76.2293 63.0727V63.3363H73.8936V63.0727C74.5978 63.0923 74.7137 62.868 74.7137 62.2362V57.8554C74.4797 57.6506 74.2632 57.5722 73.8936 57.5439V57.2803H75.6629L80.0217 61.8637V58.3804C80.0217 57.6506 79.9036 57.533 79.055 57.5439V57.2803H81.4192V57.5439C80.7653 57.5439 80.5597 57.6615 80.5597 58.4V63.393H80.0326L75.2539 58.3804H75.2517Z" fill="white"/>
<path d="M85.9311 58.3307C85.4434 57.6293 85.3165 57.5726 84.7107 57.5421V57.2785H87.6523V57.5421C87.1252 57.5421 86.9677 57.6489 86.9677 57.8253C86.9677 57.9517 87.0465 58.1172 87.3002 58.4767L88.5796 60.2957L89.6928 58.5333C89.9181 58.1739 90.0143 57.9778 90.0143 57.8428C90.0143 57.6293 89.8284 57.54 89.3888 57.54V57.2764H91.6852V57.54C90.9722 57.6184 90.7951 57.7447 90.1718 58.7468L88.853 60.8686V62.2214C88.853 62.9425 88.9711 63.0688 89.7803 63.0688V63.3324H86.8299V63.0688C87.5735 63.0688 87.7682 63.0013 87.7682 62.1931V60.9579L85.9311 58.3307Z" fill="white"/>
<path d="M64.8566 11.4502L65.0753 11.1888L65.084 10.5091L65.0469 9.812L64.5963 9.53752L63.4634 8.86874L62.7264 8.06054L62.2474 6.96914L61.0139 5.66644L60.2966 5.25472L59.0084 4.86042L57.3331 4.81467L55.9706 4.5293L54.958 4.86042L54.6737 5.49434L54.6277 6.52256L54.9689 7.09985L55.2729 7.36562L55.2642 7.45711L55.1439 7.67713L55.2904 7.75991L55.6119 7.92548L55.5485 8.04529L55.1067 8.37641L54.444 8.45048L53.7442 8.96459L53.1733 9.57019L51.9573 9.64426L50.632 10.1388L52.0995 11.6354C42.1265 14.4085 35.187 23.6603 35.187 34.5808C35.187 35.1407 35.2614 35.7005 35.2986 36.2517H82.3683C82.4055 35.7005 82.4186 35.1472 82.4274 34.5873C82.6089 23.4359 75.1007 13.8879 64.8588 11.4545L64.8566 11.4502Z" fill="url(#paint0_linear_4058_19111)"/>
<path d="M67.9644 17.4347C68.1109 17.4434 68.3602 17.4172 68.4543 17.2626C68.5177 17.158 68.404 16.9031 68.7342 16.8465C69.0098 16.7986 69.0907 16.6395 69.0273 16.5132C68.8917 16.2409 68.5658 16.3498 68.5352 16.2627C68.3077 15.6113 67.621 15.7834 67.4111 15.7899C67.0677 15.8008 66.978 15.3521 67.2536 15.2845C67.6888 15.1756 67.3957 14.8162 67.9819 14.8075C68.1656 14.8053 68.3209 14.4785 67.8791 14.3347C67.7982 14.3086 67.8791 14.1779 67.7872 14.0428C67.4745 13.5897 66.8643 13.8337 66.9933 13.3327C67.0436 13.1431 67.3367 13.0429 67.2077 12.7946C67.118 12.6225 66.9343 12.6987 66.8271 12.592C66.7528 12.5201 66.8534 12.287 66.4006 12.2434C66.2322 12.226 66.0332 12.1563 65.9917 11.9058C65.9282 11.5289 65.7445 11.4265 65.458 11.3677C65.3224 11.3394 65.1978 11.3546 65.1387 11.1717C65.0884 11.017 65.1606 10.8427 65.3027 10.8122C65.434 10.7861 65.6155 10.8536 65.7117 10.712C65.8714 10.4767 65.5936 10.333 65.5914 10.1151C65.5914 9.93866 65.7751 9.88638 65.8058 9.72736C65.8364 9.57269 65.7401 9.45069 65.6308 9.4093C65.5039 9.3592 65.3487 9.41366 65.294 9.22196C65.2677 9.13046 65.2874 8.87559 64.885 8.86034C64.7079 8.8538 64.6619 8.65339 64.3514 8.87777C64.2005 8.98669 63.9621 9.03679 63.9008 8.75795C63.8024 8.30048 63.3628 8.52704 63.4284 8.23077C63.4656 8.06085 63.5793 8.04125 63.6974 8.02818C64.2092 7.97372 64.0211 7.4901 63.903 7.36158C63.6581 7.09363 64.1086 7.14809 64.2704 6.89975C64.3907 6.71676 64.4301 6.34643 63.7696 6.27454C63.6034 6.25711 63.6165 6.02184 63.5531 5.96084C63.295 5.70379 62.9648 6.0763 62.8445 6.09155C62.6695 6.11333 62.6061 5.9957 62.4705 5.9042C62.2474 5.75389 61.9128 6.11333 61.751 5.88895C61.5476 5.60794 61.9172 5.48159 61.9128 5.25067C61.8997 4.69082 60.9724 5.01322 60.8586 4.99797C60.5218 4.95223 60.5437 4.76488 60.3316 4.76924C60.1872 4.77142 59.9335 4.85856 59.892 4.59932C59.846 4.32484 60.3206 4.41198 60.3819 4.20285C60.4715 3.8848 60.1041 3.92183 60.1194 3.54496C60.1391 3.06135 59.5092 3.33365 59.4174 3.36197C59.2555 3.41208 59.0849 3.28573 59.2402 3.10274C59.3321 2.99382 59.4589 2.935 59.3627 2.75419C59.2949 2.62784 59.1943 2.49713 59.3299 2.35553C59.4108 2.27058 59.5814 2.21829 59.5311 2.00481C59.4874 1.81528 59.2577 1.83271 59.1506 1.79132C59.0106 1.73686 59.1965 1.50812 58.5294 1.45148C58.3676 1.43841 58.5404 0.939552 57.9608 0.917768C57.7815 0.911233 57.7093 1.01798 57.5824 1.0463C57.1756 1.13561 57.2609 1.32949 57.1516 1.38395C57.0488 1.43406 56.6682 1.3796 56.5042 1.63447C56.4408 1.7325 56.4495 1.84578 56.4408 1.96124C56.3708 2.11809 55.8372 2.28582 56.1521 2.61259C56.2352 2.69973 55.9924 2.63002 55.9028 2.64527C55.636 2.69101 55.824 2.9045 55.4719 2.87182C55.122 2.83915 55.3473 2.9655 54.958 2.91975C54.8158 2.90232 54.5709 3.11799 54.619 3.32929C54.6518 3.47961 54.7655 3.43822 54.6343 3.56457C54.6124 3.58635 54.4528 3.53842 54.3478 3.72795C54.2406 3.92183 54.2144 3.88697 54.1028 3.93272C53.5976 4.13749 54.0744 4.42069 54.0941 4.47515C54.1356 4.58625 53.6348 4.64943 53.9388 5.14175C54.011 5.26157 54.1838 5.21364 54.2472 5.36177C54.3259 5.54694 54.2144 5.61447 54.1203 5.72122C54.0066 5.85192 54.1006 6.0153 54.0263 6.14601C53.9563 6.268 53.7945 6.16997 53.6917 6.17869C53.5189 6.19176 53.3592 6.21136 53.3439 6.4096C52.6769 6.53159 52.9175 7.03045 53.193 6.98689C53.2018 7.1067 53.1733 7.20909 53.2455 7.2984C53.3483 7.42693 53.6217 7.43782 53.7267 7.2984C53.7792 7.22869 53.7573 7.1067 53.8207 7.03699C53.9235 6.92153 54.0657 7.05442 54.1816 6.96074C54.2603 6.89757 54.2647 6.77558 54.339 6.72547C54.5731 6.56645 54.6846 6.91064 54.7065 7.07838C54.7415 7.34197 55.3145 7.33761 55.1023 7.501C54.8399 7.70141 55.0848 7.82558 55.227 7.80162C55.3538 7.78201 55.4194 8.04125 55.2379 8.09353C55.1154 8.12838 54.9777 8.1066 54.8596 8.1066C54.748 8.1066 54.7349 8.15235 54.6496 8.21117C54.4593 8.34405 54.3675 8.1676 54.1838 8.14581C54.0678 8.13274 53.941 8.12185 53.8251 8.14581C53.637 8.1872 53.6873 8.36148 53.5429 8.48129C53.4095 8.59021 53.1952 8.45733 53.0399 8.51397C52.9284 8.55318 52.7665 8.59457 52.6856 8.70567C52.4276 9.06293 52.8715 8.97362 52.9065 9.19364C52.9524 9.48119 52.3423 9.21325 52.2788 9.18928C52.152 9.14354 51.4434 8.96273 51.345 9.28949C51.2968 9.44852 51.4609 9.49426 51.3778 9.5814C51.1525 9.68814 51.0497 9.57487 50.8966 9.5313C50.4592 9.4093 50.4876 9.662 50.5029 9.69468C50.3717 9.74696 49.8293 9.68814 49.884 10.0563C49.7462 10.0759 49.5931 10.0149 49.51 10.1979C49.4335 10.3656 49.4422 10.5595 49.5691 10.6641C49.6915 10.7643 49.8578 10.7469 49.9781 10.8144C50.0852 10.8732 50.1465 11.1237 50.0284 11.2152C49.9015 11.3154 49.6915 11.2632 49.5428 11.2849C49.2935 11.3198 49.2563 11.5507 49.2104 11.6161C49.1054 11.7685 48.8867 11.6879 48.7555 11.7577C48.6155 11.8339 48.4996 12.0365 48.6243 12.1977C48.7314 12.3349 48.937 12.2543 49.0289 12.4047C49.0726 12.4787 49.0223 12.7358 49.2935 12.8251C49.5078 12.8948 49.5778 12.7183 49.4357 12.5266C49.5297 12.2892 49.8928 12.3959 49.9234 12.6443C49.9431 12.7989 49.8468 12.8687 50.0021 12.9754C50.0787 13.0299 50.3345 13.1148 50.3039 12.8948C50.3936 12.8425 50.5117 12.9318 50.5948 12.8578C50.6735 12.7859 50.6407 12.6595 50.656 12.5593C50.8747 12.3088 50.8507 12.8207 51.4084 12.8207C51.7014 12.8207 52.1345 13.0015 51.9027 13.1932C51.8327 13.2499 51.4018 13.2738 51.5418 13.6442C51.5943 13.7836 51.8042 13.9513 51.6533 14.0995C51.5309 14.2193 51.334 14.106 51.1941 14.1387C51.0978 14.1626 51.0475 14.2019 50.995 14.3108C50.9316 14.4415 50.9469 14.4894 50.8091 14.4589C50.6757 14.4284 50.4308 14.2716 50.3214 14.472C50.2624 14.5787 50.3192 14.6593 50.2121 14.7181C50.0699 14.7988 49.8906 14.7987 49.9234 15.0711C49.9387 15.1843 50.0109 15.3739 49.9059 15.3586C49.521 15.3041 49.6019 15.718 49.3088 15.6788C49.1535 15.6571 48.9436 15.5089 48.8714 15.8052C48.7183 15.8945 48.5521 15.7834 48.4143 15.9381C48.3203 16.0448 48.3553 16.2322 48.4777 16.2801C48.5936 16.3258 48.7139 16.2147 48.8386 16.2932C48.6636 16.7158 49.1098 16.7027 49.2585 16.6831C49.3132 16.6766 49.6959 16.6766 49.5538 16.8421C49.4575 16.9554 49.1032 16.9293 49.0595 17.0665C48.9961 17.2604 49.2104 17.3933 49.5406 17.3366C49.7287 17.3039 49.6675 17.4717 49.8687 17.4717C50.1989 17.4695 50.1836 17.1798 50.3039 17.0796C50.492 16.9205 50.7916 17.1558 50.9972 16.8922C51.17 16.67 51.4849 16.8443 51.6008 16.8334C51.778 16.8182 52.0361 16.7027 52.1717 16.9031C52.4516 17.3148 51.8873 17.3039 51.7146 17.3758C51.6337 17.4085 51.4893 17.4957 51.4784 17.6176C51.4609 17.7963 51.6905 17.9531 51.3362 18.0163C51.24 18.0337 50.9382 18.1492 50.9316 18.3278C50.9272 18.4389 51.1328 18.6655 50.761 18.5849C50.632 18.5565 50.422 18.3474 50.2908 18.4542C50.1771 18.5457 50.2339 18.696 50.0546 18.7178C49.7331 18.757 49.4685 18.3932 49.1448 18.4389C48.9873 18.4607 48.7227 18.6524 48.7927 18.8986C48.8495 19.1012 49.0245 18.9574 49.1404 19.0336C49.241 19.099 49.0136 19.3255 49.3832 19.3473C49.4575 19.3517 49.8271 19.3125 49.7069 19.5042C49.6631 19.5739 49.2563 19.4279 49.1732 19.6937C49.1382 19.8048 49.2038 19.8375 49.2301 19.9311C49.3394 20.3211 48.878 20.1381 48.7402 20.1011C48.5958 20.0597 48.5018 20.1359 48.3728 20.1686C48.1256 20.2339 48.095 20.0749 47.955 19.8919C47.8435 19.746 47.6051 19.6675 47.4717 19.8113C47.347 19.9442 47.4301 20.0553 47.2333 20.0531C47.1196 20.0531 46.9621 20.0662 46.9118 20.2252C46.7937 20.6043 47.4148 20.5672 47.4411 20.8918C47.4848 21.4255 46.6603 20.8722 46.5859 21.3798C46.5772 21.4452 46.6406 21.5824 46.4481 21.6151C46.2644 21.6477 46.0173 21.5388 45.8708 21.7175C45.7199 21.8983 45.8883 22.0181 46.0195 22.0595C46.2557 22.1335 46.0829 22.4647 46.4088 22.5344C46.481 22.5496 46.68 22.5365 46.6319 22.6934C46.1944 22.8132 46.3454 23.2336 46.435 23.3077C46.7434 23.5626 46.9862 23.1378 47.1196 23.2162C47.6292 23.5168 48.001 22.8502 48.2634 23.2968C48.3553 23.4515 48.2044 23.6432 48.3924 23.7216C48.4952 23.7652 48.6702 23.6998 48.6943 23.8872C48.7292 24.1595 48.0447 23.9111 47.9113 24.2096C47.85 24.349 47.9485 24.508 47.8894 24.6518C47.7976 24.8696 47.6401 24.8326 47.4826 24.8435C47.358 24.8522 47.1524 24.9415 47.1742 25.142C46.9074 25.3358 46.5269 24.7694 46.1791 25.155C45.9801 25.3772 46.2754 25.5885 46.4394 25.606C46.7434 25.6386 46.4831 25.8565 46.634 26.0308C46.8309 26.2573 47.0605 26.0634 47.2158 26.107C47.721 26.2464 47.5504 25.8151 47.6991 25.728C48.0228 25.5363 48.4821 25.802 48.3837 26.1484C48.3006 26.4359 48.3465 26.8956 48.6221 26.9522C48.8955 27.0089 48.843 26.3815 49.1273 26.6189C49.3088 26.7692 49.1929 27.0307 49.1973 27.2441C49.2038 27.5056 49.3438 27.499 49.4947 27.5034C49.6631 27.5099 49.7069 27.7212 49.8534 27.78C49.9584 27.8236 50.013 27.8193 50.1071 27.7539C50.3411 27.5905 50.562 27.8759 50.7457 27.7757C50.9382 27.6711 50.8463 27.3749 50.6276 27.2616C50.4242 27.157 50.4986 26.9239 50.7654 26.8564C50.9316 26.815 51.1175 26.8978 51.3537 26.8193C51.6971 26.7061 51.7321 26.388 51.6818 26.009C52.187 26.1397 52.1082 25.4143 52.4166 25.7432C52.5981 25.9371 52.4735 26.3423 52.76 26.4076C52.9328 26.4468 53.169 26.4555 53.2368 26.2116C53.2652 26.1048 53.2696 25.9153 53.5058 25.9262C53.5692 25.9284 53.8644 25.9502 53.7901 25.7802C53.742 25.667 53.5298 25.667 53.5429 25.4949C53.5604 25.277 53.8535 25.3663 53.9476 25.4404C54.0985 25.5602 54.1138 25.7889 54.2494 25.9175C54.3872 26.0482 54.7436 26.0046 54.8508 25.8456C54.9295 25.7301 54.9164 25.5667 55.0542 25.5885C55.2182 25.6125 55.5813 25.2095 55.192 25.0221C54.9645 24.9132 54.6583 25.2487 54.549 25.1507C54.4812 25.0919 54.4681 24.9611 54.3806 24.9263C54.28 24.8849 54.0635 25.0417 53.9913 24.9001C54.1728 24.8195 54.3347 24.6954 54.4331 24.5799C54.6452 24.3294 55.0367 23.6693 55.8743 23.5844C57.0226 23.384 57.6218 24.8195 57.893 25.4186L57.9061 36.2498L58.9865 36.2345L58.7875 27.4141C58.8553 27.2877 59.3714 26.1789 59.8438 25.6386C60.5984 24.776 61.3595 25.0657 61.5563 25.1115C61.9719 25.2073 62.617 25.2291 62.8554 25.2073C63.19 25.1746 63.4875 25.3032 63.7696 25.4949C63.8068 25.558 63.8352 25.6234 63.8199 25.6996C63.7565 26.0003 63.1222 25.7868 62.9779 25.7998C62.6192 25.8325 62.7592 26.0308 62.6542 26.1135C62.5536 26.1941 62.1424 26.0199 62.0003 26.3815C61.8056 26.8738 62.5033 26.9718 62.5492 27.1505C62.6498 27.5426 63.2753 27.3901 63.4087 27.2354C63.5268 27.0982 63.4 27.0524 63.5684 27.0045C63.7368 26.9544 64.1961 27.0677 64.2355 26.7736C64.2551 26.6342 64.0496 26.6756 63.9839 26.608C63.7915 26.4011 64.0758 26.2508 64.1917 26.1941C64.2967 26.144 64.371 26.1005 64.4257 26.0329C64.4826 26.083 64.5416 26.1331 64.5985 26.1811C64.8281 26.3706 65.0928 26.5035 65.3552 26.5971C65.4777 26.6407 65.6024 26.6669 65.7314 26.6843C65.7511 26.6865 65.7686 26.6865 65.7883 26.6843C65.7861 26.6908 65.7817 26.6952 65.7795 26.7039C65.6155 27.2376 65.1518 26.7976 65.025 27.3073C64.9878 27.4598 65.1321 27.5339 65.0731 27.5622C64.6204 27.7888 64.9572 28.0545 65.1212 28.0001C65.4383 27.8911 65.5936 27.9783 65.8058 28.2048C66.1098 28.5272 66.4006 28.2397 66.5822 28.2833C66.7156 28.3159 67.0764 28.3072 67.0764 27.9805C67.0764 27.7844 67.4198 28.0349 67.6013 27.865C67.7413 27.7343 67.5991 27.5731 67.6166 27.4685C67.6582 27.2028 68.5658 27.2899 68.3099 26.9196C68.2115 26.778 68.0453 26.8673 67.9359 26.7801C67.8506 26.7126 68.0322 26.4795 67.7194 26.3967C67.6341 26.3749 67.4395 26.3967 67.5423 26.2312C67.6363 26.0809 68.0081 26.2312 68.4018 25.9327C68.5746 25.802 68.4324 25.6975 68.5155 25.5232C68.5789 25.3925 68.778 25.4709 68.8086 25.3228C68.8873 24.9524 68.4171 25.0374 68.2837 24.996C68.159 24.9568 68.0322 24.8108 68.065 24.6366C68.1284 24.3098 68.5571 24.4296 68.7189 24.2183C68.7976 24.1159 68.732 23.9896 68.7539 23.8676C68.8961 23.8022 68.966 23.6868 68.966 23.5822C68.966 23.3055 68.638 23.4079 68.5024 23.384C68.4149 23.3687 68.3821 23.2881 68.3099 23.2533C68.03 23.1138 67.7325 23.7565 67.5466 23.4079C67.4417 23.2119 67.2514 23.3491 67.2776 23.0703C67.3301 22.5104 66.5997 22.9526 66.2432 22.713C66.1098 22.6237 66.0179 22.53 66.1032 22.334C66.2016 22.1118 66.4072 22.1771 66.5669 22.1009C66.7593 22.0094 66.6106 21.8547 66.6959 21.7131C66.7812 21.5737 67.3476 21.6586 67.1705 21.2447C66.9299 20.6871 66.2563 20.9615 65.9895 21.1859C65.7226 21.4125 65.8014 20.9093 65.4208 20.9049C64.979 20.9005 64.8938 20.7306 64.7144 20.454C64.3864 19.9442 63.763 20.1032 63.4612 20.088C63.1004 20.0706 62.8707 19.5739 63.4241 19.4606C63.669 19.4105 63.4197 19.1251 63.5946 19.0619C64.1436 18.8659 64.1895 19.8309 64.8391 19.6719C65.0797 19.6131 65.0818 20.0248 65.8932 19.9115C66.4728 19.8309 66.1098 19.5586 66.4619 19.5368C66.5603 19.5303 66.6653 19.502 66.6281 19.3495C66.4509 18.6067 64.9331 19.2994 64.7866 18.8419C64.651 18.4193 65.1846 18.7374 65.1059 18.3343C65.049 18.0403 64.6269 18.1013 64.4826 18.1013C64.242 18.1013 63.1682 18.0838 63.3956 17.598C63.5225 17.3301 63.8221 17.3432 64.0277 17.3628C64.4257 17.4042 64.4192 17.1406 64.7625 17.2735C64.9003 17.3279 65.0228 17.4325 65.1781 17.3562C65.353 17.2713 65.5521 17.0534 65.7336 17.2146C65.9807 17.4347 66.1841 17.3148 66.405 17.4281C66.674 17.5632 66.7024 17.9967 67.1552 18.0207C67.2536 18.0272 67.5007 17.9836 67.4898 17.7985C67.4789 17.6133 67.2252 17.5741 67.3651 17.4499C67.5379 17.2974 67.7894 17.4172 67.9666 17.4281L67.9644 17.4347ZM62.7832 16.1516C62.6651 15.9664 62.5099 15.8444 62.6717 15.6549C62.8248 15.4784 63.1135 15.6701 63.2841 15.5503C63.5181 15.3847 63.2097 15.2649 63.2032 15.1734C63.1813 14.8772 63.5443 15.0514 63.6537 14.6288C63.6537 14.6245 63.6559 14.6201 63.6581 14.6158C63.6624 14.8815 63.7784 15.217 63.8593 15.3412C63.5837 15.6963 63.225 15.8793 62.8576 16.1036C62.8336 16.1189 62.8095 16.1363 62.7854 16.1537L62.7832 16.1516ZM60.6574 18.7439C60.4125 18.733 59.1877 18.232 59.0128 18.9116C58.9231 19.2667 59.4305 19.1665 59.6164 19.234C59.7935 19.2994 59.752 19.4345 59.7279 19.6305C59.7017 19.8462 59.7279 19.9856 59.9138 20.0466C60.0188 20.0815 60.161 20.0422 60.2485 20.1316C60.3666 20.2535 60.2703 20.332 60.2485 20.4583C60.1894 20.8003 60.6443 20.809 60.6421 21.162C60.6421 21.4059 60.489 21.5149 60.3162 21.5497C60.0779 21.5976 59.6033 21.138 59.2118 21.1772C59.0587 21.1925 59.0018 21.236 58.9931 21.4343C58.9843 21.6456 58.8356 21.6543 58.6541 21.5911L58.5797 18.3082C58.7372 18.2145 58.8881 18.11 59.0259 17.9727C59.203 18.0577 59.319 18.2124 59.5639 18.2232C59.7979 18.2341 60.0319 18.0751 60.2528 18.2102C60.4825 18.3496 60.6552 18.4999 60.9155 18.5478C60.9658 18.5565 61.0183 18.5631 61.0708 18.5674C60.9417 18.6611 60.8149 18.7504 60.6574 18.7439ZM56.5589 21.7763C56.6376 22.0573 57.1319 22.0616 57.2697 22.0442C57.4293 22.0246 57.7027 21.8329 57.8842 21.92V22.7849C57.7158 22.628 56.876 22.0965 56.1608 21.9505C55.7344 21.8634 55.3013 21.968 54.8749 22.005C54.5053 22.0377 54.2756 21.7828 53.9541 21.6172C53.5298 21.3994 52.7906 21.9614 52.784 21.9614C52.3576 21.8983 52.2417 21.358 51.9333 21.0705C51.9289 21.0661 51.8699 20.9136 52.0404 20.6544C52.1804 20.4431 52.2788 19.9551 52.2985 19.6327C52.4079 19.6327 52.5216 19.6174 52.62 19.6479C52.7665 19.6915 52.9678 19.7569 52.9306 20.0009C52.76 20.1054 52.515 20.1076 52.3794 20.2862C52.2701 20.43 52.2723 20.637 52.3641 20.7916C52.4691 20.9703 52.6091 20.9942 52.7731 20.9899C53.0246 20.9855 53.0115 21.6325 53.4817 21.3014C53.6414 21.1881 53.7135 21.4604 53.8885 21.1968C54.0394 20.9659 54.2603 20.9136 54.4528 20.9027C54.6299 20.8918 54.8836 21.0748 54.9536 20.7589C55.0476 20.7372 55.3582 20.8308 55.3735 20.6522C55.3823 20.5498 55.2467 20.5193 55.2729 20.4126C55.3145 20.247 55.6425 20.3342 55.7409 20.3124C55.859 20.2862 55.8787 20.1795 55.9531 20.0858C56.0865 19.9181 56.467 20.1533 56.6814 19.9791C56.8148 19.8723 56.6748 19.6501 56.4845 19.6436C56.2527 19.6349 56.1084 19.8593 55.8109 19.6349C55.7541 19.5913 55.3932 19.282 55.2773 19.6022C55.1701 19.8919 55.0214 19.7024 54.9427 19.6654C54.7349 19.5695 54.5074 19.7329 54.5337 20.0161C54.549 20.1621 54.5512 20.1838 54.4287 20.2492C54.339 20.2993 54.2275 20.2775 54.1291 20.3145C53.8448 20.4169 54.1531 20.8243 53.9366 20.8918C53.6261 20.9877 53.696 20.6021 53.4883 20.5106C53.3877 20.467 53.1843 20.7263 53.0049 20.4779C52.9306 20.1599 53.3636 20.1119 53.5145 20.1141C53.6523 20.1141 53.6917 20.0749 53.766 19.9486C53.8491 19.8091 53.8973 19.8244 54.0285 19.7808C54.2166 19.7177 54.4265 19.4236 54.2625 19.1992C54.1794 19.0859 53.9629 19.0053 54.1313 18.9116C54.4637 18.7265 54.3325 18.3256 53.9694 18.3474C53.8338 18.3561 53.766 18.2864 53.7179 18.208C53.8513 18.1535 53.9804 18.0838 54.1138 18.0359C54.4681 17.9074 54.7218 18.1884 55.052 18.2625C55.3516 18.33 55.6272 18.0969 55.8918 17.9662C56.209 17.8093 56.513 17.9379 56.8017 18.1056C57.04 18.33 57.1363 18.6829 57.1691 19.1709C57.1866 19.4345 57.1735 19.7046 57.2259 19.9616C57.2872 20.2579 57.6437 20.8679 57.8252 21.1576C57.1275 20.9005 57.1603 21.4255 56.8476 21.4038C56.7032 21.395 56.5042 21.5606 56.5655 21.7785L56.5589 21.7763ZM51.6205 24.2335C51.3821 24.1922 51.1241 24.0876 50.8726 24.0462C50.9272 24.031 50.9907 24.0244 51.0278 24.0113C51.1525 23.9656 51.1438 23.824 51.041 23.7369C51.7671 23.3251 52.6769 22.7195 53.0859 22.8241C53.0377 23.2184 52.7403 23.3077 52.7097 23.7085C52.6813 24.0615 52.2329 24.3403 51.6227 24.2357L51.6205 24.2335ZM50.9819 23.6998C50.9163 23.665 50.8288 23.6497 50.7216 23.6715C50.5248 23.7151 50.4548 23.5713 50.293 23.5343C50.328 23.4929 50.363 23.4493 50.398 23.4036C50.5073 23.2598 50.6079 23.1051 50.7348 22.9853C50.8988 22.8306 51.1372 22.811 51.334 22.7958C51.7496 22.7631 52.1017 22.7174 52.4888 22.5082C52.7469 22.3666 53.0137 22.1553 53.2936 22.0246C53.2389 22.0878 53.123 22.3928 53.1055 22.6259C53.0684 22.6324 52.1804 22.7086 50.9797 23.702L50.9819 23.6998ZM54.8158 12.2369C54.6824 12.0844 54.3806 12.0038 54.2187 12.1302C54.011 12.2892 54.4025 12.5942 54.0569 12.5985C53.9935 12.5985 53.9476 12.616 53.9169 12.6443C53.7966 12.5441 53.6764 12.4417 53.5517 12.3611C53.6895 12.3175 53.8491 12.2805 53.8754 12.1193C53.9191 11.86 53.7004 11.7337 53.4511 11.6574C53.4861 11.4636 53.4183 11.1891 53.497 11.0279C53.5954 10.8253 53.8273 10.8928 54.1247 10.8013C54.2384 10.8188 55.1198 10.9821 54.9427 11.5594C54.8749 11.7773 54.6343 12.2151 55.0761 12.5484C55.251 12.6813 55.4741 12.6051 55.66 12.5005C55.9028 12.3654 56.0624 12.104 56.3424 12.2848C56.4823 12.3763 56.5633 12.5789 56.6311 12.7837C56.3992 12.836 56.1915 13.0604 55.9618 13.1453C55.7737 13.2129 55.5682 13.019 55.391 12.9602C55.1964 12.8948 55.0105 12.9427 54.818 12.995C54.6124 13.0495 54.4309 12.995 54.2603 12.8926C54.2822 12.8621 54.2997 12.836 54.315 12.8207C54.479 12.6682 54.7546 12.8251 54.8967 12.5942C54.9689 12.4765 54.8902 12.3175 54.818 12.2347L54.8158 12.2369ZM53.3636 12.4678C53.5211 12.5593 53.6654 12.6726 53.8251 12.8142C53.8557 12.8403 53.8863 12.8665 53.9169 12.8926C53.8316 13.1649 53.4183 12.8294 53.3636 12.6878C53.3242 12.5833 53.3308 12.5158 53.3636 12.4678ZM56.7251 13.056C56.7295 13.0691 56.8017 13.1824 56.9219 13.3174C56.7185 13.4721 56.5414 13.5069 56.0078 13.4111C56.3161 13.3348 56.5239 13.0342 56.7251 13.056ZM57.7968 10.736C57.5453 10.5835 57.4359 10.2654 57.3112 9.92777C57.4796 9.85153 57.6852 9.71646 57.858 9.64022V10.6619C57.8274 10.675 57.8033 10.6989 57.7968 10.7381V10.736ZM59.4021 10.2937C59.2905 10.2131 59.1484 10.0868 59.3058 9.93213C59.4152 9.82539 59.6908 10.004 59.8395 9.73825C59.8985 9.63368 60.0297 9.63368 60.1566 9.6315C60.2178 9.84499 60.2353 10.2153 60.4562 10.309C60.6377 10.3874 60.828 10.4441 61.0205 10.4789C60.9942 10.5464 60.9089 11.0823 60.3775 11.2261C60.0013 11.3285 59.1221 11.5289 58.4463 12.2696C58.4463 12.2696 58.4376 11.9363 58.4266 11.4418C58.5885 11.4352 58.8269 11.2915 58.8487 11.0976C58.8619 10.9647 58.9625 10.9908 59.0696 10.993C59.5027 11.0017 59.822 10.5944 59.4064 10.2894L59.4021 10.2937ZM63.5728 10.736C63.306 10.7164 62.8007 11.1237 63.1944 11.4788C63.306 11.579 63.3147 11.7424 63.1944 11.8252C62.7351 12.1389 61.9565 11.7402 61.7597 11.6553C61.5957 11.5856 61.307 11.6204 61.1648 11.7664C60.968 11.9711 61.0205 12.2652 60.6224 12.2456C60.4103 12.2369 60.3009 12.3044 60.22 12.5746C60.0757 13.0473 59.6864 12.3349 59.2162 12.6181C59.0128 12.7401 59.1593 12.934 58.8925 12.9776C58.6935 13.0103 58.4944 13.1257 58.5426 13.3653C58.571 13.5048 58.5404 13.5941 58.4748 13.6442L58.4529 12.6813C58.7525 12.3458 59.0609 12.0343 59.4371 11.8252C60.5087 11.2218 61.2523 11.4352 61.4513 11.4091C62.0834 11.322 61.8953 11.0235 62.1403 10.7164C62.2999 10.5181 62.5842 10.5421 62.7614 10.431C62.9582 10.5443 63.4765 10.736 64.0255 10.5225C64.0211 10.5399 64.0146 10.5573 64.0124 10.5748C63.9643 10.8166 63.7215 10.749 63.5728 10.7381V10.736ZM60.4956 16.4914C60.4737 16.5132 60.4584 16.535 60.4453 16.5567C60.1981 16.6461 59.8767 16.7441 59.5552 16.6853C59.6733 15.9141 59.9904 15.3913 60.3228 15.0013C60.3644 15.0253 60.4059 15.0471 60.4431 15.0732C60.6487 15.2279 60.8127 15.5307 61.132 15.4065C61.3813 15.3085 61.2895 15.058 61.6219 15.058C61.8559 15.058 61.6591 15.315 61.7575 15.4654C61.8953 15.6701 62.2365 15.4654 62.2649 15.6767C62.2955 15.9032 61.974 15.9185 61.8844 15.9206C61.7422 15.925 61.6088 15.9185 61.576 16.1428C61.5607 16.2431 61.5957 16.2888 61.5191 16.352C61.3726 16.4718 60.7471 16.2496 60.4978 16.4936L60.4956 16.4914ZM57.8799 20.5062C57.8514 20.4518 57.8208 20.3995 57.7902 20.3472C57.6765 20.1577 57.5715 19.9638 57.5212 19.7351C57.4709 19.5172 57.4731 19.2994 57.4643 19.075C57.4687 19.075 57.6809 18.7395 57.8777 18.7112L57.8821 20.5062H57.8799ZM58.7219 16.2213C58.6016 16.0012 58.6082 15.8183 58.9931 15.7115C59.1462 15.6679 59.2009 15.546 59.214 15.3673C59.2315 15.095 59.4567 14.899 59.6601 14.8663C59.846 14.838 60.0516 14.8728 60.2375 14.9556C59.9576 15.2323 59.7214 15.6157 59.577 15.9969C59.3671 16.5502 59.3955 17.1645 59.039 17.6351C58.9625 17.7353 58.6956 17.9444 58.5754 18.0163L58.5447 16.6286C58.7263 16.5916 58.8509 16.4565 58.7241 16.2213H58.7219ZM58.5141 10.5769C58.4923 10.6183 58.4529 10.6423 58.4048 10.6554C58.4048 10.5944 58.4026 10.5334 58.4004 10.4724C58.4879 10.4898 58.5426 10.5181 58.5141 10.5791V10.5769ZM56.2418 15.7682C56.5523 15.7573 57.18 15.6178 57.2391 15.9119C57.1494 16.2627 56.841 16.2975 56.7448 16.3563C56.6092 16.4369 56.4867 16.5524 56.4277 16.7049C56.3271 16.5088 56.2155 16.3258 56.1477 16.1058C56.1127 15.9947 56.0952 15.8793 56.0799 15.7616C56.1368 15.7703 56.1958 15.7703 56.244 15.7682H56.2418ZM57.0707 16.3716C57.1144 16.3476 57.156 16.3149 57.1931 16.2757C57.3309 16.3672 57.6765 16.2844 57.8711 16.3237L57.8755 18.3866C57.7508 18.4607 57.5168 18.6023 57.4162 18.757C57.3353 18.1361 56.8585 17.6198 56.572 17.0164C56.4255 16.7071 56.7645 16.5415 57.0685 16.3716H57.0707ZM59.6951 17.9727C59.507 17.9902 59.3977 17.9597 59.2009 17.7701C59.3583 17.561 59.4633 17.2277 59.518 16.8879C59.857 16.8835 60.1588 16.8029 60.3972 16.7071C60.3972 16.8487 60.5196 16.9619 60.5721 16.9794C60.9724 17.1079 60.664 17.2647 60.7252 17.5675C60.734 17.6089 60.7449 17.646 60.7602 17.6786C60.36 17.8377 59.9313 17.9488 59.6951 17.9706V17.9727ZM63.7499 14.4589C63.8768 14.3761 64.0867 14.5548 64.3732 14.5482C64.183 14.7987 64.0386 15.1386 63.9424 15.2214C63.8243 15.0209 63.7259 14.7116 63.7499 14.4567V14.4589ZM64.3536 9.78617C64.8588 9.8537 64.7144 10.2829 64.4126 10.2611C64.2376 10.2502 64.1327 10.3221 64.0736 10.4157C63.6953 10.4724 63.1529 10.5312 62.8948 10.2785C63.0501 10.1347 63.1113 9.85588 63.2294 9.67289C63.2688 9.6119 63.3081 9.56397 63.3475 9.52476C63.5443 9.52476 63.7871 9.47248 63.8724 9.64458C63.9664 9.83628 64.1786 9.76221 64.3514 9.78617H64.3536ZM62.6192 9.72518C62.8226 9.5204 62.6783 9.21107 63.0763 9.28949C63.0763 9.4093 63.1201 9.46812 63.1879 9.49862C63.1069 9.58576 63.0391 9.68597 62.9976 9.78835C62.5952 10.7861 62.0878 10.028 61.7969 10.9495C61.7116 11.2196 61.3332 11.1738 60.9286 11.1259C61.1605 10.871 61.2348 10.2001 61.5672 9.7535C61.7269 10.0214 62.3546 9.9953 62.6192 9.72736V9.72518ZM61.5651 9.4398C61.5388 9.50298 61.5279 9.55744 61.5279 9.60754C61.3092 9.83846 61.1167 10.2284 61.0927 10.2894C60.9133 10.2545 60.7318 10.2306 60.5568 10.1565C60.3512 10.0694 60.3534 9.82103 60.2813 9.62279C60.3578 9.60972 60.4212 9.5814 60.4431 9.49644C60.4956 9.30038 60.3709 9.22849 60.2703 9.16968C60.1413 9.09343 60.0319 9.02154 60.1566 8.82984C60.325 8.57279 60.6203 8.82113 60.7799 8.80806C61.0096 8.79063 61.1408 8.60982 61.2917 9.00194C61.4273 9.35266 61.7685 8.95619 61.5651 9.43762V9.4398ZM60.7187 5.86499C60.8958 6.21136 60.3119 6.24622 60.5 6.55556C60.6224 6.75597 60.7865 6.56427 60.9199 6.66666C61.0424 6.75815 60.9177 6.94114 61.1167 6.96074C61.2611 6.97599 61.4841 6.99778 61.5847 7.14373C61.8056 7.46396 60.8893 7.43564 61.038 7.97372C60.8783 8.07175 60.7668 8.10442 60.5262 7.94975C60.2135 7.74716 59.6164 7.93015 59.6383 8.40287C59.6514 8.68824 58.9318 8.3288 58.8094 8.67953C58.7394 8.87777 58.7 9.05204 58.3698 8.98887C58.3523 8.13056 58.3413 7.41604 58.3501 7.3289C58.3916 6.92371 58.8969 6.50109 59.1702 6.42921C59.3889 6.37039 59.5923 6.37039 59.7673 6.16997C59.8876 6.03273 59.9335 5.81924 60.0626 5.64715C60.1807 6.10898 60.5962 5.62536 60.7165 5.86064L60.7187 5.86499ZM60.0079 5.59922C59.8701 5.72775 59.7892 5.91945 59.7323 6.00877C59.6055 6.20701 59.3015 6.23968 59.0937 6.27236C59.1834 6.15254 59.284 5.98045 59.3102 5.80835C59.5595 5.7125 59.8154 5.46634 60.0079 5.59704V5.59922ZM58.8465 5.65586C58.9581 5.83232 59.0849 5.86499 59.2162 5.83885C59.1571 6.06541 59.0193 6.12858 58.9318 6.31375C58.7153 6.42703 58.4748 6.61655 58.3217 6.81479L58.2932 5.55565C58.4682 5.46852 58.7284 5.46852 58.8465 5.65586ZM57.589 6.39653C57.6305 6.22226 57.7421 6.17651 57.8536 6.14165L57.858 8.39198C57.7333 8.10224 57.5999 7.81905 57.5146 7.50535C57.4556 7.28969 57.449 7.05442 57.3703 6.84529C57.3331 6.7429 57.2806 6.65576 57.2238 6.57516C57.4031 6.57952 57.5562 6.52724 57.589 6.39653ZM56.6026 6.2179C56.6398 6.39217 56.852 6.51417 57.0707 6.55773C57.121 6.62527 57.1735 6.6928 57.2106 6.77122C57.3178 7.00213 57.3244 7.43564 57.3987 7.71884C57.1581 7.66002 57.0226 7.19384 56.9373 7.07184C56.7492 6.80172 56.1543 6.73854 56.1302 6.57952C56.1368 6.56427 56.2549 6.4096 56.2855 6.30068C56.3227 6.16779 56.303 6.01095 56.279 5.85846C56.2877 5.85846 56.2943 5.85846 56.303 5.85846C56.6267 5.83667 56.5698 6.06541 56.6026 6.2179ZM55.0608 5.38792C55.1592 5.30296 55.4019 5.43366 55.5069 5.02629C55.5769 4.75617 56.1499 4.88252 56.1171 5.22453C56.0996 5.40099 55.8765 5.52298 55.9706 5.72993C56.0165 5.83232 56.0974 5.85846 56.1805 5.86281C56.198 6.06541 56.198 6.29414 56.0253 6.43574C55.9881 6.37475 55.8481 6.07848 55.6075 5.97827C55.4348 5.90638 55.262 5.86935 55.087 5.87371C55.0673 5.71032 54.8836 5.54041 55.0608 5.38792ZM55.2576 7.68181C55.1985 7.59031 55.3385 7.5511 55.3954 7.50535C55.5857 7.35068 55.3844 7.25048 55.2314 7.22434C55.4544 6.84311 54.8967 6.79736 54.8814 6.51417C54.8705 6.30286 55.0498 6.14819 55.0826 5.96084C55.3101 5.97174 55.531 6.03491 55.7169 6.22008C55.8131 6.31593 55.8809 6.44228 55.9356 6.57734C56.0209 6.80172 56.1587 6.83875 56.2155 6.87143C56.478 7.02828 56.7382 7.04135 56.8782 7.40732C56.9373 7.56199 56.9941 7.69052 57.0925 7.81251C57.1844 7.92797 57.4818 8.03907 57.4971 8.03907C57.6021 8.31355 57.7377 8.57496 57.834 8.8538C57.729 8.8647 57.6218 8.92787 57.5212 9.09997C57.4097 9.29385 57.1144 9.18275 56.8257 9.10432C56.478 8.72963 56.0231 8.4704 55.7431 8.36148C55.7562 8.33534 55.7716 8.30702 55.7934 8.27216C55.8897 8.12839 56.0362 8.14363 56.1783 8.14363C56.2899 8.14363 56.4933 8.1676 56.5283 7.97807C56.6048 7.56199 56.128 7.65566 55.94 7.68616C55.7847 7.7123 55.3866 7.8844 55.2554 7.68181H55.2576ZM55.4741 8.59021C55.6513 8.52486 55.6841 8.47911 55.7191 8.40722C56.0099 8.59457 56.3205 8.80588 56.5851 9.05422C56.4342 9.03679 56.3008 9.06075 56.2177 9.18057C56.1302 9.30692 56.2768 9.41148 56.2133 9.45505C56.1434 9.50298 56.0909 9.55526 56.0537 9.60318C55.9968 9.55308 55.94 9.5008 55.8722 9.47684C55.7147 9.41802 55.566 9.43327 55.4063 9.46594C55.0105 9.5509 54.7721 9.43109 54.4703 9.12611C54.4637 9.11957 54.4571 9.11304 54.4506 9.1065C54.4812 9.03897 54.5031 8.95619 54.5096 8.84509C54.5293 8.57279 55.1067 8.72528 55.4697 8.59021H55.4741ZM54.3937 9.20453C54.4484 9.28513 54.5031 9.36356 54.5643 9.42891C54.7743 9.65547 55.1657 9.7535 55.4107 9.67943C55.2467 9.82103 54.853 10.0236 54.5249 10.0127C54.1859 10.0018 53.8776 9.78617 53.5517 9.68814C53.6348 9.59229 53.6873 9.47684 53.6545 9.34395C53.7726 9.23067 54.1838 9.44198 54.3937 9.20453ZM53.1602 9.92559C53.2543 9.90599 53.3899 9.84063 53.4948 9.74696C53.8054 9.97134 54.175 10.1696 54.5249 10.1783C55.2467 10.1935 55.6797 9.69468 55.6688 9.65111C55.7475 9.65111 55.8284 9.67289 55.9072 9.73171C55.9334 9.75132 55.9575 9.76875 55.9837 9.78835C55.9662 10.0214 56.2571 10.1696 56.4583 9.95609C56.6201 9.93213 56.7732 9.84281 56.9351 9.80142C56.9569 9.82539 56.9766 9.85588 56.9897 9.89509C57.0182 9.98005 57.0882 9.9953 57.1756 9.9757C57.2675 10.2502 57.46 10.7403 57.7224 10.9625C57.683 10.9843 57.6393 10.993 57.6109 10.9974C57.4184 11.0148 56.9416 11.0867 57.0947 11.3677C57.2478 11.6509 57.554 11.5028 57.8646 11.4265L57.8689 13.4198C57.7727 13.422 57.6874 13.4133 57.6109 13.3958C57.5278 13.3022 57.379 13.2172 57.2281 13.2085C56.9416 12.9623 56.841 12.5593 56.7273 12.3349C56.5698 12.0278 56.268 11.8448 55.9837 11.945C55.6863 12.0496 55.4216 12.531 55.1198 12.2326C54.9405 12.0583 55.2314 11.6466 55.1789 11.3503C55.087 10.8275 54.7152 10.6946 54.4506 10.6358C54.0285 10.5399 53.6107 10.5312 53.2127 10.2959C53.0487 10.2001 52.959 10.0694 52.8693 9.89727C52.9546 9.92995 53.0443 9.95173 53.1624 9.92559H53.1602ZM51.778 10.6815C51.7102 10.6205 51.7168 10.4201 51.4806 10.4506C51.3756 10.4637 51.0978 10.5138 51.1809 10.3046C51.3209 9.95609 51.8961 9.99312 52.141 9.92559C52.3313 9.87331 52.4057 9.76003 52.6331 9.81449C52.6594 9.82103 52.6856 9.82974 52.7097 9.83846C52.795 9.98877 52.8497 10.1914 52.9524 10.309C53.1296 10.5116 53.4708 10.6292 53.7004 10.7055C53.5276 10.7251 53.2411 10.7403 53.3308 11.42C53.3417 11.505 53.3308 11.5681 53.3067 11.6204C53.0771 11.5638 52.854 11.5333 52.8081 11.4636C52.655 11.2305 53.2805 10.8514 52.8584 10.6859C52.6572 10.6074 52.4122 10.6619 52.2067 10.6968C52.082 10.7185 51.8808 10.7817 51.7736 10.6837L51.778 10.6815ZM51.6577 14.7465C51.7955 14.6136 51.9486 14.6528 52.1082 14.6245C52.3598 14.5809 52.3423 14.1474 52.176 14.0014C52.0536 13.8925 51.7649 13.8054 51.6818 13.6376C51.5177 13.3065 52.012 13.483 52.1564 13.2956C52.2701 13.1475 52.1629 12.9798 52.2285 12.8556C52.3138 12.6966 52.5085 12.653 52.6484 12.6835C52.8278 12.7227 53.0027 12.8316 53.1537 12.958C53.6895 13.4067 53.9716 13.2477 54.1378 13.0582C54.2997 13.1649 54.4703 13.2412 54.6627 13.2564C54.8683 13.2717 55.063 13.1584 55.2685 13.202C55.4348 13.2368 55.5835 13.3632 55.7453 13.4111C55.4916 13.4764 55.5047 13.7466 55.4019 13.7684C55.2904 13.7923 55.1592 13.7531 55.063 13.8511C54.9733 13.9448 55.0389 14.0494 54.9777 14.1452C54.9252 14.2258 54.5818 14.3435 54.7152 14.6201C54.8093 14.8162 54.9798 14.7378 55.0105 14.997C55.0804 15.5743 55.8328 14.9665 55.9159 15.3586C55.9465 15.498 55.7934 15.5329 55.9115 15.6767C55.9181 15.6832 55.9247 15.6876 55.9312 15.6919C55.9356 15.803 55.9443 15.9141 55.9618 16.0274C55.9837 16.1624 56.0253 16.2844 56.0734 16.4021C55.8525 16.328 55.5616 16.3738 55.3888 16.3585C55.1942 16.3411 55.0017 16.2126 54.8158 16.1145C54.7502 16.0078 54.6452 15.986 54.5359 15.9947C54.5227 15.9947 54.514 15.9947 54.5009 15.9947C54.4615 15.9838 54.4221 15.9751 54.3806 15.9686C54.2931 15.9098 54.3347 15.7703 54.3215 15.6592C54.2537 15.0994 53.5714 15.5067 53.4577 15.4937C53.3461 15.4806 53.3745 15.4131 53.3002 15.3194C53.2236 15.2214 53.0334 15.1974 52.9196 15.2584C52.7797 15.3346 52.8518 15.5155 52.6178 15.4958C52.5522 15.4893 52.292 15.5089 52.2088 15.6178C51.8633 15.4196 51.6905 15.0994 51.5024 14.9861C51.5527 14.9055 51.5943 14.8096 51.6599 14.7465H51.6577ZM52.2351 16.5328C51.8808 16.8813 51.4609 16.0666 51.0628 16.4064C50.8769 16.5655 50.7501 16.4239 50.6757 16.3672C50.5051 16.2409 50.3236 16.4326 50.1486 16.3759C49.9781 16.3215 49.8315 15.9816 49.954 15.7878C50.0896 15.5765 50.3892 15.7202 50.4986 15.4675C50.5664 15.3085 50.3564 15.241 50.5532 15.0602C50.831 14.8053 51.1438 15.3063 51.4149 15.0885C51.4215 15.0819 51.4281 15.0732 51.4346 15.0667C51.649 15.217 51.8895 15.5612 52.1979 15.7594C52.316 15.9882 52.9459 15.9163 52.7425 16.328C52.6769 16.4609 52.4057 16.3629 52.2329 16.5328H52.2351ZM51.9858 17.7266C52.1039 17.6264 52.3291 17.598 52.386 17.4564C52.4472 17.3083 52.3619 17.0709 52.4625 16.9554C52.5347 16.8726 52.8759 17.0578 52.9415 16.8334C52.9831 16.694 52.9196 16.6896 52.9481 16.5872C53.088 16.4805 53.6107 16.4282 53.6326 16.7049C53.6392 16.7964 53.5714 16.9075 53.6042 16.9968C53.6545 17.1362 53.8404 17.0817 53.9388 17.0948C54.0569 17.1101 54.0788 17.5022 54.8027 17.3671C54.9099 17.3475 55.1898 17.1253 55.4894 17.2059C55.6272 17.243 56.1412 17.3453 56.2374 17.1253C56.373 16.8203 55.7978 16.7441 55.6644 16.7332C55.4741 16.718 55.2248 16.7789 55.0411 16.7071C54.8945 16.6504 54.8967 16.4914 54.8792 16.3389C54.9973 16.4195 55.1111 16.5066 55.2423 16.535C55.5419 16.596 56.0734 16.45 56.2505 16.7724C56.2549 16.7833 56.4933 17.3432 56.6967 17.7788C56.5567 17.72 56.3402 17.6634 56.1805 17.659C55.8394 17.6503 55.5485 17.9553 55.227 18.0512C54.9383 18.1361 54.6474 17.8464 54.3609 17.8246C54.1116 17.805 53.8732 17.9531 53.6326 18.0686C53.6239 18.0577 53.6173 18.0468 53.6086 18.0403C53.3199 17.8006 52.9634 18.123 52.8825 18.0991C52.795 18.0729 52.795 17.9684 52.7206 17.9401C52.4669 17.8464 52.1651 18.7221 51.9136 18.2646C51.8524 18.1535 51.7867 17.8899 51.988 17.7222L51.9858 17.7266ZM51.8261 19.2754C51.9223 19.3212 51.9595 19.4911 52.0558 19.5652C52.1061 19.6044 52.1629 19.6196 52.222 19.6283C52.1913 19.8484 52.0929 20.1926 52.0864 20.2187C51.9748 20.1272 51.8108 20.0531 51.6993 19.9616C51.5024 19.8026 51.4827 19.5869 51.4937 19.3408C51.5943 19.2689 51.6993 19.2166 51.8261 19.2776V19.2754ZM49.8315 19.7787C49.9474 19.5717 50.468 19.8179 50.4505 19.4519C50.6692 19.1055 50.8398 19.5238 51.0869 19.5434C51.205 19.5521 51.3056 19.4802 51.4018 19.404C51.3953 19.5782 51.4149 19.7547 51.4762 19.8985C51.5833 20.149 51.8305 20.2122 52.0011 20.3755C51.9705 20.5672 51.7627 20.7284 51.7583 20.9681C51.6249 20.9267 51.4806 20.9398 51.345 20.9463C51.0825 20.9572 50.8529 20.9703 50.6167 20.9049C50.6167 20.8831 50.6167 20.857 50.6145 20.8287C50.5729 20.5302 50.2383 20.2361 50.0065 20.2361C49.8906 20.1555 49.7287 19.966 49.8315 19.7808V19.7787ZM49.0179 21.3471C49.3701 21.1641 49.4553 21.4386 49.6806 21.5279C50.0174 21.663 50.1946 21.3079 49.9234 21.1271C49.9452 20.9899 50.3433 21.1336 50.527 21.04C50.6757 21.1075 50.8354 21.1293 50.9972 21.138C51.24 21.1489 51.5527 21.053 51.7802 21.1881C51.9551 21.3297 52.1214 21.6891 52.2417 21.8765C52.316 21.9898 52.4035 22.0769 52.5041 22.1379C52.2001 22.31 51.8961 22.4516 51.5484 22.5082C51.38 22.5365 51.2072 22.554 51.0431 22.5997C50.6298 22.2272 50.0896 22.2926 49.6019 22.2512C49.2804 22.225 49.0442 22.0987 48.8036 21.8351C48.6877 21.7087 48.5718 21.5846 48.4384 21.5149C48.6177 21.2839 48.7533 21.4822 49.0179 21.3449V21.3471ZM48.364 21.6369C48.3706 21.6238 48.3771 21.6129 48.3859 21.5998C48.6024 21.7175 48.7686 21.9571 48.9567 22.1357C48.9808 22.1597 48.4318 22.3601 47.9594 22.3928C47.931 22.249 47.8326 22.09 47.6226 21.8721C47.5832 21.5519 48.2153 21.9179 48.3662 21.6347L48.364 21.6369ZM49.0464 23.0311C48.8102 23.0376 48.7817 22.7348 48.4734 22.7587C48.2306 22.7762 48.3006 23.0311 48.0425 23.0332C47.9375 23.0332 47.8107 22.957 47.9135 22.7152C47.9441 22.6455 47.9616 22.5779 47.966 22.5104C48.0316 22.5039 48.0863 22.4952 48.1234 22.4908C48.5412 22.4385 49.0748 22.2534 49.0814 22.2446C49.2038 22.3209 49.3351 22.3623 49.475 22.3906C49.9212 22.4799 50.4526 22.3819 50.8572 22.6716C50.7501 22.7217 50.6495 22.7914 50.5576 22.8938C50.3958 23.0746 50.2733 23.3469 50.1115 23.543C50.0721 23.5517 50.0305 23.5648 49.9824 23.5844C49.8993 23.6192 49.6041 23.6977 49.5647 23.5452C49.5297 23.4079 49.6719 23.4036 49.6981 23.3077C49.7987 22.9134 49.171 23.0311 49.0464 23.0354V23.0311ZM49.451 25.4992C49.5144 25.3859 49.7069 25.3663 49.5669 25.1812C49.475 25.057 49.3241 25.0505 49.311 24.837C49.2979 24.6148 49.4553 24.4819 49.6063 24.4383C49.9365 24.3381 50.3695 24.5647 50.6735 24.3643C50.761 24.3076 50.7413 24.2488 50.7479 24.1834C50.9229 24.2357 51.0978 24.2902 51.275 24.3403C50.9753 24.8304 50.8529 24.654 50.5598 24.8239C50.2121 25.0243 49.9846 25.4491 49.744 25.8194C49.5035 25.7476 49.3132 25.7476 49.451 25.5014V25.4992ZM51.568 24.6976C51.5637 24.7694 51.6183 24.8457 51.6118 24.935C51.5965 25.1921 51.4106 25.1115 51.2619 25.1485C51.0738 25.1942 51.1197 25.4055 50.9863 25.5036C50.5423 25.826 51.2903 26.3248 50.5314 26.3924C50.4439 26.4011 50.3061 26.3728 50.2646 26.266C50.1705 26.0264 50.0065 25.9175 49.8468 25.8565C50.0655 25.5711 50.2514 25.2443 50.5248 25.0352C50.6757 24.9198 50.8529 24.9263 51.0147 24.85C51.2181 24.7542 51.3953 24.3534 51.544 24.41C51.5615 24.4144 51.6555 24.4449 51.7911 24.4623C51.6752 24.5037 51.5746 24.5799 51.5659 24.6976H51.568ZM54.14 24.6758C54.0941 24.7128 54.0394 24.7433 53.9804 24.7716C53.9869 24.7324 53.9891 24.6954 53.9497 24.6518C53.836 24.5233 53.3964 24.3141 53.3942 24.6867C53.2958 24.7106 53.0618 24.5821 52.9393 24.85C52.8759 24.9916 52.6113 24.972 52.5019 24.8958C52.3663 24.7999 52.292 24.5756 52.1498 24.4732C52.1454 24.471 52.1389 24.4688 52.1345 24.4666C52.3051 24.4427 52.4888 24.3751 52.6463 24.2248C52.7797 24.0963 52.8825 23.9264 52.9021 23.7129C52.924 23.445 53.2827 23.3927 53.2936 22.8045C53.871 22.7348 53.8666 23.1051 54.1006 23.2511C54.5162 23.5103 55.1373 23.5103 55.4369 23.4951C54.7436 23.7325 54.3368 24.5211 54.14 24.6801V24.6758ZM56.2724 23.2816C56.0231 23.275 54.4921 23.3404 54.1553 22.9766C54.0613 22.8764 53.8973 22.5387 53.3133 22.6019C53.3308 22.4625 53.3592 22.3296 53.4336 22.2141C53.5386 22.0486 53.7638 21.9004 53.9716 21.9593C54.1663 22.0529 54.35 22.2446 54.5468 22.3143C54.9317 22.4494 55.391 22.2708 55.7847 22.2621C56.1871 22.2534 57.1516 22.5518 57.8864 23.2489V24.6845C57.8864 24.6845 57.2653 23.3121 56.2746 23.2816H56.2724ZM58.7634 26.5274L58.676 22.6193C58.7788 22.6389 58.8728 22.7021 58.9384 22.8786C59.0303 23.1269 59.5552 23.1487 59.6536 22.8415C59.7192 22.6346 59.9904 22.5387 60.1719 22.6041C60.5896 22.7544 60.3337 23.0289 60.4387 23.445C60.4628 23.5364 60.5196 23.604 60.5962 23.6519C60.3928 23.8414 60.1457 23.9765 59.9466 24.1573C59.5552 24.5146 59.4021 25.0243 59.4786 25.5406C59.1965 25.7998 58.8203 26.4142 58.7634 26.5231V26.5274ZM60.898 24.6954C60.5021 24.6845 59.9969 24.9699 59.7367 25.2443C59.6339 24.5407 60.3184 24.1203 60.7252 23.7107C60.9746 23.7848 61.3157 23.7281 61.5126 23.5822C61.8712 23.3142 62.2802 23.5909 62.3415 23.7151C62.3852 23.8044 62.2759 24.0244 62.3896 24.1682C62.3196 24.1682 62.2496 24.1617 62.1818 24.1551C61.9828 24.1333 61.7553 24.0571 61.5541 24.0985C61.2239 24.1682 60.9811 24.5908 60.898 24.6954ZM66.709 25.6975C67.0699 25.7388 67.1486 26.0961 66.9671 26.1658C66.8227 26.2225 66.6347 26.0852 66.4991 26.1724C66.4006 26.2355 66.4269 26.3575 66.3569 26.4359C66.3088 26.4882 66.0551 26.4207 65.8911 26.5405C65.8036 26.5405 65.7117 26.5449 65.6286 26.5253C65.3815 26.4686 65.1365 26.3466 64.9091 26.1963C65.4252 26.2355 65.9982 25.8761 66.4072 25.5406C66.5012 25.6495 66.6478 25.6909 66.7112 25.6975H66.709ZM65.2787 25.2857C65.4405 25.1158 65.4143 24.9263 65.6833 24.85C65.9239 24.7803 66.4203 24.8849 66.3416 25.1877C66.311 25.3032 66.3241 25.3925 66.3569 25.4622C65.8123 25.8129 65.1103 26.2769 64.6007 25.9458C64.5985 25.9458 64.5613 25.9131 64.5045 25.8652C64.511 25.8412 64.5198 25.8151 64.5263 25.7846C64.651 25.2531 65.0556 25.5166 65.2765 25.2857H65.2787ZM64.6794 24.7193C64.5854 24.7564 64.4388 24.7084 64.382 24.8304C64.2114 25.1942 63.9774 24.8348 63.7784 25.0287C63.6996 25.1049 63.6668 25.1725 63.6603 25.2313C63.5203 25.155 63.3759 25.0962 63.2272 25.057C63.4656 24.9568 63.6756 24.7999 63.868 24.5973C63.9271 24.5342 64.0714 24.3795 64.2333 24.2597C64.6422 24.2314 64.9484 24.6061 64.6794 24.7172V24.7193ZM63.4022 24.19C63.5881 24.0331 63.7455 24.3163 63.9314 24.3294C63.7084 24.5342 63.5137 24.7368 63.2425 24.8631C62.6083 25.1594 61.8756 24.9023 61.237 24.752C61.2151 24.7477 61.1933 24.7433 61.1714 24.7368C61.3267 24.5342 61.4688 24.3207 61.7203 24.3054C62.0571 24.2858 62.3655 24.3904 62.663 24.288C62.6761 24.288 62.687 24.2924 62.7001 24.2945C62.8226 24.3054 62.9123 24.6039 63.4022 24.1878V24.19ZM63.7893 16.2561C62.9976 16.2735 63.6056 16.9489 63.4109 17.0905C63.3541 17.1319 63.0479 17.0687 63.0741 17.3628C63.0872 17.5 63.3081 17.6024 63.1485 17.7483C62.9888 17.8943 62.5864 17.7701 62.5274 18.0751C62.5121 18.1514 62.5077 18.5304 61.9041 18.4258C61.7203 18.3953 61.4776 18.3736 61.2873 18.4411C61.1561 18.428 61.0227 18.4128 60.8936 18.3757C60.6946 18.3191 60.5503 18.1644 60.384 18.049C60.5612 17.988 60.7362 17.9313 60.9089 17.8616C61.1801 18.0468 61.6657 17.903 61.8997 17.7658C62.2496 17.5566 61.9434 17.2408 61.9828 17.1035C62.0528 16.8595 62.7679 16.975 62.862 16.6504C62.9014 16.5154 62.8948 16.4043 62.862 16.3106C62.9517 16.2474 63.0304 16.1995 63.0851 16.1777C63.3912 16.2561 63.798 16.1472 63.9818 16.0949C64.2573 16.0165 64.5241 15.8509 64.71 15.5852C64.7341 15.6157 64.7538 15.6462 64.7625 15.6767C64.8588 15.9925 64.5635 16.2387 63.7915 16.2539L63.7893 16.2561ZM64.9572 14.8075C64.8303 14.9534 64.5854 14.8946 64.4695 15.0493C64.3339 15.2301 64.5001 15.3673 64.6335 15.5024C64.4235 15.742 64.1808 15.8771 63.8921 15.9642C63.5662 16.0622 63.3541 16.0187 63.3475 16.0187C63.5487 15.8901 63.7412 15.7398 63.914 15.5394C64.113 15.3085 64.2704 14.8358 64.5176 14.5286C64.522 14.5286 64.5263 14.5286 64.5329 14.5264C65.1518 14.3587 65.0534 14.7007 64.9594 14.8075H64.9572Z" fill="#1B5633"/>
<path d="M41.1205 28.1415C41.4857 28.4901 41.6847 27.8648 42.0434 27.7908C42.1068 28.1698 41.746 28.0827 41.8728 28.4726C41.7635 28.4312 41.6563 28.3855 41.5491 28.3397C41.3917 28.3136 41.3217 28.3811 41.3392 28.5402C41.4639 28.7428 41.4114 28.8691 41.1795 28.9192C41.0811 28.9911 41.0549 29.0848 41.0986 29.1981C41.2233 29.7536 41.9428 29.4812 42.1703 29.2416L42.2993 29.6076C42.5027 29.4333 42.4918 29.3375 42.7039 29.5488C42.4262 29.7993 42.3256 29.9431 42.4437 30.2894C42.7608 30.1152 42.7805 30.0215 42.9882 30.3265C43.1872 30.1544 43.4169 30.2393 43.629 30.3417C43.6881 30.3483 43.745 30.3548 43.804 30.3613C43.9812 30.3178 44.0424 30.3853 43.9899 30.5639C44.0271 30.6424 44.0818 30.7012 44.1561 30.7404C44.2239 30.8188 44.2873 30.8036 44.3464 30.6903C44.646 30.7818 44.4339 30.3809 44.7947 30.8144C45.1512 30.1413 45.7352 30.3069 46.3322 30.3788C46.47 30.3962 46.6144 30.4855 46.7631 30.4811C46.9993 30.4746 47.1983 30.2851 47.4433 30.3374C47.6248 30.3766 47.8785 30.5095 47.7494 30.7731C47.6292 31.0192 47.4586 30.882 47.2792 30.9299C46.9512 31.0192 46.6865 31.1347 46.411 31.3329C46.2294 31.4614 45.8926 31.8165 45.6171 31.7947C45.4421 31.7817 45.3656 31.5486 45.2278 31.5464C44.9784 31.5464 44.9456 31.6836 44.7619 31.8623C44.7204 31.9015 44.3836 32.1455 44.3726 32.2348C44.3551 32.372 44.6088 32.5507 44.5039 32.6683C44.353 32.6443 44.1364 32.6008 43.9855 32.6596C43.8543 32.7097 43.8171 32.8687 43.6946 32.8949C43.6378 32.5594 43.4038 32.7794 43.1523 32.7794C43.1916 32.9689 43.2835 33.1846 43.2157 33.3654C43.1304 33.5963 43.056 33.5026 42.9576 33.6028C42.8832 33.6791 42.7673 33.6421 42.7345 33.8643C42.728 33.9122 42.9314 34.0647 42.9292 34.0581C42.986 34.2302 42.7608 34.3304 43.1173 34.3653C43.2966 34.3827 43.699 33.9906 43.8849 33.8577C43.9155 34.0647 44.0621 34.215 44.2349 34.093C44.4339 33.9536 44.1824 33.886 44.2698 33.7161C44.377 33.8839 44.4514 34.0407 44.6504 34.1039C44.7532 34.0538 44.8385 33.9819 44.9041 33.8839C45.0222 34.0167 45.1272 34.0146 45.2168 33.8795C45.3852 33.7292 45.4049 33.4329 45.5624 33.3022C45.6827 33.263 45.803 33.226 45.9254 33.1868C45.9932 33.043 46.096 32.9341 46.2338 32.86C46.5684 32.7881 46.6406 33.3175 46.9315 32.7511C47.0518 32.5158 47.0277 32.3982 47.2049 32.2326C47.3667 32.0823 47.5985 32.0278 47.8019 31.9668C47.6226 32.213 47.2836 32.4134 47.4476 32.7663C47.557 32.5114 47.8916 31.8187 48.2831 31.9647C48.4974 32.0453 48.563 33.2717 48.434 33.4721C48.3268 33.6355 48.3093 33.5092 48.1256 33.5636C47.8719 33.6399 47.826 33.6595 47.6576 33.7945C47.4126 33.9862 46.7631 34.4154 46.6253 34.7138C46.7653 34.6115 46.8571 34.5025 47.0321 34.5091C46.9971 34.7117 46.8943 34.8533 46.8768 35.0668C47.0627 34.9513 47.0758 34.5853 47.1983 34.4089C47.3295 34.2172 47.5657 34.0581 47.7516 33.9296C48.0272 33.7401 48.2678 33.5702 48.4384 34.008C48.6483 34.5461 48.4274 35.4785 48.4034 36.0492C48.4012 36.1211 48.4034 36.193 48.399 36.2649H49.1404C49.1404 36.0514 49.1404 35.8379 49.1404 35.6223C49.1426 35.0602 49.0792 34.5178 49.0967 33.9536C49.1054 33.6726 49.1207 33.3915 49.1273 33.1105C49.1338 32.7641 48.9786 32.4265 49.3657 32.3786C49.4225 32.5507 49.2738 32.7968 49.3788 32.9885C49.5931 33.385 49.6697 33.0604 50.0327 33.1584C50.5226 33.2913 50.8223 33.91 51.24 34.178C51.439 33.8991 51.7146 34.1867 51.9158 33.9056C52.0798 34.0429 52.0842 34.1496 52.1804 33.8904C52.2307 33.9601 52.2745 34.0342 52.3095 34.1126L52.4888 33.9361C52.6288 34.1976 53.6654 33.8948 52.8518 33.4983C52.5413 33.3458 52.5741 33.3305 52.3598 33.0887C52.2417 32.9537 52.0448 32.7053 51.8655 32.6923C52.1673 32.4003 52.4385 32.6988 52.7797 32.6247C53.508 32.4679 52.8453 32.0714 52.5522 31.834C52.4713 31.8035 52.3882 31.7839 52.3029 31.7751C52.3291 31.6139 52.2613 31.5268 52.0973 31.5115C51.918 31.3569 51.837 31.2 51.6118 31.0933C51.3537 30.9713 50.7457 31.0519 50.5729 31.3416C50.6232 30.98 50.059 31.1782 49.8053 31.1782C49.884 30.723 49.6981 30.7099 49.3285 30.9343C49.1164 30.3199 50.258 30.9277 50.4395 30.9277C50.5029 30.9277 50.866 30.76 50.925 30.7404C51.1634 30.662 51.4128 30.5835 51.6468 30.4855C51.9027 30.3788 52.117 30.235 52.3685 30.2742C52.5391 30.3003 52.7556 30.5901 52.9262 30.5356C52.9962 30.5138 53.0968 30.3199 53.1143 30.3156C53.1143 30.2088 53.1799 30.1587 53.3111 30.1653C53.3374 30.2088 53.3636 30.2546 53.3877 30.2982C53.2849 30.2982 53.6764 30.4005 53.5976 30.3592C53.7354 30.4332 53.731 30.3199 53.9213 30.4986C54.0022 30.3788 54.1225 30.0847 54.2275 30.015C54.3456 29.9365 54.4418 30.0716 54.5774 29.9627C54.6037 30.089 54.6605 30.198 54.748 30.2916C55.2292 29.7013 56.1652 30.662 56.3052 29.5292C56.0165 29.4791 55.905 29.6512 55.6688 29.4486C55.4107 29.2285 55.6207 28.9693 55.4019 28.7754C55.0848 28.4966 55.192 29.0652 55.0017 29.0129C54.8071 28.9606 54.8267 28.7319 54.6671 28.6687C54.6212 28.6513 53.9476 28.6382 53.9213 28.6513C53.7682 28.7297 53.8295 28.9998 53.6392 29.1806C53.3549 29.4486 53.2258 29.3004 53.0552 28.9955C52.8781 28.6796 52.9721 28.5772 52.6594 28.4617C52.0907 28.2548 51.9464 28.8081 51.4718 28.8865C51.2225 28.9279 51.2137 28.9911 51.2925 28.6665C51.3603 28.3877 51.4259 28.4443 51.6905 28.196C51.7977 28.0958 51.8064 27.9672 51.9595 27.9041C52.0579 27.8213 52.1454 27.8474 52.2242 27.9847C52.2679 27.9542 52.3095 27.9237 52.3532 27.8953C52.6331 27.928 52.8365 27.9912 53.1121 27.9476C53.3942 27.9041 53.6457 27.8213 53.9432 27.9324C54.2188 28.0348 54.2756 28.3899 54.5665 27.9455C54.6299 28.0217 54.6933 28.0979 54.7568 28.1742C54.8902 27.9454 55.0455 27.4902 55.3495 27.5838C55.5572 27.647 55.5594 28.0043 55.7562 28.0478C55.8918 27.7799 56.4189 28.1459 56.373 27.7167C56.3424 27.4313 55.9334 27.4836 55.9159 27.2353C55.8918 26.9129 56.3424 27.0741 56.5064 26.9564C56.7951 26.7538 56.7382 26.5338 56.4036 26.4685C56.4736 26.2267 56.3905 25.7888 56.1084 25.6472C55.7366 25.462 55.6469 25.7888 55.3254 25.7953C55.2532 25.6929 55.1614 25.6189 55.0455 25.5775C54.9711 25.5666 54.9055 25.5884 54.853 25.6385C54.7218 25.632 54.4812 25.7888 54.3325 25.7343C54.1269 25.6581 54.2472 25.4925 54.0744 25.4446C53.7529 25.3531 53.9432 25.5688 53.6895 25.5818C53.508 25.5906 53.2718 25.4337 53.0356 25.4446C53.0574 25.584 53.0793 25.7234 53.1012 25.865C52.7753 25.6058 52.6288 25.7169 52.4975 26.0328C52.2285 25.7757 52.515 25.926 52.5019 25.7126C52.5019 25.6951 52.4429 25.3008 52.4516 25.279C52.5303 25.0917 52.9678 24.8564 53.1449 24.8172C53.4052 24.7606 53.5014 24.9327 53.7748 24.7388C53.9651 24.6037 54.1488 24.4948 53.9694 24.216C54.0963 24.2399 54.2034 24.2486 54.339 24.277C54.4134 24.1898 54.4878 24.1877 54.5665 24.2726C54.6234 24.3205 54.6846 24.3641 54.748 24.4055C54.9317 24.4534 55.3626 24.7235 55.5769 24.5732C55.6972 24.4905 55.6075 24.3489 55.7322 24.2486C55.9356 24.0853 55.9924 24.3445 56.1127 24.0156C56.0909 23.9132 56.0406 23.8304 55.9618 23.7629C56.0231 23.6365 56.0493 23.5058 56.0406 23.3664C55.9618 23.1115 55.6928 23.1246 55.7147 23.4078C55.2576 23.349 55.5616 22.9939 55.2554 22.8523C55.0411 22.7521 54.8836 23.0462 54.7086 22.8043C54.5315 22.5604 54.8945 22.654 54.8639 22.4841C54.8114 22.1987 54.6671 22.3621 54.5752 22.2249C54.5074 22.2401 54.444 22.2271 54.3893 22.1857C54.3937 22.0942 54.4309 22.0179 54.5031 21.9569C54.3019 21.8132 54.4112 21.9787 54.1706 21.9395C53.9169 21.8981 53.7288 21.7805 53.4883 21.7086C53.2018 21.6215 52.9546 21.7195 52.6638 21.628C52.8234 22.2358 52.5041 21.8872 52.1804 22.3077C51.778 22.0528 52.1017 21.7631 51.5112 21.8698C51.2859 21.9112 50.8966 22.1922 50.702 22.1399C50.761 21.5212 50.8879 21.5888 51.3712 21.53C51.684 21.4929 51.8874 21.262 52.1585 21.4907C52.3226 21.347 52.3926 21.0071 52.6441 20.981C52.6135 20.9832 52.9787 21.1771 53.0159 21.1879C53.0684 21.2054 53.7376 21.2794 53.7529 21.2685C54.0197 21.0943 53.7135 20.7043 53.5998 20.5932C53.7792 20.6107 53.9191 20.6825 54.0241 20.5279C54.081 20.6782 54.1663 20.8111 54.28 20.9222C54.4025 20.6194 54.8071 20.5758 55.0126 20.6913C55.0236 20.3514 54.9711 20.2098 54.9383 19.9397C54.9055 19.6696 55.0914 19.5694 54.7174 19.4779C54.8311 19.1838 54.5752 19.199 54.6933 18.8766C54.5053 18.8243 54.444 18.8483 54.2625 18.8766C53.8448 18.942 54.0875 19.0335 53.7442 18.8265C53.6195 18.7503 53.5408 18.6174 53.4052 18.5477C53.2521 18.4714 53.064 18.5237 52.9109 18.3908C52.7381 18.2405 52.8168 16.7592 52.2242 17.0315C52.316 16.8289 52.2395 16.9008 52.1739 16.7592C52.0273 16.7832 51.9901 16.7222 52.0645 16.5762C52.0623 16.4869 52.0339 16.4085 51.9836 16.3409C51.7736 16.0055 51.3821 16.1775 51.0585 16.1623C51.1372 15.731 50.7982 16.0294 50.6407 15.9793C50.468 15.9248 50.3695 15.6046 50.1727 15.5654C49.989 15.5284 49.6478 15.8399 49.51 15.7179C49.3482 15.5741 49.6915 14.8313 49.0901 15.3846C49.077 15.1297 49.2629 15.0164 48.8342 15.1058C48.8736 14.7812 48.7074 14.9249 48.5062 14.9925C48.3706 15.036 48.2197 15.1689 48.1147 15.2321C48.0272 15.2866 48.2153 15.4587 47.99 15.4783C47.99 15.3084 47.9572 15.2779 47.7823 15.3105C47.6882 15.3301 47.651 15.7157 47.5854 15.8159C47.3798 15.5458 47.5329 15.5458 47.1414 15.7375C46.9621 15.8268 46.9096 15.8116 46.7871 15.9575C46.6822 16.0839 46.8943 16.1035 46.7128 16.232C46.5488 16.3475 46.2994 16.1601 46.1354 16.2364C45.8445 16.3714 46.0829 16.3605 45.8883 16.5348C45.6127 16.781 45.558 16.6764 45.6761 17.1165C45.2234 17.1491 45.4837 17.709 45.6674 17.5957C45.4662 17.8898 45.9123 18.0096 45.4159 18.0902C45.3809 18.0597 45.3459 18.027 45.3109 17.9965C45.2125 17.8136 45.0965 17.7939 44.961 17.9377C44.7925 17.9225 44.7116 17.9138 44.5214 17.9377C44.6876 17.4955 44.1189 17.6175 44.3114 18.0096C43.9702 18.3124 44.1627 18.1512 44.283 18.4235C44.3683 18.6152 44.3508 18.8331 44.3989 19.101C44.2108 19.1598 44.1649 18.8331 43.9374 18.8505C43.5831 18.8766 43.6487 19.2295 43.6225 19.4408C43.5722 19.8395 43.1741 20.371 43.675 20.6455C43.874 20.3362 43.9899 20.7566 43.979 20.8764C43.9483 21.2076 43.6772 21.299 43.8959 21.7042C44.2305 21.4276 44.1452 21.7326 44.0336 21.97C43.8259 21.8153 43.6225 21.6454 43.4125 21.4886C43.3644 21.4929 43.3141 21.4973 43.266 21.4995C43.1566 21.5234 43.1238 21.4842 43.1698 21.3796C43.102 21.3383 43.1544 21.1422 42.9226 21.1945C42.8395 21.2119 42.8242 21.4406 42.7673 21.4842C42.7673 21.6411 42.7083 21.7064 42.5946 21.6781C42.5399 21.6737 42.4874 21.6759 42.4327 21.6781C42.1725 21.848 42.2096 21.7347 42.109 22.0245C42.0216 22.2728 42.039 22.3316 42.109 22.6039C41.6826 22.6715 41.6694 22.8174 41.6191 23.1638C41.6257 23.1137 42.0325 23.4187 41.6191 23.3969C41.4835 23.3903 41.4879 23.2226 41.3458 23.1856C41.2495 23.1594 41.0396 23.118 40.9455 23.2379C40.9171 23.2749 40.834 23.8914 40.8405 23.9001C40.9543 24.0548 41.0243 23.9393 41.1445 24.0352C41.2233 24.0983 41.4813 24.3619 41.6257 24.229C41.8488 24.5885 41.7263 23.972 41.9581 24.4905C42.0565 24.3772 42.1571 24.2617 42.2556 24.1484C42.4349 24.4273 42.7214 23.8347 42.7914 23.7846C42.9095 23.7019 43.0451 23.6801 43.231 23.6409C43.3272 23.6213 43.5897 23.4818 43.6356 23.4753C43.734 23.4622 44.0271 23.4884 44.1386 23.4993C43.9921 23.484 44.5804 23.5123 44.482 23.5537C44.7073 23.4601 44.8385 22.8697 45.1009 22.9721C45.265 23.0353 45.4137 23.7563 45.3568 23.8609C45.2453 24.0635 45.3306 23.8347 45.0178 23.9328C44.821 23.9938 44.8516 24.0591 44.7226 24.2094C44.5804 24.375 44.3683 24.5841 44.2677 24.7933C44.0424 25.2573 44.4076 25.4163 44.7619 25.12C44.8691 25.5797 44.5782 25.3901 44.2873 25.6189L44.2633 25.7997C44.1802 25.8411 44.1058 25.8912 44.0336 25.9478C43.9155 26.0698 43.7275 26.2463 43.5722 26.3116C43.3906 26.3879 42.9926 26.4794 42.7958 26.3595C42.752 26.3334 42.8679 26.1265 42.6514 26.0567C42.424 25.9849 42.3977 26.2942 42.3715 26.4314C42.1681 26.3944 41.6388 26.1875 41.4573 26.3835C41.4398 26.4009 41.4988 26.7495 41.4595 26.8279C41.4923 26.7647 40.9543 27.0501 40.9849 27.0479C41.0636 27.3682 40.8121 27.6122 40.7684 27.867C40.7312 28.0827 40.7487 28.5598 41.1139 28.1372L41.1205 28.1415Z" fill="#1B5633"/>
<path d="M67.21 20.3888C67.21 20.3888 67.2168 20.3797 67.2236 20.3774C67.2168 20.382 67.2122 20.3865 67.21 20.3888Z" fill="#1B5633"/>
<path d="M67.8688 32.1104C67.8577 32.1148 67.8466 32.1192 67.8333 32.1236C67.8421 32.1259 67.8532 32.1214 67.8688 32.1104Z" fill="#1B5633"/>
<path d="M64.4478 30.915C64.4478 30.915 64.4478 30.9257 64.4478 30.9299C64.452 30.9299 64.452 30.9214 64.4478 30.915Z" fill="#1B5633"/>
<path d="M64.0343 30.5724C64.2618 30.7598 64.4564 30.8099 64.4673 30.6813C64.4783 30.5528 64.6336 30.3742 64.627 30.4984C64.6204 30.6225 64.7648 30.7489 64.8413 30.6748C64.9179 30.6007 65.0404 30.3197 65.1891 30.4896C65.3378 30.6596 65.4581 30.3284 65.3159 30.5877C65.1738 30.8469 64.9179 31.3044 64.9551 31.3305C64.9922 31.3567 65.0141 31.4699 64.9091 31.6747H65.7162C65.7818 31.4656 65.9196 31.2412 66.0202 31.1737C66.1208 31.1061 66.2061 30.9188 66.2367 30.982C66.2673 31.0451 66.3045 31.0342 66.2476 30.8229L66.3898 30.5746C66.4226 30.518 66.545 30.7118 66.6194 30.6182C66.7506 30.4548 66.7506 30.2043 66.8797 30.0452C66.9453 29.9646 67.3914 29.8209 67.4221 29.8013L67.5227 29.7403C67.8092 29.6052 68.1241 29.4287 68.2247 29.3503C68.3253 29.2719 68.4019 29.6161 67.9316 29.7163L67.9185 30.3045C67.9054 30.9035 68.649 30.2326 69.0274 30.3633C69.5522 30.5441 69.0011 30.7794 68.6031 30.8404C68.4565 30.8621 68.5768 30.6748 68.2816 30.7554L68.1941 30.7794C67.8901 30.9754 67.6298 31.0952 67.6189 31.0451C67.608 30.995 67.4877 31.0539 67.4592 31.1584C67.4308 31.263 67.538 31.6115 67.7129 31.7466C67.8879 31.8817 67.9032 32.0973 67.9513 32.0777C67.9994 32.0581 68.1219 32.0625 68.1307 32.1649C68.1394 32.2672 68.2903 32.3282 68.3953 32.1845C68.5003 32.0407 68.708 31.8272 68.754 31.8904C68.7999 31.9535 68.9792 31.9862 69.0667 32.2367L69.1148 32.2498L69.2701 32.2912C69.7753 31.9056 70.0662 31.6202 69.9197 31.6573L69.7841 31.9601C69.7338 32.0755 69.6069 32.276 69.6528 32.4219C69.8344 32.9927 70.1909 32.3805 70.4118 32.2716C70.8251 32.0646 70.9476 31.9383 70.9017 32.4219C70.8732 32.7247 70.8557 33.3238 70.8186 33.8858C70.7967 34.2169 70.7967 34.7855 70.7967 34.7855C70.7792 35.3432 70.7376 36.256 70.7398 36.2472C70.7398 36.2451 71.5272 36.2451 71.525 36.2516C71.5228 36.2581 71.5162 35.5567 71.5097 35.1972L71.5009 34.6439C71.4965 34.3128 71.2603 31.8512 71.6234 31.7292C71.4637 31.7836 72.3735 32.2847 72.3407 32.2672C72.4457 32.3261 72.496 32.1975 72.6535 32.3173L72.7475 32.3892C72.8241 32.6485 72.9203 32.8206 72.9597 32.7726C72.999 32.7247 73.139 32.5243 73.2309 32.4677C73.3227 32.411 73.5677 32.6964 73.4058 33.0471L73.5589 33.0645C73.8673 33.0994 74.121 32.8772 74.3834 32.7443C74.799 32.533 74.6743 32.5374 74.9849 32.6659C75.2736 32.7857 75.9516 33.7616 75.8903 32.8598C75.8685 32.5417 75.2648 31.7248 75.9406 31.7771L76.2796 31.8032C76.4043 32.1779 76.5246 32.4589 76.5464 32.4284C76.5683 32.3979 76.7105 32.3108 76.8811 32.3391C77.0517 32.3674 77.5022 32.1845 77.7712 32.2476L77.8521 31.9535L77.9637 31.5484C77.8018 31.5048 77.6181 31.5287 77.5547 31.6028C77.4912 31.6769 77.336 31.6638 77.3294 31.4002L77.5809 31.0146L77.734 30.7815C77.7843 30.6073 77.8915 30.2369 77.9746 29.9625C78.0577 29.688 77.6422 29.945 77.5984 29.7991C77.5547 29.6531 77.2244 29.6945 77.1916 29.7359C77.1588 29.7773 77.032 29.8666 76.9751 29.8361C76.9182 29.8056 76.8592 29.786 77.0254 29.7163L77.1807 29.6161C77.1807 29.6161 77.6684 29.1368 77.64 29.1434L77.4912 29.1848C77.3053 28.8275 77.1195 28.5792 77.0779 28.6293C77.0363 28.6794 76.7892 28.6946 76.6361 28.5595C76.483 28.4245 76.2293 28.6815 76.214 28.6489C76.1987 28.6162 76.1134 28.614 76.0544 28.7186C75.9953 28.8231 75.7985 28.8623 75.6148 28.8275C75.431 28.7926 75.1161 28.7447 75.0024 28.3548L74.8493 28.3221L74.6612 28.2807C74.5015 28.5116 74.8318 28.4615 75.3939 28.1674L75.3851 28.2676L75.4026 28.0781C75.278 27.8428 75.4573 27.7906 75.8007 27.9605C76.144 28.1304 76.2315 27.4224 75.7285 26.7885L75.7569 26.758L75.8685 26.6316C76.2249 26.7384 76.7105 27.0542 76.9467 27.3309C77.1829 27.6076 77.6772 27.5379 77.7974 27.7165C77.9177 27.8951 78.1802 27.7927 78.1277 27.5466L78.0096 27.3984C77.9199 27.2873 77.6837 27.1871 77.64 27.1283C77.3819 26.7732 77.4759 26.9606 77.594 26.6926C77.6728 26.5118 78.1146 26.6011 77.7865 26.1851L77.6247 25.9803C77.3972 26.1349 76.8351 26.1981 76.3802 26.1262C75.9253 26.0543 75.5163 25.4662 75.7394 25.5925C75.9625 25.7189 76.4655 25.3246 76.8614 25.2527C77.2572 25.1808 77.6115 24.8867 77.6443 24.5926L77.5897 24.5251C77.465 24.3748 77.3382 24.4619 77.2835 24.4227C77.3185 24.4467 76.9554 24.3813 76.9598 24.3835C76.7914 24.2876 77.1763 24.133 77.0429 23.9805C76.9095 23.828 76.2796 24.0066 76.6033 23.5295L76.7476 23.3161C76.9926 23.4489 77.1851 23.3662 77.1741 23.1309C77.1632 22.8956 77.067 22.3249 77.0363 22.4033C77.0057 22.4817 76.8329 22.5906 76.7761 22.4774C76.7192 22.3641 76.5268 22.3771 76.4786 22.4839C76.4305 22.5906 76.319 22.6996 76.3387 22.4861C76.3584 22.2726 76.2075 22.1179 76.1768 22.1506C76.1462 22.1833 76.0281 21.7454 75.9384 21.0679L75.7613 20.9808L75.676 20.9394C75.3479 21.1289 75.1598 21.1376 75.2561 20.9612C75.3523 20.7847 75.2473 20.5255 75.2233 20.569C75.1992 20.6126 75.0789 20.4013 75.0746 20.1486C75.0702 19.8959 74.53 19.9722 74.2457 19.689L74.1801 19.5931L74.0401 19.3862C73.8695 19.3186 73.7208 19.1444 73.7098 18.9984C73.6989 18.8524 73.4955 18.8307 73.4649 18.8851C73.4343 18.9396 73.4102 18.9962 73.3796 18.8524L73.174 18.8481H73.0034C72.9794 18.9788 73.01 18.896 73.069 18.6607L72.9247 18.4516L72.8744 18.3775C72.7388 18.5082 72.6272 18.5475 72.6251 18.469C72.6229 18.3906 72.3801 18.31 72.332 18.1401C72.2839 17.9702 72.0324 18.2316 72.0171 18.0726C72.0017 17.9135 71.6365 18.1967 71.5315 18.249L71.3303 18.2142C71.3303 18.2142 71.1226 18.2686 71.1116 18.2664C71.0569 18.2599 71.0154 18.0029 70.9192 17.9789L70.5167 17.8809C70.1799 18.1553 69.8234 18.3209 69.725 18.249C69.6266 18.1771 69.2657 18.3579 69.2526 18.2773C69.2395 18.1967 68.9705 18.3623 68.8655 18.6346C68.7605 18.9069 68.5549 18.9853 68.4019 18.7718L68.216 18.859C67.9601 18.981 68.181 19.3361 68.0476 19.5343C67.8791 19.7848 67.6604 19.2838 67.5555 19.702L67.4833 19.9961C67.7151 20.1094 67.8507 20.2314 67.7851 20.2662C67.7195 20.3011 67.562 20.4972 67.4286 20.4819C67.2952 20.4667 67.258 20.6867 67.3258 21.0352C67.3936 21.3838 67.7282 20.9895 67.7654 20.9633C67.8026 20.9372 68.2269 21.1964 68.0672 21.4883C67.9076 21.7803 67.5861 21.7911 67.3258 21.5101L67.188 21.4186C67.0524 21.3293 66.9781 21.3685 66.93 21.3511C67.0481 21.3969 66.5341 21.2596 66.5494 21.2531C66.2935 21.3598 65.3597 22.2769 65.6374 22.5079C65.6724 22.5384 65.7949 22.1266 65.9064 22.4839C65.9436 22.6015 65.7927 23.0612 65.7271 23.2071C65.609 23.4751 65.1519 23.6624 65.1628 23.6385C65.06 23.8367 65.1322 24.1439 65.3837 24.2027C65.5171 24.2354 65.7096 23.8476 65.808 23.7931C65.9436 23.7169 66.0289 23.8628 66.1098 23.8149C66.3023 23.7038 66.2739 23.5666 66.4488 23.5186C67.2886 23.2964 67.2536 23.4119 67.2536 23.4119C67.3674 23.8977 67.4942 24.2724 67.4133 24.4924L67.3455 24.5621L67.0787 24.8344C67.0087 24.7037 66.9343 24.6471 66.9168 24.7037C66.8994 24.7604 66.8031 25.0479 66.6128 25.1917L66.7572 25.3703L66.8469 25.4814C67.1662 25.1851 67.5095 25.0218 67.6101 25.1176L67.5839 25.3159L67.5795 25.3551C67.3346 25.6579 67.0831 25.8953 67.0196 25.8801C66.9562 25.8648 66.8162 25.867 66.7791 25.891C66.7419 25.9149 66.6194 25.952 66.5866 25.9193C66.5538 25.8866 66.2454 25.8888 66.007 25.9324L65.7621 26.4574C65.6943 26.6011 65.2263 27.0499 65.2306 27.0891L65.2787 27.4529C65.6221 27.2677 65.9283 27.1436 65.9545 27.1762C65.9808 27.2089 66.1623 27.0847 66.2257 27.076C66.2892 27.0673 66.5582 27.0455 66.5735 27.1109C66.5888 27.1762 66.7375 27.0978 66.7856 26.8342C66.8337 26.5706 67.0743 27.0978 66.8993 27.3331C66.7244 27.5684 66.7856 27.9452 66.8206 27.9518C66.8556 27.9583 66.9781 27.8276 67.0175 27.7513C67.0568 27.6751 67.3783 27.6969 67.5336 27.6294C67.6889 27.5618 67.9819 27.5684 67.8485 27.723L68.0585 27.8123L68.31 27.9191C68.5637 27.8516 68.8546 27.8407 68.9574 27.8929C69.0602 27.9452 69.5238 27.8102 69.725 27.8036L69.7119 28.0738L69.69 28.5116C69.3226 28.5552 69.0317 28.5116 69.047 28.4136C69.0623 28.3156 68.8677 28.2437 68.8218 28.2851C68.7758 28.3265 68.6162 28.4288 68.5659 28.4158C68.5156 28.4027 68.3319 28.3504 68.2422 28.3766C68.1525 28.4027 67.5861 28.2611 67.3783 28.431C67.1705 28.6009 66.9518 28.6685 66.965 28.6249C66.9781 28.5813 66.9015 28.5857 66.8665 28.699C66.8316 28.8122 66.6631 28.9669 66.6282 28.9451C66.5932 28.9233 66.1667 29.0061 65.8671 28.9451L65.7118 28.9386C65.3509 28.9233 65.2809 28.8972 64.966 29.0933L64.6882 29.2675C64.4695 29.8579 63.809 30.396 64.0365 30.5833L64.0343 30.5724ZM72.2817 29.2762C72.2489 29.237 72.2445 29.1913 72.2686 29.1717C72.2926 29.1521 72.7869 28.9843 72.8066 29.0497C72.8263 29.115 72.3145 29.3155 72.2817 29.2762ZM74.3419 27.0956C74.3856 27.0869 74.4009 27.039 74.3725 26.9889C74.3441 26.9388 74.4337 26.8952 74.5453 27.0194C74.6568 27.1436 74.7049 27.2852 74.6634 27.2198C74.6218 27.1545 74.3922 27.3222 74.3178 27.2939C74.2435 27.2656 74.2981 27.1065 74.3419 27.0978V27.0956ZM74.1494 28.6968L74.0707 28.8079C73.9657 28.6053 73.7929 28.4005 73.6836 28.3526L73.5064 28.455L73.1128 28.6815C73.0275 28.6968 72.9947 28.7469 73.0406 28.7948C73.0865 28.8427 73.8126 28.529 74.4928 28.2197L74.1516 28.6968H74.1494ZM72.4457 26.9693C72.9072 26.9192 72.8678 27.1261 73.3162 27.2699C73.1456 27.4464 72.3539 27.3331 72.4457 26.9693ZM72.5135 27.2547C72.391 27.9234 72.1461 27.3963 72.0061 27.967C71.958 27.4856 72.087 27.3505 72.5135 27.2547ZM71.7415 29.6466C71.8968 29.5812 71.9864 29.6074 71.9427 29.7032C71.899 29.7991 72.0324 30.0692 72.0367 30.1999C72.0411 30.3306 71.9777 30.2653 71.8924 30.1411C71.8071 30.0169 71.5862 29.7119 71.7415 29.6466ZM69.7731 27.9931C69.736 27.9801 69.8213 28.1565 69.9634 28.3831C70.1056 28.6096 70.4227 28.3068 70.3046 28.333C70.1865 28.3591 69.9525 28.431 69.9262 28.3504C69.9 28.2698 69.8081 28.0062 69.771 27.9931H69.7731ZM66.0661 30.8861V30.9798C66.007 30.9929 66.0158 30.8774 66.0661 30.8861Z" fill="#1B5633"/>
<path d="M50.5315 12.3263V10.1914C39.0298 13.287 30.5659 23.7522 30.5659 36.1867C30.5659 36.2085 30.5659 36.2281 30.5659 36.2498H35.5218C35.4605 35.5571 35.4256 34.8535 35.4256 34.1455C35.4256 24.177 41.7002 15.6723 50.5293 12.3285L50.5315 12.3263Z" fill="#1B5633"/>
<path d="M64.9289 10.261V11.6029C74.9216 14.2693 82.281 23.349 82.281 34.1431C82.281 34.8533 82.2482 35.5548 82.1848 36.2475H84.6321C84.6321 36.2257 84.6321 36.2061 84.6321 36.1843C84.6321 23.8435 76.2973 13.4415 64.9268 10.2588L64.9289 10.261Z" fill="#1B5633"/>
<path d="M103.64 36.559H103.18V36.3193H104.364V36.559H103.904V37.8094H103.638V36.559H103.64Z" fill="#231F20"/>
<path d="M104.554 36.3193H104.961L105.361 37.3628L105.766 36.3193H106.168V37.8094H105.914V36.572H105.91L105.455 37.8094H105.269L104.814 36.572H104.81V37.8094H104.556V36.3193H104.554Z" fill="#231F20"/>
<defs>
<linearGradient id="paint0_linear_4058_19111" x1="58.8072" y1="4.53148" x2="58.8072" y2="36.2495" gradientUnits="userSpaceOnUse">
<stop stop-color="#CFE0D8"/>
<stop offset="0.16" stop-color="#D4E3DC"/>
<stop offset="0.36" stop-color="#E5EEE9"/>
<stop offset="0.58" stop-color="white"/>
<stop offset="0.9" stop-color="#F1E9BD"/>
<stop offset="1" stop-color="#DBD170"/>
</linearGradient>
</defs>
</svg>
